<svg xmlns="http://www.w3.org/2000/svg" width="510" height="128">
  <path fill="#fff" d="M52.652 35.867c-1.746-3.699-4.097-6.758-7.05-9.172-2.954-2.41-6.426-4.218-10.418-5.425-3.993-1.207-8.235-1.81-12.727-1.81H12.102v59.138h10.355c4.492 0 8.734-.578 12.727-1.746 3.992-1.16 7.464-2.97 10.418-5.426 2.953-2.453 5.304-5.531 7.05-9.235 1.746-3.699 2.621-8.09 2.621-13.16 0-5.074-.875-9.46-2.62-13.164ZM63.88 66.06c-2.41 4.953-5.613 9.109-9.606 12.48-3.992 3.363-8.57 5.926-13.722 7.676-5.16 1.742-10.524 2.613-16.098 2.613H0V9.23h24.453c5.574 0 10.938.872 16.098 2.618 5.152 1.746 9.73 4.304 13.722 7.675C58.266 22.891 61.47 27.051 63.88 32c2.414 4.95 3.621 10.625 3.621 17.031 0 6.407-1.207 12.078-3.621 17.028m84.87 13.726c-.871 2.035-2.164 3.828-3.867 5.363-1.703 1.54-3.848 2.766-6.426 3.68-2.578.914-5.574 1.375-8.98 1.375-3.329 0-6.387-.398-9.172-1.187-2.79-.79-5.012-1.766-6.676-2.93l-2.621-12.477c2.328 2 5.156 3.664 8.484 4.989 3.328 1.332 6.738 1.996 10.23 1.996 2.665 0 4.825-.64 6.489-1.934 1.664-1.285 2.496-2.887 2.496-4.8 0-1.997-.687-3.641-2.059-4.93-1.37-1.29-3.39-2.395-6.05-3.305-5.657-2.082-9.985-4.531-12.977-7.363-2.992-2.825-4.492-6.528-4.492-11.106 0-2.324.457-4.488 1.375-6.484a15.205 15.205 0 0 1 3.867-5.18c1.66-1.453 3.656-2.578 5.988-3.367 2.329-.79 4.907-1.188 7.735-1.188 3.246 0 6.238.438 8.984 1.313 2.742.871 4.656 1.64 5.738 2.309l-2.12 9.48c-1.25-.914-2.915-1.746-4.989-2.496-2.082-.75-4.66-1.121-7.738-1.121-2.41 0-4.324.582-5.739 1.746-1.414 1.164-2.12 2.703-2.12 4.613 0 1.832.663 3.29 1.995 4.367 1.329 1.082 3.41 2.125 6.239 3.122 5.656 2.082 10.023 4.558 13.101 7.421 3.075 2.871 4.618 6.758 4.618 11.672a16.09 16.09 0 0 1-1.313 6.422m53.418-34.625c-2.578-1.71-5.074-2.867-7.488-3.469-2.41-.593-4.989-.898-7.735-.898-2.578 0-5.074.465-7.484 1.383-2.414.922-4.535 2.242-6.363 3.957-1.832 1.715-3.309 3.789-4.43 6.215-1.121 2.425-1.684 5.191-1.684 8.285 0 3.015.563 5.758 1.684 8.226 1.121 2.47 2.617 4.54 4.492 6.211 1.871 1.676 4.031 2.973 6.488 3.895a21.269 21.269 0 0 0 7.547 1.379c2.66 0 5.239-.297 7.739-.899 2.492-.597 5.32-1.672 8.48-3.218l-2.371 11.105c-4.242 1.914-9.191 2.871-14.848 2.871a32.93 32.93 0 0 1-11.351-2 29.29 29.29 0 0 1-9.762-5.863c-2.844-2.574-5.137-5.676-6.863-9.293-1.727-3.617-2.59-7.754-2.59-12.414 0-4.656.863-8.817 2.59-12.477 1.726-3.66 4.02-6.777 6.863-9.355 2.848-2.582 6.102-4.535 9.762-5.867a33.021 33.021 0 0 1 11.351-1.996c3.746 0 7.09.375 10.047 1.125 2.95.746 5.633 1.789 8.047 3.117l-2.121 9.98M226.7 91.078c-.919-.254-2.02-.687-3.31-1.312-1.288-.621-2.515-1.54-3.68-2.746-1.163-1.204-2.163-2.743-2.991-4.618-.832-1.867-1.25-4.175-1.25-6.922V-.004h11.355V73.98c0 2.66.828 4.81 2.496 6.426 1.664 1.621 3.368 2.602 5.114 2.934l-7.735 7.738m61.203-38.605c-1.007-2.426-2.367-4.5-4.082-6.215a19.062 19.062 0 0 0-5.91-4.02c-2.215-.96-4.582-1.445-7.098-1.445-2.503 0-4.894.484-7.156 1.445a18.81 18.81 0 0 0-5.965 4.02c-1.718 1.715-3.078 3.789-4.082 6.215-1.007 2.43-1.507 5.148-1.507 8.16 0 2.93.5 5.61 1.507 8.035 1.004 2.434 2.364 4.5 4.082 6.219a18.734 18.734 0 0 0 5.965 4.015c2.262.965 4.653 1.442 7.156 1.442 2.516 0 4.883-.477 7.098-1.442a18.95 18.95 0 0 0 5.91-4.015c1.715-1.719 3.075-3.785 4.082-6.219 1-2.426 1.504-5.106 1.504-8.035 0-3.012-.504-5.73-1.504-8.16Zm10.551 20.199c-1.543 3.621-3.66 6.719-6.363 9.297-2.707 2.578-5.863 4.594-9.485 6.05-3.613 1.454-7.546 2.184-11.793 2.184-4.238 0-8.19-.73-11.847-2.183-3.664-1.457-6.844-3.473-9.543-6.051-2.707-2.578-4.828-5.676-6.367-9.297-1.54-3.621-2.305-7.629-2.305-12.04 0-4.405.766-8.421 2.305-12.038 1.539-3.617 3.66-6.739 6.367-9.36 2.7-2.617 5.879-4.656 9.543-6.113 3.656-1.453 7.61-2.184 11.848-2.184 4.246 0 8.18.731 11.792 2.184 3.622 1.457 6.778 3.496 9.485 6.113 2.703 2.621 4.82 5.743 6.363 9.36 1.535 3.617 2.309 7.633 2.309 12.039 0 4.41-.774 8.418-2.309 12.039m47.035 7.113c-.87 2.035-2.164 3.828-3.863 5.363-1.71 1.54-3.852 2.766-6.426 3.68-2.586.914-5.578 1.375-8.988 1.375-3.324 0-6.383-.398-9.172-1.187-2.785-.79-5.012-1.766-6.668-2.93l-2.625-12.477c2.332 2 5.16 3.664 8.488 4.989 3.325 1.332 6.73 1.996 10.227 1.996 2.664 0 4.824-.64 6.488-1.934 1.664-1.285 2.496-2.887 2.496-4.8 0-1.997-.683-3.641-2.062-4.93-1.367-1.29-3.387-2.395-6.047-3.305-5.656-2.082-9.984-4.531-12.973-7.363-2.996-2.825-4.496-6.528-4.496-11.106 0-2.324.457-4.488 1.375-6.484a15.255 15.255 0 0 1 3.867-5.18c1.664-1.453 3.657-2.578 5.989-3.367 2.328-.79 4.906-1.188 7.738-1.188 3.242 0 6.234.438 8.98 1.313 2.747.871 4.657 1.64 5.739 2.309l-2.125 9.48c-1.243-.914-2.907-1.746-4.985-2.496-2.082-.75-4.66-1.121-7.734-1.121-2.418 0-4.328.582-5.746 1.746-1.414 1.164-2.117 2.703-2.117 4.613 0 1.832.664 3.29 1.992 4.367 1.332 1.082 3.414 2.125 6.242 3.122 5.656 2.082 10.02 4.558 13.098 7.421 3.082 2.871 4.617 6.758 4.617 11.672 0 2.246-.434 4.387-1.309 6.422m51.965 8.957-.496-5.617c-2.164 2.445-4.516 4.238-7.05 5.371-2.54 1.137-6.012 1.707-10.423 1.707-3.078 0-5.925-.48-8.543-1.437-2.62-.954-4.886-2.305-6.8-4.051-1.914-1.75-3.41-3.887-4.489-6.426-1.086-2.539-1.625-5.387-1.625-8.547v-37.43h11.352v36.211c0 1.493.23 2.95.687 4.356.457 1.41 1.227 2.68 2.309 3.797 1.082 1.12 2.434 2.015 4.055 2.672 1.625.668 3.64.996 6.05.996 2.247 0 4.22-.328 5.93-.996 1.7-.657 3.117-1.551 4.238-2.672a11.494 11.494 0 0 0 2.559-3.797c.582-1.406.875-2.863.875-4.356v-36.21h11.356v56.43h-9.985m53.676-47.575c-2.246 0-4.578.336-6.984 1a16.926 16.926 0 0 0-6.493 3.43c-1.91 1.62-3.488 3.789-4.738 6.488-1.246 2.703-1.871 6.05-1.871 10.043v26.7h-11.356V32.312h10.735l.496 8.855c1.5-3.492 4.016-5.969 7.55-7.422 3.536-1.457 7.427-2.184 11.66-2.184l2.126 9.606h-1.125m46.086 7.364a12.763 12.763 0 0 0-2.504-3.867c-1.086-1.164-2.402-2.102-3.95-2.809-1.546-.707-3.234-1.062-5.074-1.062-1.753 0-3.53.336-5.328 1a17.636 17.636 0 0 0-4.945 2.809 18.796 18.796 0 0 0-3.887 4.242c-1.086 1.62-1.797 3.43-2.129 5.426h28.57c.083-.329.126-.833.126-1.497 0-1.414-.293-2.828-.88-4.242Zm11.863 8.547-6.367 6.383h-34.063c.086 1.75.563 3.605 1.438 5.566.875 1.961 2.14 3.793 3.809 5.5 1.664 1.711 3.722 3.114 6.18 4.192 2.456 1.086 5.35 1.625 8.679 1.625 3.66 0 6.926-.485 9.797-1.465 2.87-.977 5.64-2.438 8.308-4.399l-2.875 12.102c-1.996 1.086-4.324 1.961-6.988 2.621-2.664.664-5.91 1-9.738 1-3.996 0-7.828-.71-11.488-2.125-3.657-1.41-6.887-3.426-9.672-6.05-2.786-2.622-5.016-5.735-6.676-9.356-1.668-3.621-2.5-7.629-2.5-12.04 0-4.82.851-9.085 2.558-12.788 1.704-3.7 3.887-6.797 6.551-9.293a27.472 27.472 0 0 1 9.043-5.68c3.371-1.285 6.676-1.934 9.918-1.934 3.91 0 7.383.625 10.414 1.88 3.043 1.25 5.598 2.894 7.676 4.937 2.082 2.047 3.664 4.36 4.742 6.945 1.082 2.582 1.625 5.168 1.625 7.754 0 1.832-.125 3.379-.37 4.625"/>
  <path fill="#fff" d="M98.543 14.39a8.353 8.353 0 0 1-8.352 8.352c-4.613 0-8.355-3.738-8.355-8.351 0-4.61 3.742-8.352 8.355-8.352a8.355 8.355 0 0 1 8.352 8.352m-8.352 11.695c-7.382 0-13.367 5.984-13.367 13.363V58.66c0 4.2 1.98 7.903 5.012 10.356v13.03c0 4.61 3.742 8.352 8.355 8.352a8.355 8.355 0 0 0 8.352-8.351V69.016c3.031-2.454 5.012-6.157 5.012-10.356V39.45c0-7.38-5.985-13.364-13.364-13.364M322.09 115.54a9.558 9.558 0 0 0-2.125-1.583 16.301 16.301 0 0 0-2.688-1.168c-2.054-.695-3.097-1.64-3.097-2.8 0-.626.246-1.157.761-1.634.52-.488 1.239-.722 2.2-.722.808 0 1.574.133 2.27.387.714.261 1.253.52 1.597.761l.726.512.946-3.957-.317-.238c-.449-.336-1.105-.645-2.015-.934-1.856-.594-4.524-.586-6.313.098-.933.347-1.723.836-2.348 1.437a6.11 6.11 0 0 0-1.417 2.11 6.583 6.583 0 0 0-.465 2.418c0 1.648.554 3.09 1.652 4.277 1.063 1.148 2.629 2.07 4.668 2.734 1.207.399 2.086.883 2.617 1.442.492.527.735 1.172.735 1.972 0 .84-.29 1.493-.872 1.989-1.242 1.046-3.73.937-5.69.25-1.009-.352-2.02-.887-3.017-1.575l-1.246-.87 1.11 5.335.203.137c.617.422 1.465.793 2.515 1.102 1.051.308 2.211.468 3.446.468 1.289 0 2.441-.172 3.43-.508 1.007-.343 1.867-.84 2.558-1.468a6.149 6.149 0 0 0 1.59-2.285c.344-.86.52-1.832.52-2.883 0-.985-.172-1.887-.508-2.688a6.592 6.592 0 0 0-1.426-2.117m25.723 7.555c-1.739.43-4.165.59-6.317-.137a8.113 8.113 0 0 1-2.617-1.457c-.758-.633-1.371-1.445-1.832-2.418-.461-.973-.692-2.129-.692-3.437 0-1.332.239-2.5.707-3.465.47-.973 1.09-1.79 1.852-2.422a8.082 8.082 0 0 1 2.617-1.461 9.355 9.355 0 0 1 4.52-.367c.515.086 1 .195 1.457.324a9.719 9.719 0 0 1 2.14.895l.73.425.833-4.11-.371-.218c-.711-.418-1.602-.766-2.723-1.066-2.117-.57-5.3-.73-8.305.3a12.374 12.374 0 0 0-3.957 2.239c-1.18.988-2.156 2.238-2.906 3.715-.758 1.484-1.14 3.242-1.14 5.21 0 1.95.375 3.692 1.117 5.176.738 1.473 1.71 2.723 2.898 3.715a12.305 12.305 0 0 0 3.969 2.238c1.457.497 2.914.75 4.336.75 1.46 0 2.61-.09 3.508-.27a8.878 8.878 0 0 0 2.465-.858l.246-.133 1.035-4.801-1.195.715c-.625.375-1.426.687-2.375.918m27.515-7.484c0 1.245-.223 2.37-.66 3.343-.441.977-1.031 1.805-1.746 2.461a7.733 7.733 0 0 1-2.453 1.516c-1.824.699-3.68.683-5.457 0a7.459 7.459 0 0 1-2.426-1.512c-.707-.656-1.293-1.484-1.734-2.465-.442-.973-.664-2.098-.664-3.344s.222-2.363.664-3.324a7.595 7.595 0 0 1 1.734-2.45 7.525 7.525 0 0 1 2.426-1.51 7.647 7.647 0 0 1 2.75-.524c.894 0 1.808.176 2.707.523.906.348 1.73.856 2.453 1.516.715.656 1.305 1.48 1.746 2.441.437.965.66 2.082.66 3.328Zm.754-8.712a12.404 12.404 0 0 0-3.867-2.343 12.508 12.508 0 0 0-8.91 0 12.404 12.404 0 0 0-3.868 2.343 11.586 11.586 0 0 0-2.746 3.739c-.699 1.465-1.05 3.14-1.05 4.972 0 1.86.351 3.543 1.046 5.012.688 1.457 1.614 2.719 2.75 3.734a12.415 12.415 0 0 0 3.868 2.348 12.56 12.56 0 0 0 4.457.82 12.505 12.505 0 0 0 8.32-3.168c1.133-1.015 2.059-2.27 2.75-3.734.691-1.469 1.043-3.156 1.043-5.012 0-1.832-.352-3.507-1.043-4.972-.691-1.465-1.617-2.723-2.75-3.739m9.492 1.312h6.98v18.903h4.548v-18.902h6.984v-4.035h-18.512v4.035m40.641 14.863v4.035h-14.117v-22.941h4.547v18.906h9.57m50.008-5.488c0 .328.004.656.011.977l-.05-.06a83.816 83.816 0 0 0-1.22-1.39 92.079 92.079 0 0 1-1.179-1.34 46.805 46.805 0 0 0-1.066-1.183l-9.492-10.414h-3.149v22.937h4.547V113.02c0-.41-.004-.832-.012-1.262.446.52.91 1.062 1.395 1.625.89 1.027 1.742 1.984 2.562 2.87l10.344 11.337h1.856v-23.414h-4.547v13.41m17.879-9.41h2.222c1.16 0 2.27.16 3.301.469 1.008.304 1.895.765 2.637 1.37a6.542 6.542 0 0 1 1.758 2.294c.437.925.66 2.046.66 3.336 0 1.289-.223 2.414-.66 3.335a6.65 6.65 0 0 1-1.762 2.313c-.742.617-1.625 1.074-2.63 1.367a11.81 11.81 0 0 1-3.304.453h-2.222Zm14.074 2.554c-.696-1.421-1.63-2.636-2.778-3.605a12.147 12.147 0 0 0-3.941-2.203 14.264 14.264 0 0 0-4.586-.746h-7.281v22.937h7.281c1.578 0 3.121-.25 4.586-.746 1.477-.5 2.8-1.242 3.941-2.207a10.914 10.914 0 0 0 2.778-3.601c.695-1.43 1.05-3.082 1.05-4.914 0-1.832-.355-3.485-1.05-4.915m-68.953 6.926 1.789-4.472c.144-.29.265-.63.41-.989.144.36.265.7.387.989l1.812 4.472Zm3.238-13.777h-1.98l-8.633 20.523-.797 1.86-.336.847h4.543l2.344-5.609h7.64l2.344 5.61h4.668l-9.793-23.231"/>
</svg>
