<?xml version="1.0" encoding="UTF-8" standalone="no"?>
<!DOCTYPE svg PUBLIC "-//W3C//DTD SVG 1.1//EN" "http://www.w3.org/Graphics/SVG/1.1/DTD/svg11.dtd">
<svg width="100%" height="100%" viewBox="0 0 152 154" version="1.1" xmlns="http://www.w3.org/2000/svg" xmlns:xlink="http://www.w3.org/1999/xlink" xml:space="preserve" xmlns:serif="http://www.serif.com/" style="fill-rule:evenodd;clip-rule:evenodd;stroke-linejoin:round;stroke-miterlimit:2;">
    <path d="M75.588,0.82C33.844,0.82 0,34.664 0,76.408C0,118.158 33.844,152.003 75.588,152.003C117.338,152.003 151.183,118.159 151.183,76.408C151.183,34.664 117.339,0.82 75.588,0.82" style="fill:rgb(247,239,39);"/>
    <path d="M141.735,76.408C141.735,112.94 112.12,142.549 75.593,142.549C39.063,142.549 9.448,112.94 9.448,76.408C9.448,39.883 39.063,10.268 75.593,10.268C112.12,10.268 141.735,39.883 141.735,76.408" style="fill:rgb(238,42,34);"/>
    <path d="M56.53,44.779C68.323,46.383 57.37,62.445 55.527,67.959C52.355,66.039 50.755,63.085 50.817,60.236C50.959,54.039 58.729,50.648 56.531,44.779" style="fill:rgb(247,239,39);"/>
    <path d="M94.5,60.57C94.661,59.085 94.036,58.898 94.5,57.883C94.99,57.361 96.219,57.585 97.188,57.549C100.495,59.017 96.5,63.575 94.5,60.569M79.38,68.97C84.203,66.727 91.041,62.95 97.86,64.94C80.584,65.85 71.14,76.43 60.902,85.085C60.839,86.497 62.547,86.127 62.245,87.773C60.093,88.986 58.344,90.596 56.197,91.809C55.005,91.877 55.531,90.232 54.183,90.465C55.24,87.492 57.51,85.732 58.885,83.069C59.724,83.012 59.937,83.585 60.229,84.08C63.349,83.388 65.844,79.17 68.631,77.028C70.464,75.398 72.604,74.065 74.339,72.331C75.959,71.148 78.036,70.429 79.38,68.971M99.203,68.298C102.24,68.268 103.828,67.861 105.927,68.971C106.172,69.284 106.536,69.481 106.932,69.643C106.645,70.627 106.088,69.205 105.251,69.643C99.339,69.664 97.803,74.065 96.516,78.705C97.697,79.429 99.126,79.903 100.546,80.383C98.661,85.664 96.306,90.476 94.5,95.841C93.912,96.148 93.76,96.888 93.828,97.856L92.484,97.856C91.683,97.315 90.902,96.752 89.459,96.846C87.604,101.372 85.573,105.726 84.083,110.621C82.421,110.607 82.053,109.293 80.724,108.945C82.474,103.747 84.869,99.2 86.437,93.825C87.615,92.012 87.864,91.293 88.453,89.117C90.749,83.351 93.131,77.675 95.172,71.659C96.193,70.216 98.016,69.575 99.202,68.299" style="fill:rgb(35,31,32);"/>
    <path d="M28.307,105.247C29.584,102.533 31.714,97.627 29.651,95.503C33.109,95.741 34.584,97.965 35.364,100.877L35.364,106.591C34.99,106.888 35.031,107.941 35.364,108.945C35.016,111.533 35.849,112.94 37.047,113.981C36.979,114.257 36.707,114.315 36.707,114.653C36.005,115.315 34.479,114.913 33.683,114.653C31.041,112.367 28.093,110.388 28.307,105.247" style="fill:rgb(247,239,39);"/>
    <path d="M105.927,68.97C103.828,67.861 102.24,68.268 99.203,68.298C97.328,68.888 95.907,69.929 95.172,71.658C93.131,77.675 90.749,83.351 88.453,89.118C87.317,90.227 86.891,92.038 86.437,93.825C84.869,99.2 82.473,103.747 80.724,108.945C82.052,109.293 82.421,110.607 84.083,110.621C85.573,105.727 87.604,101.371 89.459,96.845C90.902,96.752 91.683,97.315 92.484,97.856C93.224,99.726 94.874,97.257 94.5,95.841C96.307,90.476 98.661,85.664 100.547,80.383C99.125,79.903 97.697,79.429 96.517,78.705C97.803,74.065 99.339,69.664 105.251,69.643C105.188,70.94 107.36,70.003 107.937,70.648C107.631,69.732 106.88,69.247 105.927,68.971L105.927,68.97ZM106.593,58.893C111.057,58.872 114.839,58.175 119.027,57.883C113,57.137 105.317,57.602 99.203,57.883C99.156,58.716 99.375,59.279 99.875,59.565C101.76,58.981 104.005,58.768 106.593,58.893ZM74.34,72.331C72.605,74.065 70.465,75.398 68.632,77.028C65.324,78.872 63.605,82.298 60.23,84.08C59.938,83.585 59.725,83.012 58.886,83.07C57.511,85.732 55.241,87.492 54.184,90.465C55.532,90.232 55.006,91.877 56.198,91.809C58.345,90.596 60.094,88.986 62.246,87.773C62.548,86.127 60.84,86.497 60.903,85.085C71.14,76.43 80.584,65.851 97.86,64.94C91.041,62.95 84.203,66.727 79.38,68.97C77.451,69.661 75.72,70.815 74.339,72.33L74.34,72.331ZM93.157,60.236C91.97,58.591 93.829,57.112 94.501,56.206C103.287,57.481 112.881,55.757 122.725,56.877L122.725,62.924C120.886,63.883 118.011,63.809 116.006,64.607C116.918,69.069 117.965,73.398 118.694,78.039C117.616,78.315 115.714,79.517 114.662,78.705C113.725,77.403 112.204,74.986 111.304,72.669C110.75,71.429 110.152,70.232 109.287,69.304C108.73,68.856 108.127,68.451 107.938,67.627C106.829,68.653 108.856,69.383 108.948,70.315C109.418,70.741 109.094,71.96 109.96,71.997C111.782,73.857 111.918,78.637 110.632,81.055C109.386,82.951 108.48,85.179 107.938,87.773C104.637,97.241 101.006,106.372 97.189,115.325C93.099,115.798 89.876,114.492 87.782,113.981C86.282,113.127 85.132,111.929 82.742,111.965C81.184,110.612 79.266,109.617 77.698,108.273C80.018,102.856 82.158,97.273 84.422,91.809C84.87,91.585 85.048,91.091 85.094,90.465C88.324,82.716 89.98,73.414 95.844,68.298C86.184,67.71 79.417,72.929 73.668,77.367C72.861,77.503 72.938,76.752 71.991,77.028C68.918,79.664 66.236,82.695 63.251,85.424C63.251,86.544 64.345,86.569 64.261,87.774C61.589,89.919 58.438,91.58 55.861,93.825C54.804,92.305 53.225,91.305 52.501,89.455C53.928,85.955 56.511,83.612 58.548,80.721C59.85,80.429 59.099,82.184 60.564,81.727C63.548,79.56 65.449,76.315 68.632,74.345C69.365,73.627 70.818,73.627 70.98,72.331C76.84,67.367 84.736,62.888 93.83,62.252L94.501,62.252C94.553,61.298 93.491,61.465 93.491,60.569C93.974,60.44 94.058,60.169 94.501,60.569C96.501,63.575 100.496,59.017 97.189,57.549C94.079,55.7 94.261,59.779 93.157,60.236" style="fill:white;"/>
    <path d="M108.948,70.315C108.855,69.383 106.828,68.653 107.938,67.627C108.125,68.451 108.729,68.857 109.286,69.304C108.995,70.377 109.812,70.345 109.959,70.986C109.479,70.908 109.391,70.435 108.948,70.315" style="fill:rgb(35,31,32);"/>
    <path d="M82.402,87.773C81.292,87.153 82.005,86.232 82.74,85.757C84.76,85.2 86.098,82.179 85.093,79.717C84.636,77.377 82.5,76.71 83.079,73.341C81.177,73.607 79.573,75.252 79.38,77.367C79.104,80.398 82.448,83.175 81.396,85.757C79.995,84.919 79.426,83.247 78.036,82.398C77.323,80.648 75.806,79.7 74.677,78.372C74.21,78.2 73.841,77.833 73.667,77.367C79.417,72.929 86.183,67.71 95.844,68.298C89.979,73.414 88.323,82.716 85.094,90.465C84.661,90.481 84.625,90.893 84.083,90.798C83.521,89.788 83.343,88.403 82.402,87.773" style="fill:rgb(238,42,34);"/>
    <path d="M40.068,103.232C38.432,102.169 36.74,101.56 36.036,100.205C32.079,92.621 42.38,85.455 37.714,78.705C36.921,78.7 36.729,79.284 35.697,79.044C37.849,75.747 42.5,79.549 43.765,81.394C46.973,78.112 49.568,74.21 49.812,67.96C52.682,69.35 52.495,73.793 55.188,75.35C58.12,68.435 61.645,62.102 68.964,59.565C67.563,62.752 65.917,67.935 67.959,71.659C67.896,72.841 69.093,72.763 69.303,73.675C68.921,73.747 68.776,74.049 68.631,74.345C65.448,76.315 63.547,79.56 60.563,81.727C59.098,82.184 59.849,80.429 58.547,80.721C56.51,83.612 53.927,85.955 52.5,89.455C53.224,91.305 54.803,92.305 55.86,93.825C58.437,91.58 61.588,89.919 64.26,87.773C64.344,86.569 63.25,86.543 63.25,85.424C66.235,82.694 68.917,79.664 71.99,77.028C72.937,76.752 72.86,77.503 73.667,77.367C73.841,77.833 74.21,78.2 74.677,78.372C75.479,80.033 76.64,81.336 78.036,82.398C79.426,83.247 79.995,84.918 81.396,85.758C82.448,83.175 79.104,80.398 79.38,77.367C79.573,75.252 81.177,73.607 83.079,73.341C82.5,76.711 84.636,77.377 85.093,79.716C85.536,82.955 83.896,84.117 82.74,85.757C82.005,86.232 81.292,87.153 82.402,87.773C82.891,89.309 83.557,90.653 84.422,91.809C82.156,97.273 80.016,102.856 77.697,108.273C79.265,109.617 81.183,110.612 82.74,111.965C81.15,114.856 78.797,116.986 76.021,118.684C73.381,120.591 67.735,120.252 64.593,119.023C66.443,115.705 69.697,113.569 69.973,108.607C70.188,104.721 69.172,100.539 70.979,96.845L71.317,96.845C71.271,96.241 71.729,96.137 71.651,95.503C70.197,95.955 68.573,96.232 67.62,97.183C62.098,99.841 58.312,106.648 60.563,114.993C57.339,114.183 56.823,110.669 54.855,108.607C54.24,106.981 54.421,104.56 53.51,103.232C53.041,104.445 52.03,105.112 51.828,106.591C51.432,106.648 51.547,107.205 51.49,107.601L51.156,107.601C50.937,108.955 50.369,111.727 51.156,112.976C51.057,115.539 52.355,116.7 52.839,118.684C46.917,119.216 43.479,114.388 41.412,109.951C40.448,107.929 41.162,104.263 40.068,103.231" style="fill:rgb(247,239,39);"/>
    <path d="M106.593,58.893C111.057,58.872 114.839,58.175 119.027,57.883C113,57.137 105.317,57.602 99.203,57.883C99.156,58.716 99.375,59.279 99.875,59.565C101.76,58.981 104.005,58.768 106.593,58.893" style="fill:rgb(35,31,32);"/>
    <g transform="matrix(0.738892,0,0,0.765697,63.7692,13.6073)">
        <path d="M15.914,0.043C14.878,0.047 14.043,0.883 14.039,1.918C14.039,2.949 14.882,3.793 15.914,3.793C16.944,3.793 17.789,2.949 17.789,1.918C17.789,0.888 16.944,0.043 15.914,0.043ZM15.914,0.793C16.539,0.793 17.039,1.293 17.039,1.918C17.039,2.543 16.539,3.043 15.914,3.043C15.612,3.043 15.328,2.927 15.117,2.715C14.905,2.504 14.789,2.22 14.789,1.918C14.789,1.293 15.289,0.793 15.914,0.793Z" style="fill-rule:nonzero;"/>
        <path d="M15.914,2.293C16.328,2.293 16.664,2.629 16.664,3.043L16.664,4.543C16.664,4.957 16.328,5.293 15.914,5.293C15.5,5.293 15.164,4.957 15.164,4.543L15.164,3.043C15.164,2.629 15.5,2.293 15.914,2.293Z" style="fill-rule:nonzero;"/>
        <path d="M15.914,12.493C11.617,12.493 8.117,15.993 8.117,20.29C8.117,24.59 11.617,28.086 15.914,28.086C20.21,28.086 23.71,24.59 23.71,20.29C23.71,15.993 20.21,12.493 15.914,12.493ZM15.914,13.691C17.664,13.691 19.344,14.388 20.582,15.622C21.819,16.859 22.512,18.54 22.512,20.29C22.512,22.04 21.819,23.72 20.582,24.957C19.344,26.195 17.664,26.891 15.914,26.888C14.164,26.891 12.484,26.195 11.246,24.957C10.007,23.72 9.316,22.04 9.316,20.29C9.316,18.54 10.007,16.859 11.246,15.622C12.484,14.383 14.164,13.691 15.914,13.691Z" style="fill-rule:nonzero;"/>
        <path d="M15.914,4.629C7.273,4.629 0.25,11.649 0.25,20.293C0.25,28.938 7.273,35.958 15.914,35.958C24.559,35.958 31.578,28.938 31.578,20.293C31.578,11.649 24.559,4.629 15.914,4.629ZM15.914,5.957C23.839,5.957 30.25,12.368 30.25,20.293C30.25,28.22 23.839,34.629 15.914,34.629C7.987,34.629 1.578,28.22 1.578,20.293C1.578,12.368 7.987,5.957 15.914,5.957Z" style="fill-rule:nonzero;"/>
        <path d="M24.605,11.599L18.246,22.199L7.648,28.559L14.007,17.957L24.605,11.599Z" style="fill:rgb(0,182,227);fill-rule:nonzero;"/>
        <path d="M18.246,22.199L7.648,28.559L14.007,17.957L18.246,22.199Z" style="fill:rgb(255,69,0);fill-rule:nonzero;"/>
        <path d="M17.109,21.066C16.523,21.652 15.573,21.652 14.987,21.066C14.402,20.481 14.402,19.531 14.987,18.945C15.573,18.359 16.523,18.359 17.109,18.945C17.694,19.531 17.694,20.481 17.109,21.066Z" style="fill:white;fill-rule:nonzero;"/>
        <path d="M14.785,6.793C14.578,6.797 14.414,6.965 14.414,7.172L14.414,10.165C14.414,10.372 14.582,10.54 14.789,10.54C14.996,10.54 15.164,10.372 15.164,10.165L15.164,7.172C15.168,7.07 15.125,6.973 15.055,6.902C14.984,6.832 14.887,6.793 14.785,6.793ZM17.035,6.793C16.828,6.797 16.664,6.965 16.664,7.172L16.664,10.165C16.664,10.372 16.832,10.54 17.039,10.54C17.246,10.54 17.414,10.372 17.414,10.165L17.414,7.172C17.418,7.07 17.375,6.973 17.305,6.902C17.234,6.832 17.137,6.793 17.035,6.793Z"/>
        <path d="M14.766,6.797C14.625,6.806 14.503,6.888 14.444,7.016C14.387,7.141 14.405,7.29 14.487,7.398L16.737,10.388C16.862,10.556 17.098,10.586 17.266,10.461C17.43,10.336 17.464,10.102 17.339,9.938L15.089,6.945C15.016,6.845 14.891,6.786 14.766,6.797ZM15.617,30.043C15.41,30.043 15.242,30.211 15.242,30.418C15.242,30.625 15.41,30.793 15.617,30.793L17.03,30.793C17.237,30.793 17.405,30.625 17.405,30.418C17.405,30.211 17.237,30.043 17.03,30.043L15.617,30.043ZM14.796,33.043C14.589,33.043 14.421,33.211 14.421,33.418C14.421,33.625 14.589,33.793 14.796,33.793L16.285,33.793C16.492,33.793 16.66,33.625 16.66,33.418C16.66,33.211 16.492,33.043 16.285,33.043L14.796,33.043ZM15.546,31.543C15.339,31.543 15.171,31.711 15.171,31.918C15.171,32.125 15.339,32.293 15.546,32.293L16.289,32.293C16.496,32.293 16.664,32.125 16.664,31.918C16.664,31.711 16.496,31.543 16.289,31.543L15.546,31.543Z"/>
        <path d="M16.273,31.543C16.066,31.543 15.898,31.711 15.898,31.918C15.898,32.125 16.066,32.293 16.273,32.293C16.5,32.293 16.664,32.458 16.664,32.668C16.664,32.879 16.5,33.043 16.273,33.043C16.066,33.043 15.898,33.211 15.898,33.418C15.898,33.625 16.066,33.793 16.273,33.793C16.894,33.793 17.414,33.29 17.414,32.668C17.414,32.047 16.894,31.543 16.273,31.543Z" style="fill-rule:nonzero;"/>
        <path d="M15.559,30.043C14.941,30.043 14.418,30.547 14.418,31.168C14.418,31.79 14.941,32.293 15.559,32.293C15.769,32.293 15.934,32.125 15.934,31.918C15.934,31.711 15.769,31.543 15.559,31.543C15.335,31.543 15.168,31.379 15.168,31.168C15.168,30.957 15.335,30.793 15.559,30.793C15.769,30.793 15.934,30.625 15.934,30.418C15.934,30.211 15.769,30.043 15.559,30.043Z" style="fill-rule:nonzero;"/>
        <path d="M2.785,18.047C2.578,18.047 2.414,18.22 2.414,18.427L2.414,21.418C2.414,21.625 2.582,21.793 2.789,21.793C2.996,21.793 3.164,21.625 3.164,21.418L3.164,18.427C3.168,18.324 3.125,18.227 3.055,18.152C2.984,18.082 2.887,18.043 2.785,18.047ZM5.03,18.047C4.828,18.047 4.66,18.22 4.664,18.427L4.664,21.418C4.664,21.625 4.832,21.793 5.039,21.793C5.246,21.793 5.414,21.625 5.414,21.418L5.414,18.427C5.414,18.324 5.375,18.227 5.305,18.152C5.23,18.082 5.132,18.043 5.03,18.047Z"/>
        <path d="M3.921,19.845C3.769,19.84 3.628,19.931 3.566,20.066C3.503,20.207 3.535,20.372 3.641,20.481L4.766,21.677C4.905,21.824 5.144,21.832 5.296,21.691C5.448,21.552 5.453,21.313 5.312,21.161L4.187,19.965C4.117,19.891 4.023,19.848 3.921,19.845Z"/>
        <path d="M3.894,19.845C3.796,19.852 3.707,19.895 3.641,19.965L2.519,21.161C2.375,21.313 2.382,21.552 2.535,21.691C2.687,21.832 2.921,21.824 3.066,21.677L4.187,20.481C4.296,20.372 4.323,20.204 4.262,20.063C4.194,19.922 4.051,19.836 3.894,19.845ZM26.793,18.043C26.585,18.043 26.418,18.211 26.418,18.418C26.418,18.625 26.585,18.793 26.793,18.793L29.035,18.793C29.242,18.793 29.41,18.625 29.41,18.418C29.41,18.211 29.242,18.043 29.035,18.043L26.793,18.043Z"/>
        <path d="M26.777,18.043C26.569,18.047 26.405,18.215 26.41,18.422L26.41,21.418C26.41,21.625 26.578,21.793 26.785,21.793C26.992,21.793 27.16,21.625 27.16,21.418L27.16,18.422C27.16,18.32 27.121,18.223 27.051,18.152C26.977,18.082 26.878,18.043 26.777,18.043Z"/>
        <path d="M26.793,19.543C26.585,19.543 26.418,19.711 26.418,19.918C26.418,20.125 26.585,20.293 26.793,20.293L28.434,20.293C28.641,20.293 28.809,20.125 28.809,19.918C28.809,19.711 28.641,19.543 28.434,19.543L26.793,19.543ZM26.793,21.043C26.585,21.043 26.418,21.211 26.418,21.418C26.418,21.625 26.585,21.793 26.793,21.793L29.035,21.793C29.242,21.793 29.41,21.625 29.41,21.418C29.41,21.211 29.242,21.043 29.035,21.043L26.793,21.043Z"/>
    </g>
</svg>
