<?xml version="1.0" encoding="UTF-8" standalone="no"?>
<!DOCTYPE svg PUBLIC "-//W3C//DTD SVG 1.1//EN" "http://www.w3.org/Graphics/SVG/1.1/DTD/svg11.dtd">
<svg width="100%" height="100%" viewBox="0 0 152 154" version="1.1" xmlns="http://www.w3.org/2000/svg" xmlns:xlink="http://www.w3.org/1999/xlink" xml:space="preserve" xmlns:serif="http://www.serif.com/" style="fill-rule:evenodd;clip-rule:evenodd;stroke-linejoin:round;stroke-miterlimit:2;">
    <path d="M75.588,0.82C33.844,0.82 0,34.664 0,76.408C0,118.158 33.844,152.003 75.588,152.003C117.338,152.003 151.183,118.159 151.183,76.408C151.183,34.664 117.339,0.82 75.588,0.82" style="fill:rgb(247,239,39);"/>
    <path d="M141.735,76.408C141.735,112.94 112.12,142.549 75.593,142.549C39.063,142.549 9.448,112.94 9.448,76.408C9.448,39.883 39.063,10.268 75.593,10.268C112.12,10.268 141.735,39.883 141.735,76.408" style="fill:rgb(238,42,34);"/>
    <path d="M94.907,85.137C94.907,103.288 81.598,118.003 65.172,118.003C48.749,118.003 35.432,103.288 35.432,85.137C35.432,66.981 48.749,52.268 65.172,52.268C81.598,52.268 94.907,66.981 94.907,85.138" style="fill:white;"/>
    <path d="M67.083,108.148C68.593,107.585 70.188,107.107 72.208,107.055C72.24,104.825 70.64,104.227 70.375,102.293C68.844,102.273 66.547,107.351 67.083,108.148ZM76.235,54.71C79.235,57.403 86.193,57.293 91.24,56.903C88.781,55.773 83.255,55.669 83.188,51.049C87.312,52.914 90.438,53.029 96,52.512C96.74,51.388 93.303,51.315 93.803,49.222C102,52.955 110.328,44.642 113.937,52.512C115.907,52.049 116.729,50.424 119.057,50.315C118.797,51.492 118.177,53.908 117.229,55.44C120.807,60.039 121.276,67.741 122.719,74.476C120.579,75.752 117.849,76.44 114.667,76.669C115.161,71.055 112.245,68.845 109.177,66.788C105.505,71.918 109.188,80.841 105.88,86.918C107.364,87.414 110,85.918 111.735,85.455C112.588,86.929 114.391,87.44 115.395,88.752C115.959,91.112 114.636,93.533 114.667,96.069C114.677,96.94 115.593,97.612 115.396,98.632C114.844,101.569 110.197,108.159 108.812,108.148C106.437,108.132 108.115,103.21 106.615,100.465C107.902,99.851 108.765,99.643 111.005,99.361C110.797,95.096 113.479,91.441 111.735,88.752C108.781,89.94 106.563,91.872 104.052,93.508C104.197,95.736 103.662,99.21 104.416,102.658C104.948,105.08 107.266,105.569 105.88,108.148C99.402,111.309 95.375,120.236 86.12,115.471C86.708,113.137 89.172,112.675 89.781,110.345C94.027,112.356 102.369,109.798 102.219,105.221C102.099,101.331 96.432,99.523 94.536,96.435C93.5,96.132 93.584,96.955 92.708,96.805C91.729,96.805 87.312,96.981 76.598,94.607L76.598,99.003C76.812,101.383 75.907,102.383 76.235,103.757C75.667,104.288 75.912,105.632 75.869,106.684L78.797,106.684C81.255,106.434 83.645,108.747 86.12,108.148C86.339,109.148 88.036,108.675 88.683,109.247C87.803,111.298 85.459,111.883 84.651,114.007C82.598,114.357 81.604,113.637 80.625,112.907C80.083,111.987 79.208,111.398 78.063,111.075C76.328,111.184 78.317,112.7 78.797,112.908C78.959,113.232 79.12,113.565 79.531,113.643C83.041,118.669 90.459,119.793 91.969,126.815C89.183,127.621 85.027,126.637 81.724,126.815C83.349,122.065 78.349,117.263 76.234,115.107L76.234,114.736C74.828,113.517 71.536,112.861 72.574,110.346C71.421,110.539 70.531,110.986 69.645,111.446C67.584,111.826 65.749,112.429 64.151,113.279L63.421,113.279C61.339,113.529 61.041,111.992 61.224,109.981C62.719,107.569 63.828,104.773 64.151,101.195C64.276,99.612 63.651,98.773 62.688,98.268C60.781,96.883 59.598,94.773 57.932,93.143C56.631,90.841 55.677,88.981 55.735,86.555C54.01,87.148 54.875,90.325 54.271,92.044C53.265,94.945 47.869,94.574 45.484,93.143C45.484,93.017 43.083,91.565 41.823,89.851C41.453,89.612 41.448,89.008 40.729,89.117C40.729,89.607 41.875,92.971 37.069,94.607C31.057,95.872 22.224,94.643 19.495,90.58C22.948,92.727 29.541,94.914 33.776,92.044C29.495,93.137 22.021,90.569 22.057,85.454C24.036,86.7 26.697,89.049 29.38,88.383C23.13,86.221 20.557,75.528 27.552,72.279C24.536,76.393 26.5,83.632 30.844,84.721C29.312,83.455 26.057,75.236 30.479,74.112C28.844,77.752 29.885,82.148 33.041,81.793C36.241,81.44 34.896,77.075 37.068,75.575C41.661,71.195 48.495,75.56 50.609,79.965C50.844,80.523 50.979,80.856 51.344,81.429C51.521,83.08 52.828,83.602 54.636,83.627C54.683,82.971 54.459,81.393 55.369,79.602C63.005,64.575 87.375,87.398 91.609,70.451C91.636,70.336 92.412,67.935 91.609,67.888C91.448,68.429 90.792,68.678 90.505,68.618C78.479,67.945 72.969,64.227 74.771,62.763L75.136,62.763C75.136,63.127 83.364,66.336 87.579,63.861C86.64,64.331 77.765,63.919 74.584,60.539C75.057,60.336 75.016,60.2 75.5,59.836C78.573,61.893 85.104,61.648 84.286,60.566C80.984,59.596 77.546,58.757 76.235,55.809L76.235,54.71" style="fill:rgb(35,31,32);"/>
    <g transform="matrix(0.738892,0,0,0.765697,63.7692,15.5017)">
        <path d="M15.914,0.043C14.878,0.047 14.043,0.883 14.039,1.918C14.039,2.949 14.882,3.793 15.914,3.793C16.944,3.793 17.789,2.949 17.789,1.918C17.789,0.888 16.944,0.043 15.914,0.043ZM15.914,0.793C16.539,0.793 17.039,1.293 17.039,1.918C17.039,2.543 16.539,3.043 15.914,3.043C15.612,3.043 15.328,2.927 15.117,2.715C14.905,2.504 14.789,2.22 14.789,1.918C14.789,1.293 15.289,0.793 15.914,0.793Z" style="fill-rule:nonzero;"/>
        <path d="M15.914,2.293C16.328,2.293 16.664,2.629 16.664,3.043L16.664,4.543C16.664,4.957 16.328,5.293 15.914,5.293C15.5,5.293 15.164,4.957 15.164,4.543L15.164,3.043C15.164,2.629 15.5,2.293 15.914,2.293Z" style="fill-rule:nonzero;"/>
        <path d="M15.914,12.493C11.617,12.493 8.117,15.993 8.117,20.29C8.117,24.59 11.617,28.086 15.914,28.086C20.21,28.086 23.71,24.59 23.71,20.29C23.71,15.993 20.21,12.493 15.914,12.493ZM15.914,13.691C17.664,13.691 19.344,14.388 20.582,15.622C21.819,16.859 22.512,18.54 22.512,20.29C22.512,22.04 21.819,23.72 20.582,24.957C19.344,26.195 17.664,26.891 15.914,26.888C14.164,26.891 12.484,26.195 11.246,24.957C10.007,23.72 9.316,22.04 9.316,20.29C9.316,18.54 10.007,16.859 11.246,15.622C12.484,14.383 14.164,13.691 15.914,13.691Z" style="fill-rule:nonzero;"/>
        <path d="M15.914,4.629C7.273,4.629 0.25,11.649 0.25,20.293C0.25,28.938 7.273,35.958 15.914,35.958C24.559,35.958 31.578,28.938 31.578,20.293C31.578,11.649 24.559,4.629 15.914,4.629ZM15.914,5.957C23.839,5.957 30.25,12.368 30.25,20.293C30.25,28.22 23.839,34.629 15.914,34.629C7.987,34.629 1.578,28.22 1.578,20.293C1.578,12.368 7.987,5.957 15.914,5.957Z" style="fill-rule:nonzero;"/>
        <path d="M24.605,11.599L18.246,22.199L7.648,28.559L14.007,17.957L24.605,11.599Z" style="fill:rgb(0,182,227);fill-rule:nonzero;"/>
        <path d="M18.246,22.199L7.648,28.559L14.007,17.957L18.246,22.199Z" style="fill:rgb(255,69,0);fill-rule:nonzero;"/>
        <path d="M17.109,21.066C16.523,21.652 15.573,21.652 14.987,21.066C14.402,20.481 14.402,19.531 14.987,18.945C15.573,18.359 16.523,18.359 17.109,18.945C17.694,19.531 17.694,20.481 17.109,21.066Z" style="fill:white;fill-rule:nonzero;"/>
        <path d="M14.785,6.793C14.578,6.797 14.414,6.965 14.414,7.172L14.414,10.165C14.414,10.372 14.582,10.54 14.789,10.54C14.996,10.54 15.164,10.372 15.164,10.165L15.164,7.172C15.168,7.07 15.125,6.973 15.055,6.902C14.984,6.832 14.887,6.793 14.785,6.793ZM17.035,6.793C16.828,6.797 16.664,6.965 16.664,7.172L16.664,10.165C16.664,10.372 16.832,10.54 17.039,10.54C17.246,10.54 17.414,10.372 17.414,10.165L17.414,7.172C17.418,7.07 17.375,6.973 17.305,6.902C17.234,6.832 17.137,6.793 17.035,6.793Z"/>
        <path d="M14.766,6.797C14.625,6.806 14.503,6.888 14.444,7.016C14.387,7.141 14.405,7.29 14.487,7.398L16.737,10.388C16.862,10.556 17.098,10.586 17.266,10.461C17.43,10.336 17.464,10.102 17.339,9.938L15.089,6.945C15.016,6.845 14.891,6.786 14.766,6.797ZM15.617,30.043C15.41,30.043 15.242,30.211 15.242,30.418C15.242,30.625 15.41,30.793 15.617,30.793L17.03,30.793C17.237,30.793 17.405,30.625 17.405,30.418C17.405,30.211 17.237,30.043 17.03,30.043L15.617,30.043ZM14.796,33.043C14.589,33.043 14.421,33.211 14.421,33.418C14.421,33.625 14.589,33.793 14.796,33.793L16.285,33.793C16.492,33.793 16.66,33.625 16.66,33.418C16.66,33.211 16.492,33.043 16.285,33.043L14.796,33.043ZM15.546,31.543C15.339,31.543 15.171,31.711 15.171,31.918C15.171,32.125 15.339,32.293 15.546,32.293L16.289,32.293C16.496,32.293 16.664,32.125 16.664,31.918C16.664,31.711 16.496,31.543 16.289,31.543L15.546,31.543Z"/>
        <path d="M16.273,31.543C16.066,31.543 15.898,31.711 15.898,31.918C15.898,32.125 16.066,32.293 16.273,32.293C16.5,32.293 16.664,32.458 16.664,32.668C16.664,32.879 16.5,33.043 16.273,33.043C16.066,33.043 15.898,33.211 15.898,33.418C15.898,33.625 16.066,33.793 16.273,33.793C16.894,33.793 17.414,33.29 17.414,32.668C17.414,32.047 16.894,31.543 16.273,31.543Z" style="fill-rule:nonzero;"/>
        <path d="M15.559,30.043C14.941,30.043 14.418,30.547 14.418,31.168C14.418,31.79 14.941,32.293 15.559,32.293C15.769,32.293 15.934,32.125 15.934,31.918C15.934,31.711 15.769,31.543 15.559,31.543C15.335,31.543 15.168,31.379 15.168,31.168C15.168,30.957 15.335,30.793 15.559,30.793C15.769,30.793 15.934,30.625 15.934,30.418C15.934,30.211 15.769,30.043 15.559,30.043Z" style="fill-rule:nonzero;"/>
        <path d="M2.785,18.047C2.578,18.047 2.414,18.22 2.414,18.427L2.414,21.418C2.414,21.625 2.582,21.793 2.789,21.793C2.996,21.793 3.164,21.625 3.164,21.418L3.164,18.427C3.168,18.324 3.125,18.227 3.055,18.152C2.984,18.082 2.887,18.043 2.785,18.047ZM5.03,18.047C4.828,18.047 4.66,18.22 4.664,18.427L4.664,21.418C4.664,21.625 4.832,21.793 5.039,21.793C5.246,21.793 5.414,21.625 5.414,21.418L5.414,18.427C5.414,18.324 5.375,18.227 5.305,18.152C5.23,18.082 5.132,18.043 5.03,18.047Z"/>
        <path d="M3.921,19.845C3.769,19.84 3.628,19.931 3.566,20.066C3.503,20.207 3.535,20.372 3.641,20.481L4.766,21.677C4.905,21.824 5.144,21.832 5.296,21.691C5.448,21.552 5.453,21.313 5.312,21.161L4.187,19.965C4.117,19.891 4.023,19.848 3.921,19.845Z"/>
        <path d="M3.894,19.845C3.796,19.852 3.707,19.895 3.641,19.965L2.519,21.161C2.375,21.313 2.382,21.552 2.535,21.691C2.687,21.832 2.921,21.824 3.066,21.677L4.187,20.481C4.296,20.372 4.323,20.204 4.262,20.063C4.194,19.922 4.051,19.836 3.894,19.845ZM26.793,18.043C26.585,18.043 26.418,18.211 26.418,18.418C26.418,18.625 26.585,18.793 26.793,18.793L29.035,18.793C29.242,18.793 29.41,18.625 29.41,18.418C29.41,18.211 29.242,18.043 29.035,18.043L26.793,18.043Z"/>
        <path d="M26.777,18.043C26.569,18.047 26.405,18.215 26.41,18.422L26.41,21.418C26.41,21.625 26.578,21.793 26.785,21.793C26.992,21.793 27.16,21.625 27.16,21.418L27.16,18.422C27.16,18.32 27.121,18.223 27.051,18.152C26.977,18.082 26.878,18.043 26.777,18.043Z"/>
        <path d="M26.793,19.543C26.585,19.543 26.418,19.711 26.418,19.918C26.418,20.125 26.585,20.293 26.793,20.293L28.434,20.293C28.641,20.293 28.809,20.125 28.809,19.918C28.809,19.711 28.641,19.543 28.434,19.543L26.793,19.543ZM26.793,21.043C26.585,21.043 26.418,21.211 26.418,21.418C26.418,21.625 26.585,21.793 26.793,21.793L29.035,21.793C29.242,21.793 29.41,21.625 29.41,21.418C29.41,21.211 29.242,21.043 29.035,21.043L26.793,21.043Z"/>
    </g>
</svg>
