<?xml version="1.0" encoding="UTF-8" standalone="no"?>
<!DOCTYPE svg PUBLIC "-//W3C//DTD SVG 1.1//EN" "http://www.w3.org/Graphics/SVG/1.1/DTD/svg11.dtd">
<svg width="100%" height="100%" viewBox="0 0 152 154" version="1.1" xmlns="http://www.w3.org/2000/svg" xmlns:xlink="http://www.w3.org/1999/xlink" xml:space="preserve" xmlns:serif="http://www.serif.com/" style="fill-rule:evenodd;clip-rule:evenodd;stroke-linejoin:round;stroke-miterlimit:2;">
    <path d="M75.588,0.82C33.844,0.82 0,34.664 0,76.408C0,118.158 33.844,152.003 75.588,152.003C117.338,152.003 151.183,118.159 151.183,76.408C151.183,34.664 117.339,0.82 75.588,0.82" style="fill:rgb(247,239,39);"/>
    <path d="M141.735,76.408C141.735,112.94 112.12,142.549 75.593,142.549C39.063,142.549 9.448,112.94 9.448,76.408C9.448,39.883 39.063,10.268 75.593,10.268C112.12,10.268 141.735,39.883 141.735,76.408" style="fill:rgb(238,42,34);"/>
    <path d="M40.448,62.06C47.74,62.268 51.798,64.924 55.115,68.345C51.412,68.403 44.771,64.383 40.797,67.648C39.391,65.309 40.312,64.727 40.447,62.06M114.484,62.408C120.016,61.721 123.5,65.288 127.057,66.602C128.844,67.257 130.869,66.555 131.598,68.345C126.203,70.965 121.021,64.607 114.136,68.695C114.473,65.935 114.246,64.736 114.484,62.408M97.027,51.935C93.536,57.148 81.26,50.414 76.771,55.424C75.729,53.894 77.303,50.971 76.771,47.394C85.671,46.274 88.803,52.674 97.027,51.934" style="fill:rgb(35,31,32);"/>
    <path d="M58.792,131.992C58.792,131.992 69.082,135.304 94.516,132.7L86.355,114.367L86.588,112.241L110.01,100.883L105.161,84.679L74.052,83.023L42.822,83.377L40.697,104.315L63.172,112.356L65.182,114.366L65.593,115.492L57.849,129.393L58.792,131.993" style="fill:white;"/>
    <path d="M84.803,95.236C84.307,94.653 81.333,94.544 81.307,95.586L81.307,97.336L85.151,97.336C85.401,96.268 84.792,96.06 84.803,95.236ZM76.421,94.893C75.891,95.898 76.431,95.981 76.073,97.336C77.343,97.446 78.343,97.279 79.213,96.986L79.213,94.893L76.421,94.893ZM71.183,94.539L71.183,96.986C72.339,97.414 72.276,96.966 73.973,97.336C74.459,96.883 74.323,95.815 74.323,94.893C72.443,94.836 72.86,94.653 71.183,94.539ZM69.083,96.637C69.24,94.741 68.891,94.393 67.339,94.893C66.631,95.227 66.588,96.232 66.64,97.336C67.63,97.279 69.036,97.632 69.083,96.637ZM69.437,93.315C69.437,93.315 69.131,91.992 69.083,91.398C68.104,91.345 68.079,92.252 68.036,93.143C68.479,93.21 69.437,93.315 69.437,93.315ZM81.307,90.7C81.265,91.659 81.62,91.872 81.307,93.143C81.74,93.315 82.688,93.195 83.755,93.143C83.317,91.951 83.271,90.372 81.307,90.7ZM76.417,93.315C77.235,93.315 78.402,93.143 79.214,93.143L79.214,90.7L76.42,90.7C76.42,91.627 75.936,92.861 76.415,93.315L76.417,93.315ZM71.214,91.184C71.271,91.705 71.214,92.721 71.531,93.143C72.276,93.195 73.697,93.315 74.323,93.143C74.719,92.043 74.355,92.356 74.323,91.049C73.541,90.809 70.771,90.773 71.213,91.184L71.214,91.184ZM49.88,88.602C47.047,91.393 45.833,95.929 44.99,99.779C46.402,100.356 53.255,100.585 54.068,100.476C53.355,93.903 52.01,89.96 51.625,89.304C51.672,88.607 50.041,86.888 49.88,88.602ZM100.87,87.56C98.421,90.95 97.817,98.241 97.027,99.779C99.714,100.529 102.573,99.533 106.104,99.429C105.531,97.565 102.594,88.388 100.869,87.559L100.87,87.56ZM76.182,85.98C76.285,87.22 75.884,87.204 76.072,88.954L79.212,88.954L79.212,86.855C78.135,86.215 76.671,85.33 76.182,85.98ZM74.285,87.397C74.213,87.007 74.285,85.964 73.972,85.808C72.947,86.126 71.687,86.568 70.859,88.111C70.806,88.975 71.931,88.538 72.229,88.601C74.051,88.819 74.285,88.939 74.285,87.397ZM59.655,75.683C60.165,76.45 62.42,75.475 62.452,76.731C62.171,78.819 62.27,78.709 62.103,81.267C63.775,81.194 65.942,81.617 66.639,80.568C66.994,79.272 66.119,78.116 66.639,76.731C68.78,76.683 71.078,76.85 72.578,77.079C72.994,78.111 72.348,79.449 72.578,81.267C73.754,81.048 75.822,81.72 76.42,80.917C76.234,80.064 76.494,77.997 76.072,77.079C78.509,77.434 82.202,76.522 80.608,76.382C76.135,76.459 65.384,75.297 59.655,75.682L59.655,75.683ZM61.056,132.256C59.42,132.85 57.046,131.459 55.114,131.209C58.254,124.429 61.666,119.694 64.894,115.142C63.526,114.959 38.754,113.116 29.275,109.209C32.368,97.069 34.848,88.049 35.213,71.84C35.613,71.548 36.144,71.376 36.958,71.491C37.406,68.568 37.187,64.715 38.354,61.715C39.952,63.72 38.608,68.674 39.051,71.84C39.748,72.543 40.65,73.032 42.196,72.887C42.156,75.064 41.614,76.731 41.848,79.174L43.942,79.174C44.572,76.674 45.499,75.126 44.639,73.584C47.963,73.402 48.572,74.235 52.322,74.631C52.342,76.516 51.78,77.814 51.624,79.521C51.848,80.694 53.302,80.641 54.77,80.568C55.327,79.268 55.103,77.183 55.468,75.683L58.958,75.683C58.311,71.726 59.463,66.516 57.911,61.011C59.785,61.231 62.838,61.532 65.244,61.715C65.832,63.189 65.327,63.876 65.592,65.902C66.728,66.887 69.562,66.344 70.482,66.601C70.494,64.241 70.087,64.048 70.135,61.361C70.713,61.95 72.182,61.641 73.275,61.715C73.978,57.355 73.218,51.45 74.671,48.439C76.103,50.731 74.661,59.038 76.072,61.715L79.562,61.715L79.562,66.251C80.748,66.272 83.322,65.792 84.802,65.901C85.166,64.616 84.728,63.434 85.499,61.011C88.436,61.344 91.472,60.464 93.529,61.011C91.363,65.83 92.04,69.491 91.785,75.683C86.635,75.704 86.723,75.86 82.359,76.027C83.144,77.09 83.291,80.303 83.051,81.267L86.895,81.267C87.405,79.913 86.802,78.344 87.245,76.731C88.827,75.981 91.739,76.564 93.879,76.381C94.051,78.158 94.207,78.33 93.879,80.226C94.592,81.022 96.78,80.35 98.072,80.568C98.285,78.814 97.744,76.444 98.072,75.683C101.739,76.011 101.952,74.996 105.056,74.98C105.556,76.35 105.374,77.652 105.056,79.522C106.228,81.189 107.176,79.86 108.901,79.522C108.332,78.048 109.332,76.084 108.551,74.98C108.884,74.272 109.89,74.23 110.994,74.283C110.734,68.491 111.791,68.626 111.692,63.111C114.39,64.548 112.196,70.387 113.436,73.934C113.958,74.371 115.004,73.152 115.884,74.283C115.597,89.533 116.983,96.97 120.072,109.559C110.359,111.985 99.296,113.12 87.244,114.095C90.114,120.032 96.192,124.803 99.119,130.86C97.707,131.902 94.619,133.106 93.182,132.954C91.655,132.152 91.671,129.808 90.739,128.413C89.192,124.778 86.649,118.068 85.849,116.893C85.489,114.959 85.644,114.606 85.759,112.95C86.269,106.913 85.734,100.366 85.499,99.08C78.316,99.007 70.692,99.246 66.291,98.73C65.734,99.538 64.608,111.199 65.592,113.746L65.592,115.491C63.999,120.283 61.868,128.918 61.056,132.256" style="fill:rgb(35,31,32);"/>
    <g transform="matrix(0.738892,0,0,0.765697,62.8512,14.2254)">
        <path d="M15.914,0.043C14.878,0.047 14.043,0.883 14.039,1.918C14.039,2.949 14.882,3.793 15.914,3.793C16.944,3.793 17.789,2.949 17.789,1.918C17.789,0.888 16.944,0.043 15.914,0.043ZM15.914,0.793C16.539,0.793 17.039,1.293 17.039,1.918C17.039,2.543 16.539,3.043 15.914,3.043C15.612,3.043 15.328,2.927 15.117,2.715C14.905,2.504 14.789,2.22 14.789,1.918C14.789,1.293 15.289,0.793 15.914,0.793Z" style="fill-rule:nonzero;"/>
        <path d="M15.914,2.293C16.328,2.293 16.664,2.629 16.664,3.043L16.664,4.543C16.664,4.957 16.328,5.293 15.914,5.293C15.5,5.293 15.164,4.957 15.164,4.543L15.164,3.043C15.164,2.629 15.5,2.293 15.914,2.293Z" style="fill-rule:nonzero;"/>
        <path d="M15.914,12.493C11.617,12.493 8.117,15.993 8.117,20.29C8.117,24.59 11.617,28.086 15.914,28.086C20.21,28.086 23.71,24.59 23.71,20.29C23.71,15.993 20.21,12.493 15.914,12.493ZM15.914,13.691C17.664,13.691 19.344,14.388 20.582,15.622C21.819,16.859 22.512,18.54 22.512,20.29C22.512,22.04 21.819,23.72 20.582,24.957C19.344,26.195 17.664,26.891 15.914,26.888C14.164,26.891 12.484,26.195 11.246,24.957C10.007,23.72 9.316,22.04 9.316,20.29C9.316,18.54 10.007,16.859 11.246,15.622C12.484,14.383 14.164,13.691 15.914,13.691Z" style="fill-rule:nonzero;"/>
        <path d="M15.914,4.629C7.273,4.629 0.25,11.649 0.25,20.293C0.25,28.938 7.273,35.958 15.914,35.958C24.559,35.958 31.578,28.938 31.578,20.293C31.578,11.649 24.559,4.629 15.914,4.629ZM15.914,5.957C23.839,5.957 30.25,12.368 30.25,20.293C30.25,28.22 23.839,34.629 15.914,34.629C7.987,34.629 1.578,28.22 1.578,20.293C1.578,12.368 7.987,5.957 15.914,5.957Z" style="fill-rule:nonzero;"/>
        <path d="M24.605,11.599L18.246,22.199L7.648,28.559L14.007,17.957L24.605,11.599Z" style="fill:rgb(0,182,227);fill-rule:nonzero;"/>
        <path d="M18.246,22.199L7.648,28.559L14.007,17.957L18.246,22.199Z" style="fill:rgb(255,69,0);fill-rule:nonzero;"/>
        <path d="M17.109,21.066C16.523,21.652 15.573,21.652 14.987,21.066C14.402,20.481 14.402,19.531 14.987,18.945C15.573,18.359 16.523,18.359 17.109,18.945C17.694,19.531 17.694,20.481 17.109,21.066Z" style="fill:white;fill-rule:nonzero;"/>
        <path d="M14.785,6.793C14.578,6.797 14.414,6.965 14.414,7.172L14.414,10.165C14.414,10.372 14.582,10.54 14.789,10.54C14.996,10.54 15.164,10.372 15.164,10.165L15.164,7.172C15.168,7.07 15.125,6.973 15.055,6.902C14.984,6.832 14.887,6.793 14.785,6.793ZM17.035,6.793C16.828,6.797 16.664,6.965 16.664,7.172L16.664,10.165C16.664,10.372 16.832,10.54 17.039,10.54C17.246,10.54 17.414,10.372 17.414,10.165L17.414,7.172C17.418,7.07 17.375,6.973 17.305,6.902C17.234,6.832 17.137,6.793 17.035,6.793Z"/>
        <path d="M14.766,6.797C14.625,6.806 14.503,6.888 14.444,7.016C14.387,7.141 14.405,7.29 14.487,7.398L16.737,10.388C16.862,10.556 17.098,10.586 17.266,10.461C17.43,10.336 17.464,10.102 17.339,9.938L15.089,6.945C15.016,6.845 14.891,6.786 14.766,6.797ZM15.617,30.043C15.41,30.043 15.242,30.211 15.242,30.418C15.242,30.625 15.41,30.793 15.617,30.793L17.03,30.793C17.237,30.793 17.405,30.625 17.405,30.418C17.405,30.211 17.237,30.043 17.03,30.043L15.617,30.043ZM14.796,33.043C14.589,33.043 14.421,33.211 14.421,33.418C14.421,33.625 14.589,33.793 14.796,33.793L16.285,33.793C16.492,33.793 16.66,33.625 16.66,33.418C16.66,33.211 16.492,33.043 16.285,33.043L14.796,33.043ZM15.546,31.543C15.339,31.543 15.171,31.711 15.171,31.918C15.171,32.125 15.339,32.293 15.546,32.293L16.289,32.293C16.496,32.293 16.664,32.125 16.664,31.918C16.664,31.711 16.496,31.543 16.289,31.543L15.546,31.543Z"/>
        <path d="M16.273,31.543C16.066,31.543 15.898,31.711 15.898,31.918C15.898,32.125 16.066,32.293 16.273,32.293C16.5,32.293 16.664,32.458 16.664,32.668C16.664,32.879 16.5,33.043 16.273,33.043C16.066,33.043 15.898,33.211 15.898,33.418C15.898,33.625 16.066,33.793 16.273,33.793C16.894,33.793 17.414,33.29 17.414,32.668C17.414,32.047 16.894,31.543 16.273,31.543Z" style="fill-rule:nonzero;"/>
        <path d="M15.559,30.043C14.941,30.043 14.418,30.547 14.418,31.168C14.418,31.79 14.941,32.293 15.559,32.293C15.769,32.293 15.934,32.125 15.934,31.918C15.934,31.711 15.769,31.543 15.559,31.543C15.335,31.543 15.168,31.379 15.168,31.168C15.168,30.957 15.335,30.793 15.559,30.793C15.769,30.793 15.934,30.625 15.934,30.418C15.934,30.211 15.769,30.043 15.559,30.043Z" style="fill-rule:nonzero;"/>
        <path d="M2.785,18.047C2.578,18.047 2.414,18.22 2.414,18.427L2.414,21.418C2.414,21.625 2.582,21.793 2.789,21.793C2.996,21.793 3.164,21.625 3.164,21.418L3.164,18.427C3.168,18.324 3.125,18.227 3.055,18.152C2.984,18.082 2.887,18.043 2.785,18.047ZM5.03,18.047C4.828,18.047 4.66,18.22 4.664,18.427L4.664,21.418C4.664,21.625 4.832,21.793 5.039,21.793C5.246,21.793 5.414,21.625 5.414,21.418L5.414,18.427C5.414,18.324 5.375,18.227 5.305,18.152C5.23,18.082 5.132,18.043 5.03,18.047Z"/>
        <path d="M3.921,19.845C3.769,19.84 3.628,19.931 3.566,20.066C3.503,20.207 3.535,20.372 3.641,20.481L4.766,21.677C4.905,21.824 5.144,21.832 5.296,21.691C5.448,21.552 5.453,21.313 5.312,21.161L4.187,19.965C4.117,19.891 4.023,19.848 3.921,19.845Z"/>
        <path d="M3.894,19.845C3.796,19.852 3.707,19.895 3.641,19.965L2.519,21.161C2.375,21.313 2.382,21.552 2.535,21.691C2.687,21.832 2.921,21.824 3.066,21.677L4.187,20.481C4.296,20.372 4.323,20.204 4.262,20.063C4.194,19.922 4.051,19.836 3.894,19.845ZM26.793,18.043C26.585,18.043 26.418,18.211 26.418,18.418C26.418,18.625 26.585,18.793 26.793,18.793L29.035,18.793C29.242,18.793 29.41,18.625 29.41,18.418C29.41,18.211 29.242,18.043 29.035,18.043L26.793,18.043Z"/>
        <path d="M26.777,18.043C26.569,18.047 26.405,18.215 26.41,18.422L26.41,21.418C26.41,21.625 26.578,21.793 26.785,21.793C26.992,21.793 27.16,21.625 27.16,21.418L27.16,18.422C27.16,18.32 27.121,18.223 27.051,18.152C26.977,18.082 26.878,18.043 26.777,18.043Z"/>
        <path d="M26.793,19.543C26.585,19.543 26.418,19.711 26.418,19.918C26.418,20.125 26.585,20.293 26.793,20.293L28.434,20.293C28.641,20.293 28.809,20.125 28.809,19.918C28.809,19.711 28.641,19.543 28.434,19.543L26.793,19.543ZM26.793,21.043C26.585,21.043 26.418,21.211 26.418,21.418C26.418,21.625 26.585,21.793 26.793,21.793L29.035,21.793C29.242,21.793 29.41,21.625 29.41,21.418C29.41,21.211 29.242,21.043 29.035,21.043L26.793,21.043Z"/>
    </g>
</svg>
