<?xml version="1.0" encoding="UTF-8" standalone="no"?>
<!DOCTYPE svg PUBLIC "-//W3C//DTD SVG 1.1//EN" "http://www.w3.org/Graphics/SVG/1.1/DTD/svg11.dtd">
<svg width="100%" height="100%" viewBox="0 0 152 154" version="1.1" xmlns="http://www.w3.org/2000/svg" xmlns:xlink="http://www.w3.org/1999/xlink" xml:space="preserve" xmlns:serif="http://www.serif.com/" style="fill-rule:evenodd;clip-rule:evenodd;stroke-linejoin:round;stroke-miterlimit:2;">
    <path d="M75.588,0.82C33.844,0.82 0,34.664 0,76.408C0,118.158 33.844,152.003 75.588,152.003C117.338,152.003 151.183,118.159 151.183,76.408C151.183,34.664 117.339,0.82 75.588,0.82" style="fill:rgb(247,239,39);"/>
    <path d="M141.735,76.408C141.735,112.94 112.12,142.549 75.593,142.549C39.063,142.549 9.448,112.94 9.448,76.408C9.448,39.883 39.063,10.268 75.593,10.268C112.12,10.268 141.735,39.883 141.735,76.408" style="fill:rgb(238,42,34);"/>
    <path d="M78.677,86.908C80.312,92.888 79.224,98.533 76.661,103.038C80.667,99.872 82.99,95.028 82.708,87.58C84.375,93.779 82.047,106.445 74.984,106.06C68.979,105.736 67.421,93.017 67.588,87.241C70.896,86.815 75.188,86.091 78.678,86.908" style="fill:white;"/>
    <path d="M67.588,87.241C67.421,93.017 68.978,105.736 74.984,106.06C82.047,106.445 84.374,93.779 82.708,87.58C82.99,95.028 80.667,99.872 76.661,103.039C79.224,98.533 80.312,92.888 78.677,86.908C75.188,86.091 70.896,86.815 67.588,87.241ZM76.661,72.471C84.896,73.903 88.703,80.273 88.421,89.263C87.615,89.398 87.693,88.648 86.745,88.924C88.093,96.632 82.51,112.445 72.964,108.414C67.588,106.137 66.188,96.82 65.912,88.585C65.922,87.279 64.219,88.528 64.229,87.919C65.093,82.304 65.855,73.94 73.303,73.815C71.932,69.919 69.625,66.96 65.912,65.408C67.771,63.908 69.844,62.621 72.297,61.716C74.339,65.252 76.161,68.06 76.661,72.471" style="fill:rgb(35,31,32);"/>
    <path d="M75.317,76.83C76.735,78.67 73.797,82.94 72.964,82.205C72.151,82.914 73.265,83.7 72.631,84.221C72.427,84.69 71.339,84.273 71.286,84.893C70.251,84.476 69.266,81.986 68.932,81.2C69.557,79.69 71.469,79.47 71.286,77.17C73.006,77.435 73.729,76.7 75.317,76.83M34.027,69.804L40.36,73.137L46.36,69.137L49.693,71.804L52.027,80.804L55.027,80.804L60.027,74.804L61.027,83.471L61.36,89.804L63.896,92.954L64.36,95.471L53.36,91.804L46.693,92.137L42.027,92.471L40.36,87.137L34.693,84.804L32.027,78.804L30.027,71.804L34.027,69.804M89.693,92.804L87.749,96.986L86.407,100.351L99.36,93.471L114.027,93.471L108.693,86.804L121.36,84.804L118.693,78.137L119.027,73.137L107.693,72.137L98.693,82.804L92.027,84.471L91.36,89.471L89.693,92.804" style="fill:white;"/>
    <path d="M126.73,82.877C126.27,80.647 123.437,80.788 122.021,79.517C123.792,79.388 126.265,79.951 127.063,78.845C128.776,78.095 129.776,76.637 130.427,74.82C128.979,74.919 127.735,72.47 127.735,72.47C123.99,72.455 126.464,69.976 125.38,67.43L125.38,64.403C123.817,64.517 123.51,64.919 122.36,64.403C120.453,64.179 119.307,64.71 117.99,65.075C117.203,65.179 117.37,66.241 116.312,66.085C116.265,64.669 115.01,64.476 114.964,63.06C112.885,64.227 108.869,67.684 106.902,70.45C107.145,69.112 107.24,67.43 107.24,67.43C106.35,60.039 97.51,64.268 98.839,69.779C97.729,72.621 100.921,78.659 96.823,80.861C96.068,78.596 95.588,75.023 95.145,73.476C94.771,71.246 91.469,68.992 90.105,70.788C82.714,73.851 89.214,80.705 89.765,86.908C89.527,88.153 90.339,88.351 90.105,89.596C89.432,90.049 88.505,90.236 87.749,90.606L87.749,96.986C91.959,96.908 91.781,91.951 91.781,91.951C92.651,91.612 92.864,89.503 92.453,88.924C92.583,88.049 92.631,87.08 93.125,86.574C94.131,88.46 93.536,91.065 93.797,92.954C97.547,91.445 100.427,89.054 102.203,85.565C102.177,83.924 102.953,82.503 103.541,80.523C104.297,82.757 103,85.19 102.536,86.575C103.093,87.951 108.833,82.903 108.921,82.544C108.697,79.784 109.521,77.154 110.931,74.82C110.464,76.992 109.959,80.279 109.927,81.2C111.255,81.288 113.057,77.512 116.984,75.492C115.754,76.951 113.323,80.132 111.609,82.205C114.412,82.716 116.651,82.945 119,83.216C119,83.549 119.27,83.612 119.333,83.888C111.432,82.216 104.563,85.778 102.536,89.935C104.286,90.085 108.068,91.117 109.926,92.284C106.246,91.534 100.906,90.919 99.177,91.951C96.667,92.69 95.255,94.523 93.125,95.643C91.052,97.383 88.339,98.471 86.407,100.351C85.145,103.008 83.469,105.252 82.036,107.741C87.197,105.341 94.552,112.325 95.817,105.727C96.707,103.809 92.907,103.71 91.109,103.372C92.297,100.779 96.057,103.612 97.833,103.705C99.797,104.544 100.979,106.164 103.88,106.06C105.76,106.008 107.344,104.736 106.568,103.039C106.869,101.269 103.505,98.492 101.531,99.008C100.885,98.861 100.921,98.044 99.849,98.336L99.849,97.997C98.792,98.153 98.473,97.58 98.167,96.987C100.344,96.284 102.902,96.861 104.552,97.659C107.276,98.517 110.088,101.721 113.286,100.012C113.375,99.028 112.531,98.982 112.615,97.997C115.479,96.945 117.927,99.252 120.005,97.659C120.459,97.555 120.651,97.184 121.349,97.325C121.817,95.997 123.083,95.476 123.369,93.965C122.729,94.044 122.625,93.585 122.021,93.632C120.312,89.522 115.011,90.497 112.276,87.919C116.057,87.815 118.057,90.293 120.006,87.241C121.839,89.591 128.74,89.356 128.746,86.575C127.948,85.465 127.959,83.555 126.729,82.877L126.73,82.877ZM81.703,112.445C80.875,109.798 78.276,108.924 74.312,109.419C72.907,109.705 72.724,108.769 71.62,108.747C69.13,111.298 68.005,114.169 66.245,116.809C68.193,117.445 68.74,119.471 70.615,120.175C71.131,118.56 71.828,117.127 72.297,115.465C73.927,114.075 74.093,111.221 76.328,110.429C78.625,112.836 79.718,118.236 81.031,120.508C82.131,120.08 81.745,120.023 82.708,119.836L83.047,119.836C83.083,118.976 84.172,119.169 85.063,119.164C84.88,117.107 83.807,115.945 83.047,114.46C82.697,113.69 82.355,112.914 81.703,112.445ZM20.553,85.232C21.01,88.435 26.667,89.788 28.953,87.242C30.891,89.815 33,88.127 36.677,87.242L36.677,87.58C37.833,87.659 38.14,88.58 38.36,89.596C37.193,89.866 37.068,89.096 36.005,89.263L35.333,89.263C31.036,88.398 25.729,95.008 31.64,96.986C33.604,97.008 34.593,98.06 36.005,96.986C36.208,96.793 37.598,96.206 37.688,96.986C36.688,98.393 38.063,101.028 39.031,100.351C43.724,98.664 44.812,93.986 51.797,95.643C52.068,96.831 53.849,96.508 53.812,97.997C52.131,98.217 49.568,97.555 48.437,98.336L48.104,98.336C45.636,98.893 44.14,100.419 43.402,102.7C43.662,102.779 43.797,103.643 44.073,103.705C49.063,109.779 55.339,95.914 59.527,103.039C57.157,102.965 57.38,103.403 55.157,103.372C54.912,104.216 55.115,104.435 54.151,105.055C55.912,110.716 64.531,106.023 68.26,104.716C64.979,102.195 66.437,96.533 64.23,93.966C62.51,91.966 56.323,89.664 52.807,89.596C49.104,89.148 45.469,90.544 43.063,90.268C45.651,89.575 48.224,89.164 50.12,88.585C51.437,88.565 52.645,88.424 53.479,87.919C50.177,85.451 46.125,83.7 41.719,83.216C40.229,82.46 37.286,83.164 36.005,82.206C36.005,82.206 41.917,82.175 42.391,82.206C36.527,78.039 34.683,75.023 32.312,72.132C33.448,72.304 37.573,78.298 47.093,82.877C46.093,78.169 45.385,72.492 47.093,71.46C46.755,72.43 47.14,78.298 50.12,84.56C51.823,84.533 52.292,85.741 53.812,85.898C55.027,87.044 56.631,87.793 58.182,88.585C58.74,87.919 58.151,88.164 58.182,87.241C57.098,84.065 58.214,81.779 58.182,80.861C58.869,82.768 58.855,83.945 59.193,86.575C59.495,87.805 60.469,88.732 59.864,89.935C61.281,90.867 62.412,92.085 63.896,92.955C64.921,92.263 63.921,90.779 64.229,88.924C63.729,88.867 62.989,89.044 62.885,88.585C62.995,83.273 64.541,81.372 64.902,76.831C65.584,76.033 64.902,72.804 64.902,72.804C64.584,70.227 60.885,67.774 58.522,69.445C58.312,69.465 58.12,69.492 58.182,69.779C55.317,71.017 54.922,74.293 54.822,77.503C54.917,78.383 54.697,78.945 53.812,78.845C53.062,77.476 52.562,75.845 52.807,73.476C52.869,71.055 52.912,66.798 51.464,65.408C49.021,58.736 42.303,64.184 42.729,69.445C41.505,68.435 41.921,67.637 41.38,65.747C36.917,57.857 33.786,64.569 34.328,65.747C33.005,65.273 32.828,63.664 30.969,63.732C28.557,61.976 25.855,64.268 24.245,63.398C24.303,64.46 23.355,64.518 23.573,65.747L23.24,65.747C22.921,68.752 25.724,68.643 26.26,70.788L25.255,70.788C23.38,71.955 20.349,72.544 19.88,74.148C19.75,76.331 22.568,76.498 22.568,76.498C25.703,77.008 29.271,76.033 30.631,79.518C29.948,80.107 26.823,80.08 26.26,79.518C23.421,79.345 20.697,82.727 20.552,85.232" style="fill:rgb(35,31,32);"/>
    <g transform="matrix(0.738892,0,0,0.765697,63.3291,15.3412)">
        <path d="M15.914,0.043C14.878,0.047 14.043,0.883 14.039,1.918C14.039,2.949 14.882,3.793 15.914,3.793C16.944,3.793 17.789,2.949 17.789,1.918C17.789,0.888 16.944,0.043 15.914,0.043ZM15.914,0.793C16.539,0.793 17.039,1.293 17.039,1.918C17.039,2.543 16.539,3.043 15.914,3.043C15.612,3.043 15.328,2.927 15.117,2.715C14.905,2.504 14.789,2.22 14.789,1.918C14.789,1.293 15.289,0.793 15.914,0.793Z" style="fill-rule:nonzero;"/>
        <path d="M15.914,2.293C16.328,2.293 16.664,2.629 16.664,3.043L16.664,4.543C16.664,4.957 16.328,5.293 15.914,5.293C15.5,5.293 15.164,4.957 15.164,4.543L15.164,3.043C15.164,2.629 15.5,2.293 15.914,2.293Z" style="fill-rule:nonzero;"/>
        <path d="M15.914,12.493C11.617,12.493 8.117,15.993 8.117,20.29C8.117,24.59 11.617,28.086 15.914,28.086C20.21,28.086 23.71,24.59 23.71,20.29C23.71,15.993 20.21,12.493 15.914,12.493ZM15.914,13.691C17.664,13.691 19.344,14.388 20.582,15.622C21.819,16.859 22.512,18.54 22.512,20.29C22.512,22.04 21.819,23.72 20.582,24.957C19.344,26.195 17.664,26.891 15.914,26.888C14.164,26.891 12.484,26.195 11.246,24.957C10.007,23.72 9.316,22.04 9.316,20.29C9.316,18.54 10.007,16.859 11.246,15.622C12.484,14.383 14.164,13.691 15.914,13.691Z" style="fill-rule:nonzero;"/>
        <path d="M15.914,4.629C7.273,4.629 0.25,11.649 0.25,20.293C0.25,28.938 7.273,35.958 15.914,35.958C24.559,35.958 31.578,28.938 31.578,20.293C31.578,11.649 24.559,4.629 15.914,4.629ZM15.914,5.957C23.839,5.957 30.25,12.368 30.25,20.293C30.25,28.22 23.839,34.629 15.914,34.629C7.987,34.629 1.578,28.22 1.578,20.293C1.578,12.368 7.987,5.957 15.914,5.957Z" style="fill-rule:nonzero;"/>
        <path d="M24.605,11.599L18.246,22.199L7.648,28.559L14.007,17.957L24.605,11.599Z" style="fill:rgb(0,182,227);fill-rule:nonzero;"/>
        <path d="M18.246,22.199L7.648,28.559L14.007,17.957L18.246,22.199Z" style="fill:rgb(255,69,0);fill-rule:nonzero;"/>
        <path d="M17.109,21.066C16.523,21.652 15.573,21.652 14.987,21.066C14.402,20.481 14.402,19.531 14.987,18.945C15.573,18.359 16.523,18.359 17.109,18.945C17.694,19.531 17.694,20.481 17.109,21.066Z" style="fill:white;fill-rule:nonzero;"/>
        <path d="M14.785,6.793C14.578,6.797 14.414,6.965 14.414,7.172L14.414,10.165C14.414,10.372 14.582,10.54 14.789,10.54C14.996,10.54 15.164,10.372 15.164,10.165L15.164,7.172C15.168,7.07 15.125,6.973 15.055,6.902C14.984,6.832 14.887,6.793 14.785,6.793ZM17.035,6.793C16.828,6.797 16.664,6.965 16.664,7.172L16.664,10.165C16.664,10.372 16.832,10.54 17.039,10.54C17.246,10.54 17.414,10.372 17.414,10.165L17.414,7.172C17.418,7.07 17.375,6.973 17.305,6.902C17.234,6.832 17.137,6.793 17.035,6.793Z"/>
        <path d="M14.766,6.797C14.625,6.806 14.503,6.888 14.444,7.016C14.387,7.141 14.405,7.29 14.487,7.398L16.737,10.388C16.862,10.556 17.098,10.586 17.266,10.461C17.43,10.336 17.464,10.102 17.339,9.938L15.089,6.945C15.016,6.845 14.891,6.786 14.766,6.797ZM15.617,30.043C15.41,30.043 15.242,30.211 15.242,30.418C15.242,30.625 15.41,30.793 15.617,30.793L17.03,30.793C17.237,30.793 17.405,30.625 17.405,30.418C17.405,30.211 17.237,30.043 17.03,30.043L15.617,30.043ZM14.796,33.043C14.589,33.043 14.421,33.211 14.421,33.418C14.421,33.625 14.589,33.793 14.796,33.793L16.285,33.793C16.492,33.793 16.66,33.625 16.66,33.418C16.66,33.211 16.492,33.043 16.285,33.043L14.796,33.043ZM15.546,31.543C15.339,31.543 15.171,31.711 15.171,31.918C15.171,32.125 15.339,32.293 15.546,32.293L16.289,32.293C16.496,32.293 16.664,32.125 16.664,31.918C16.664,31.711 16.496,31.543 16.289,31.543L15.546,31.543Z"/>
        <path d="M16.273,31.543C16.066,31.543 15.898,31.711 15.898,31.918C15.898,32.125 16.066,32.293 16.273,32.293C16.5,32.293 16.664,32.458 16.664,32.668C16.664,32.879 16.5,33.043 16.273,33.043C16.066,33.043 15.898,33.211 15.898,33.418C15.898,33.625 16.066,33.793 16.273,33.793C16.894,33.793 17.414,33.29 17.414,32.668C17.414,32.047 16.894,31.543 16.273,31.543Z" style="fill-rule:nonzero;"/>
        <path d="M15.559,30.043C14.941,30.043 14.418,30.547 14.418,31.168C14.418,31.79 14.941,32.293 15.559,32.293C15.769,32.293 15.934,32.125 15.934,31.918C15.934,31.711 15.769,31.543 15.559,31.543C15.335,31.543 15.168,31.379 15.168,31.168C15.168,30.957 15.335,30.793 15.559,30.793C15.769,30.793 15.934,30.625 15.934,30.418C15.934,30.211 15.769,30.043 15.559,30.043Z" style="fill-rule:nonzero;"/>
        <path d="M2.785,18.047C2.578,18.047 2.414,18.22 2.414,18.427L2.414,21.418C2.414,21.625 2.582,21.793 2.789,21.793C2.996,21.793 3.164,21.625 3.164,21.418L3.164,18.427C3.168,18.324 3.125,18.227 3.055,18.152C2.984,18.082 2.887,18.043 2.785,18.047ZM5.03,18.047C4.828,18.047 4.66,18.22 4.664,18.427L4.664,21.418C4.664,21.625 4.832,21.793 5.039,21.793C5.246,21.793 5.414,21.625 5.414,21.418L5.414,18.427C5.414,18.324 5.375,18.227 5.305,18.152C5.23,18.082 5.132,18.043 5.03,18.047Z"/>
        <path d="M3.921,19.845C3.769,19.84 3.628,19.931 3.566,20.066C3.503,20.207 3.535,20.372 3.641,20.481L4.766,21.677C4.905,21.824 5.144,21.832 5.296,21.691C5.448,21.552 5.453,21.313 5.312,21.161L4.187,19.965C4.117,19.891 4.023,19.848 3.921,19.845Z"/>
        <path d="M3.894,19.845C3.796,19.852 3.707,19.895 3.641,19.965L2.519,21.161C2.375,21.313 2.382,21.552 2.535,21.691C2.687,21.832 2.921,21.824 3.066,21.677L4.187,20.481C4.296,20.372 4.323,20.204 4.262,20.063C4.194,19.922 4.051,19.836 3.894,19.845ZM26.793,18.043C26.585,18.043 26.418,18.211 26.418,18.418C26.418,18.625 26.585,18.793 26.793,18.793L29.035,18.793C29.242,18.793 29.41,18.625 29.41,18.418C29.41,18.211 29.242,18.043 29.035,18.043L26.793,18.043Z"/>
        <path d="M26.777,18.043C26.569,18.047 26.405,18.215 26.41,18.422L26.41,21.418C26.41,21.625 26.578,21.793 26.785,21.793C26.992,21.793 27.16,21.625 27.16,21.418L27.16,18.422C27.16,18.32 27.121,18.223 27.051,18.152C26.977,18.082 26.878,18.043 26.777,18.043Z"/>
        <path d="M26.793,19.543C26.585,19.543 26.418,19.711 26.418,19.918C26.418,20.125 26.585,20.293 26.793,20.293L28.434,20.293C28.641,20.293 28.809,20.125 28.809,19.918C28.809,19.711 28.641,19.543 28.434,19.543L26.793,19.543ZM26.793,21.043C26.585,21.043 26.418,21.211 26.418,21.418C26.418,21.625 26.585,21.793 26.793,21.793L29.035,21.793C29.242,21.793 29.41,21.625 29.41,21.418C29.41,21.211 29.242,21.043 29.035,21.043L26.793,21.043Z"/>
    </g>
</svg>
