<?xml version="1.0" encoding="UTF-8" standalone="no"?>
<!DOCTYPE svg PUBLIC "-//W3C//DTD SVG 1.1//EN" "http://www.w3.org/Graphics/SVG/1.1/DTD/svg11.dtd">
<svg width="100%" height="100%" viewBox="0 0 152 154" version="1.1" xmlns="http://www.w3.org/2000/svg" xmlns:xlink="http://www.w3.org/1999/xlink" xml:space="preserve" xmlns:serif="http://www.serif.com/" style="fill-rule:evenodd;clip-rule:evenodd;stroke-linejoin:round;stroke-miterlimit:2;">
    <path d="M75.588,0.82C33.844,0.82 0,34.664 0,76.408C0,118.158 33.844,152.003 75.588,152.003C117.338,152.003 151.183,118.159 151.183,76.408C151.183,34.664 117.339,0.82 75.588,0.82" style="fill:rgb(247,239,39);"/>
    <path d="M141.735,76.408C141.735,112.94 112.12,142.549 75.593,142.549C39.063,142.549 9.448,112.94 9.448,76.408C9.448,39.883 39.063,10.268 75.593,10.268C112.12,10.268 141.735,39.883 141.735,76.408" style="fill:rgb(238,42,34);"/>
    <path d="M49.292,53.055C49.292,57.841 45.407,61.727 40.62,61.727C35.833,61.727 31.948,57.841 31.948,53.055C31.948,48.268 35.833,44.383 40.62,44.383C45.407,44.383 49.292,48.268 49.292,53.055M117.864,53.58C117.864,58.367 113.984,62.252 109.197,62.252C104.407,62.252 100.521,58.367 100.521,53.58C100.521,48.793 104.407,44.908 109.197,44.908C113.984,44.908 117.864,48.793 117.864,53.58M50.11,102.481L104.38,102.481L118.74,114.403L35.265,114.403L50.11,102.48M50.964,88.184L53.031,89.768L60.333,92.684L66.902,92.684L75.052,92.992L89.412,92.992L95.984,90.252L99.432,86.362L97.079,86.362L95.984,74.919L92.817,71.877L89.947,57.907C77.729,56.304 60.333,58.617 60.333,58.617L55.343,72.367L53.64,75.407L52.541,81.003L52.667,84.653L52.787,85.753L50.177,86.003L50.964,88.183" style="fill:white;"/>
    <path d="M40.688,65.57C39.396,65.279 38.063,65.555 38.063,65.555C37.38,66.544 37.786,69.012 37.771,70.669L40.62,70.669L40.688,65.569M108.193,66.298C109.098,66.607 110.349,66.518 111.677,66.403C111.677,67.621 111.803,69.445 111.839,70.679C110.251,70.399 108.459,71.127 107.829,70.679C107.959,69.232 107.489,67.179 108.193,66.299M112.203,75.055L112.203,79.798C111.323,80.498 109.271,80.028 107.828,80.164L107.828,75.419C108.927,75.008 110.708,75.164 112.203,75.055M41.052,75.419C39.891,75.408 38.307,75.284 37.453,75.408C37.213,76.867 37.213,78.569 37.041,80.164L41.251,80.117L41.052,75.419M40.864,84.288C40.984,85.872 41.104,87.455 41.104,89.033C40.12,89.753 38.229,89.137 36.677,89.283L36.677,84.908C37.229,84.003 39.891,84.408 40.864,84.288M107.464,84.908C109.131,85.065 111.479,84.538 112.568,85.273C112.615,86.779 111.938,87.555 112.203,89.283L107.093,89.283C106.812,87.419 107.609,86.637 107.464,84.908M99.068,87.102C99.355,87.017 99.495,86.788 99.432,86.362C100.74,87.388 100.885,91.293 99.797,92.569C98.593,93.069 96.88,93.055 95.421,93.299L95.421,98.773L85.568,98.773C84.849,97.788 85.355,95.58 85.203,94.028C78.213,94.085 71.303,94.065 64.771,93.664C63.99,94.831 63.969,96.752 64.041,98.774C60.5,98.664 56.683,98.894 53.881,98.528C53.881,96.825 53.823,94.638 53.823,92.935C53.312,91.621 50.917,92.195 50.177,91.112C50.057,89.798 49.661,88.342 49.86,87.039C49.912,86.679 50.01,86.331 50.177,86.003C51.115,86.033 55.464,92.565 66.959,90.747C77.224,93.569 92.01,91.924 99.069,87.102M36.755,94.023C37.609,94.107 39.047,93.56 41.391,94.028C42.161,95.012 41.62,97.221 41.781,98.773C41.448,98.705 41.412,98.913 41.391,99.137C39.724,98.992 37.364,99.492 36.307,98.773C36.625,97.435 36.625,95.241 36.755,94.023M106.73,94.028L112.203,94.028C112.145,95.914 112.432,98.148 111.839,99.503C110.063,99.336 107.563,99.888 106.369,99.137C106.286,97.232 106.369,95.492 106.729,94.028" style="fill:rgb(7,16,22);"/>
    <path d="M89.948,57.908C78.953,57.498 69.584,58.705 60.755,60.46C59.786,64.112 57.427,69.45 58.203,72.503C56.188,72.44 53.869,73.997 54.553,75.419C61.427,66.169 68.437,85.684 57.473,83.815C55.583,83.486 54.855,81.612 53.64,80.517C53.15,84.533 59.97,85.836 62.584,83.445C69.229,85.179 78.334,84.512 85.568,83.815C96.203,91.856 100.12,69.945 88.484,73.595C96.921,72.345 96.265,83.544 90.672,84.179C85.479,84.769 83.396,77.648 87.031,74.325C85.588,73.465 84.495,77.247 83.016,77.247C82.755,77.247 81.156,75.227 80.093,74.69C74.651,71.945 73.88,76.102 70.245,77.612C63.521,80.402 64.203,73.465 59.661,72.137C62.667,72.345 62.844,69.727 65.136,69.217C59.76,60.752 75.869,58.325 71.339,69.217C74.979,73.241 85.402,70.481 91.407,72.137C91.521,67.523 90.109,62.492 90.312,59.003C92.082,62.7 93.416,66.841 94.328,71.408C97.755,74.091 99.88,80.612 97.978,86.367C97.953,86.831 97.505,86.872 97.609,87.46C90.51,89.44 84.563,91.023 77.177,90.383C71.828,89.913 67.339,86.569 63.312,86.003C59.317,85.445 55.125,87.793 52,85.273C50.197,78.903 53.38,75.664 54.917,71.408C56.703,66.465 56.432,60.763 59.661,57.178C68.907,55.878 81.281,55.372 89.948,57.544L89.948,57.908M43.77,102.71L51.636,102.424C47.714,106.394 44.036,109.804 39.959,114.46C35.697,114.221 30.473,114.95 26.823,114.102C32.74,110.331 38.255,106.393 43.771,102.71M58.203,102.424L65.5,102.424C64.286,106.804 61.803,109.914 60.755,114.46L49.443,114.46C52.151,110.236 55.5,106.653 58.203,102.424M71.339,102.424L79.729,102.424C80.297,106.602 81.416,110.221 81.917,114.46L69.517,114.46C70.197,110.523 70.693,106.398 71.339,102.424M85.932,102.424L93.229,102.424C96,106.585 99.579,109.94 101.989,114.46L91.408,114.46C89.662,110.367 87.599,106.596 85.933,102.424M99.797,102.424L106.729,102.424C112.057,106.58 118.203,109.924 123.151,114.46L112.203,114.46C108.473,110.17 103.849,106.768 99.797,102.788L99.797,102.424" style="fill:rgb(7,16,22);"/>
    <g transform="matrix(0.738892,0,0,0.765697,64.1777,16.4234)">
        <path d="M15.914,0.043C14.878,0.047 14.043,0.883 14.039,1.918C14.039,2.949 14.882,3.793 15.914,3.793C16.944,3.793 17.789,2.949 17.789,1.918C17.789,0.888 16.944,0.043 15.914,0.043ZM15.914,0.793C16.539,0.793 17.039,1.293 17.039,1.918C17.039,2.543 16.539,3.043 15.914,3.043C15.612,3.043 15.328,2.927 15.117,2.715C14.905,2.504 14.789,2.22 14.789,1.918C14.789,1.293 15.289,0.793 15.914,0.793Z" style="fill-rule:nonzero;"/>
        <path d="M15.914,2.293C16.328,2.293 16.664,2.629 16.664,3.043L16.664,4.543C16.664,4.957 16.328,5.293 15.914,5.293C15.5,5.293 15.164,4.957 15.164,4.543L15.164,3.043C15.164,2.629 15.5,2.293 15.914,2.293Z" style="fill-rule:nonzero;"/>
        <path d="M15.914,12.493C11.617,12.493 8.117,15.993 8.117,20.29C8.117,24.59 11.617,28.086 15.914,28.086C20.21,28.086 23.71,24.59 23.71,20.29C23.71,15.993 20.21,12.493 15.914,12.493ZM15.914,13.691C17.664,13.691 19.344,14.388 20.582,15.622C21.819,16.859 22.512,18.54 22.512,20.29C22.512,22.04 21.819,23.72 20.582,24.957C19.344,26.195 17.664,26.891 15.914,26.888C14.164,26.891 12.484,26.195 11.246,24.957C10.007,23.72 9.316,22.04 9.316,20.29C9.316,18.54 10.007,16.859 11.246,15.622C12.484,14.383 14.164,13.691 15.914,13.691Z" style="fill-rule:nonzero;"/>
        <path d="M15.914,4.629C7.273,4.629 0.25,11.649 0.25,20.293C0.25,28.938 7.273,35.958 15.914,35.958C24.559,35.958 31.578,28.938 31.578,20.293C31.578,11.649 24.559,4.629 15.914,4.629ZM15.914,5.957C23.839,5.957 30.25,12.368 30.25,20.293C30.25,28.22 23.839,34.629 15.914,34.629C7.987,34.629 1.578,28.22 1.578,20.293C1.578,12.368 7.987,5.957 15.914,5.957Z" style="fill-rule:nonzero;"/>
        <path d="M24.605,11.599L18.246,22.199L7.648,28.559L14.007,17.957L24.605,11.599Z" style="fill:rgb(0,182,227);fill-rule:nonzero;"/>
        <path d="M18.246,22.199L7.648,28.559L14.007,17.957L18.246,22.199Z" style="fill:rgb(255,69,0);fill-rule:nonzero;"/>
        <path d="M17.109,21.066C16.523,21.652 15.573,21.652 14.987,21.066C14.402,20.481 14.402,19.531 14.987,18.945C15.573,18.359 16.523,18.359 17.109,18.945C17.694,19.531 17.694,20.481 17.109,21.066Z" style="fill:white;fill-rule:nonzero;"/>
        <path d="M14.785,6.793C14.578,6.797 14.414,6.965 14.414,7.172L14.414,10.165C14.414,10.372 14.582,10.54 14.789,10.54C14.996,10.54 15.164,10.372 15.164,10.165L15.164,7.172C15.168,7.07 15.125,6.973 15.055,6.902C14.984,6.832 14.887,6.793 14.785,6.793ZM17.035,6.793C16.828,6.797 16.664,6.965 16.664,7.172L16.664,10.165C16.664,10.372 16.832,10.54 17.039,10.54C17.246,10.54 17.414,10.372 17.414,10.165L17.414,7.172C17.418,7.07 17.375,6.973 17.305,6.902C17.234,6.832 17.137,6.793 17.035,6.793Z"/>
        <path d="M14.766,6.797C14.625,6.806 14.503,6.888 14.444,7.016C14.387,7.141 14.405,7.29 14.487,7.398L16.737,10.388C16.862,10.556 17.098,10.586 17.266,10.461C17.43,10.336 17.464,10.102 17.339,9.938L15.089,6.945C15.016,6.845 14.891,6.786 14.766,6.797ZM15.617,30.043C15.41,30.043 15.242,30.211 15.242,30.418C15.242,30.625 15.41,30.793 15.617,30.793L17.03,30.793C17.237,30.793 17.405,30.625 17.405,30.418C17.405,30.211 17.237,30.043 17.03,30.043L15.617,30.043ZM14.796,33.043C14.589,33.043 14.421,33.211 14.421,33.418C14.421,33.625 14.589,33.793 14.796,33.793L16.285,33.793C16.492,33.793 16.66,33.625 16.66,33.418C16.66,33.211 16.492,33.043 16.285,33.043L14.796,33.043ZM15.546,31.543C15.339,31.543 15.171,31.711 15.171,31.918C15.171,32.125 15.339,32.293 15.546,32.293L16.289,32.293C16.496,32.293 16.664,32.125 16.664,31.918C16.664,31.711 16.496,31.543 16.289,31.543L15.546,31.543Z"/>
        <path d="M16.273,31.543C16.066,31.543 15.898,31.711 15.898,31.918C15.898,32.125 16.066,32.293 16.273,32.293C16.5,32.293 16.664,32.458 16.664,32.668C16.664,32.879 16.5,33.043 16.273,33.043C16.066,33.043 15.898,33.211 15.898,33.418C15.898,33.625 16.066,33.793 16.273,33.793C16.894,33.793 17.414,33.29 17.414,32.668C17.414,32.047 16.894,31.543 16.273,31.543Z" style="fill-rule:nonzero;"/>
        <path d="M15.559,30.043C14.941,30.043 14.418,30.547 14.418,31.168C14.418,31.79 14.941,32.293 15.559,32.293C15.769,32.293 15.934,32.125 15.934,31.918C15.934,31.711 15.769,31.543 15.559,31.543C15.335,31.543 15.168,31.379 15.168,31.168C15.168,30.957 15.335,30.793 15.559,30.793C15.769,30.793 15.934,30.625 15.934,30.418C15.934,30.211 15.769,30.043 15.559,30.043Z" style="fill-rule:nonzero;"/>
        <path d="M2.785,18.047C2.578,18.047 2.414,18.22 2.414,18.427L2.414,21.418C2.414,21.625 2.582,21.793 2.789,21.793C2.996,21.793 3.164,21.625 3.164,21.418L3.164,18.427C3.168,18.324 3.125,18.227 3.055,18.152C2.984,18.082 2.887,18.043 2.785,18.047ZM5.03,18.047C4.828,18.047 4.66,18.22 4.664,18.427L4.664,21.418C4.664,21.625 4.832,21.793 5.039,21.793C5.246,21.793 5.414,21.625 5.414,21.418L5.414,18.427C5.414,18.324 5.375,18.227 5.305,18.152C5.23,18.082 5.132,18.043 5.03,18.047Z"/>
        <path d="M3.921,19.845C3.769,19.84 3.628,19.931 3.566,20.066C3.503,20.207 3.535,20.372 3.641,20.481L4.766,21.677C4.905,21.824 5.144,21.832 5.296,21.691C5.448,21.552 5.453,21.313 5.312,21.161L4.187,19.965C4.117,19.891 4.023,19.848 3.921,19.845Z"/>
        <path d="M3.894,19.845C3.796,19.852 3.707,19.895 3.641,19.965L2.519,21.161C2.375,21.313 2.382,21.552 2.535,21.691C2.687,21.832 2.921,21.824 3.066,21.677L4.187,20.481C4.296,20.372 4.323,20.204 4.262,20.063C4.194,19.922 4.051,19.836 3.894,19.845ZM26.793,18.043C26.585,18.043 26.418,18.211 26.418,18.418C26.418,18.625 26.585,18.793 26.793,18.793L29.035,18.793C29.242,18.793 29.41,18.625 29.41,18.418C29.41,18.211 29.242,18.043 29.035,18.043L26.793,18.043Z"/>
        <path d="M26.777,18.043C26.569,18.047 26.405,18.215 26.41,18.422L26.41,21.418C26.41,21.625 26.578,21.793 26.785,21.793C26.992,21.793 27.16,21.625 27.16,21.418L27.16,18.422C27.16,18.32 27.121,18.223 27.051,18.152C26.977,18.082 26.878,18.043 26.777,18.043Z"/>
        <path d="M26.793,19.543C26.585,19.543 26.418,19.711 26.418,19.918C26.418,20.125 26.585,20.293 26.793,20.293L28.434,20.293C28.641,20.293 28.809,20.125 28.809,19.918C28.809,19.711 28.641,19.543 28.434,19.543L26.793,19.543ZM26.793,21.043C26.585,21.043 26.418,21.211 26.418,21.418C26.418,21.625 26.585,21.793 26.793,21.793L29.035,21.793C29.242,21.793 29.41,21.625 29.41,21.418C29.41,21.211 29.242,21.043 29.035,21.043L26.793,21.043Z"/>
    </g>
</svg>
