<?xml version="1.0" encoding="UTF-8" standalone="no"?>
<!DOCTYPE svg PUBLIC "-//W3C//DTD SVG 1.1//EN" "http://www.w3.org/Graphics/SVG/1.1/DTD/svg11.dtd">
<svg width="100%" height="100%" viewBox="0 0 152 154" version="1.1" xmlns="http://www.w3.org/2000/svg" xmlns:xlink="http://www.w3.org/1999/xlink" xml:space="preserve" xmlns:serif="http://www.serif.com/" style="fill-rule:evenodd;clip-rule:evenodd;stroke-linejoin:round;stroke-miterlimit:2;">
    <path d="M75.588,0.82C33.844,0.82 0,34.664 0,76.408C0,118.158 33.844,152.003 75.588,152.003C117.338,152.003 151.183,118.159 151.183,76.408C151.183,34.664 117.339,0.82 75.588,0.82" style="fill:rgb(238,42,34);"/>
    <path d="M141.735,76.408C141.735,112.94 112.12,142.549 75.593,142.549C39.063,142.549 9.448,112.94 9.448,76.408C9.448,39.883 39.063,10.268 75.593,10.268C112.12,10.268 141.735,39.883 141.735,76.408" style="fill:rgb(37,72,127);"/>
    <path d="M94.328,114.148C94.755,117.153 92.443,117.414 90.969,118.518C89.927,117.658 89.115,116.565 88.953,114.82C89.979,113.836 92.375,114.216 94.328,114.148M64.088,115.159C64.276,117.023 63.276,117.705 62.745,118.851C60.917,118.216 59.26,117.408 59.047,115.159C60.093,114.621 63.041,114.621 64.088,115.159M85.588,116.17C86.958,116.7 86.896,118.675 87.609,119.861C85.869,120.617 83.5,120.617 82.229,120.195C82.307,117.809 84.619,117.659 85.588,116.169M71.479,120.872C69.369,120.851 66.969,121.122 65.771,120.195C66.193,119.055 66.536,117.836 67.115,116.841C68.797,116.679 71.557,118.164 71.479,120.871" style="fill:rgb(37,72,127);"/>
    <path d="M84.35,102.512C83.172,106.372 80.464,108.705 78.636,111.919L74.604,111.919C74.864,108.148 75.636,104.888 75.276,100.497C78.333,100.907 80.844,101.867 84.01,102.175C84.03,102.377 84.057,102.569 84.35,102.512M65.864,113.263C66.697,111.183 67.527,109.102 69.224,107.888C69.874,109.252 70.594,110.555 71.245,111.918C68.839,111.758 67.99,113.148 65.864,113.263" style="fill:rgb(247,239,39);"/>
    <path d="M71.245,111.919C70.593,110.555 69.875,109.252 69.224,107.888C67.527,109.102 66.697,111.184 65.864,113.263C67.99,113.148 68.839,111.757 71.245,111.919ZM34.953,100.497C29.251,101.179 23.661,99.393 20.172,96.798C22.416,96.408 30.662,101.528 33.948,97.132C29.64,98.971 23.298,95.945 22.521,91.085C24.453,91.555 26.292,94.898 30.588,94.112C24.312,93.085 21.609,81.465 27.896,78.32C25.453,82.419 26.844,89.325 31.255,90.414C29.917,89.107 27.197,82.252 30.588,79.997C30.625,82.361 28.891,86.32 32.265,87.393C32.969,87.533 33.156,87.159 33.609,87.055L34.619,87.055C35.755,80.341 42.421,77.429 47.719,81.679C49.375,83.008 49.839,88.741 53.432,89.069C54.604,82.955 59.473,80.549 65.864,79.664C72.197,81.054 76.552,81.424 80.984,83.694C82.541,82.945 85.688,82.607 86.027,81.679C87.953,80.914 90.224,77.585 90.729,74.284C88.521,74.872 86.041,75.194 83.672,75.627C79.297,74.523 74.442,73.883 72.588,70.252C73.156,70.377 73.218,69.992 73.255,69.58C74.745,70.112 75.891,70.981 77.964,70.924C79.864,72.585 83.494,71.017 86.027,70.591C84.787,69.809 82.115,70.471 80.312,70.252C77.516,70.028 75.672,68.845 73.255,68.236L73.255,66.221C75.073,65.871 75.86,68.309 77.292,67.227C79.229,68.403 82.693,67.331 85.355,67.227C80.688,66.632 75.605,66.455 75.276,61.517C78.546,64.429 84.666,64.273 90.057,63.533C86.402,62.71 82.707,61.924 81.995,58.159C84.443,59.424 91.167,60.523 95.098,59.503C93.861,58.752 92.823,57.714 92.073,56.476C97.068,59.132 110.136,52.784 111.224,59.503C113.604,59.413 114.412,57.757 116.265,57.148C116.49,59.836 115.12,60.929 114.588,62.861C118.516,66.555 118.698,75.763 119.964,81.008C117.937,82.008 115.271,82.367 112.568,82.69C112.547,77.555 109.995,74.955 106.86,72.94C105.885,74.21 105.375,75.94 105.516,78.32C104.714,80.992 105.552,85.298 104.844,88.065C105.369,90.607 103.609,90.861 103.5,92.768C104.943,93.304 107.172,91.741 108.875,91.424C116.62,95.445 112.479,110.841 105.516,113.263C105.626,110.512 104.068,107.293 104.844,105.2C106.068,105.304 107.031,105.143 107.864,104.861C109.339,102.288 109.954,97.503 109.88,94.445C105.776,94.595 104.921,97.997 101.817,99.153C102.51,102.153 101.229,109.435 104.172,111.247C101.797,116.268 95.964,117.825 92.745,122.003C88.973,121.993 88.416,121.669 84.683,120.993C85.109,118.169 87.693,117.508 88.713,115.279C93.479,118.273 98.483,114.888 100.136,110.908C98.573,106.986 95.563,104.512 92.746,101.841C90.251,103.101 86.906,101.992 84.349,102.512C84.057,102.569 84.031,102.377 84.01,102.175C80.844,101.867 78.333,100.908 75.276,100.497C75.636,104.888 74.864,108.147 74.604,111.919L78.636,111.919C81.364,112.659 83.506,113.992 86.697,114.273C85.745,116.455 83.973,117.82 82.328,119.309C79.448,119.175 78.755,116.841 76.281,116.288C78.312,122.658 88.219,124.065 90.057,131.741C87.672,132.492 83.921,131.877 80.984,132.081C80.688,127.112 78.614,123.924 75.948,121.325C74.921,119.44 72.604,118.845 71.245,117.293L71.245,115.951C67.588,116.555 65.364,118.585 61.161,118.637C58.849,113.58 64.276,110.898 63.177,104.861C59.265,101.836 56.073,98.081 54.776,92.429C55.568,102.94 44.021,99.819 40.666,95.117C40.172,98.32 38.104,99.951 34.953,100.497" style="fill:white;"/>
    <path d="M83.672,75.627C86.042,75.195 88.522,74.872 90.729,74.284C90.224,77.585 87.953,80.914 86.027,81.679C85.083,79.819 84.547,77.555 83.672,75.627" style="fill:rgb(37,72,127);"/>
    <path d="M33.61,87.055C33.01,65.095 61.807,51.831 77.292,67.227C75.86,68.309 75.073,65.872 73.255,66.221L73.255,68.236C75.672,68.846 77.516,70.028 80.312,70.252L80.312,70.591C80.598,70.528 80.631,70.721 80.651,70.924L77.964,70.924C75.891,70.981 74.745,70.112 73.254,69.58C73.219,69.992 73.156,70.377 72.588,70.252C74.443,73.882 79.298,74.522 83.672,75.627C84.547,77.555 85.082,79.82 86.027,81.679C85.688,82.607 82.541,82.945 80.984,83.695C76.552,81.424 72.197,81.055 65.864,79.664C59.474,80.549 54.604,82.954 53.432,89.069C49.839,88.741 49.375,83.008 47.719,81.679C42.421,77.429 35.755,80.341 34.619,87.055L33.609,87.055M34.953,100.497C38.104,99.951 40.172,98.32 40.667,95.117C44.021,99.82 55.568,102.94 54.776,92.429C56.073,98.08 59.266,101.836 63.177,104.861C64.276,110.898 58.849,113.581 61.161,118.637C65.364,118.585 67.588,116.555 71.245,115.951L71.245,117.293C70.156,117.555 69.255,117.997 68.552,118.637C53.396,123.315 38.631,113.647 34.953,100.497" style="fill:rgb(247,239,39);"/>
    <g transform="matrix(0.738892,0,0,0.765697,64.1777,15.5226)">
        <path d="M15.914,0.043C14.878,0.047 14.043,0.883 14.039,1.918C14.039,2.949 14.882,3.793 15.914,3.793C16.944,3.793 17.789,2.949 17.789,1.918C17.789,0.888 16.944,0.043 15.914,0.043ZM15.914,0.793C16.539,0.793 17.039,1.293 17.039,1.918C17.039,2.543 16.539,3.043 15.914,3.043C15.612,3.043 15.328,2.927 15.117,2.715C14.905,2.504 14.789,2.22 14.789,1.918C14.789,1.293 15.289,0.793 15.914,0.793Z" style="fill:white;fill-rule:nonzero;"/>
        <path d="M15.914,2.293C16.328,2.293 16.664,2.629 16.664,3.043L16.664,4.543C16.664,4.957 16.328,5.293 15.914,5.293C15.5,5.293 15.164,4.957 15.164,4.543L15.164,3.043C15.164,2.629 15.5,2.293 15.914,2.293Z" style="fill:white;fill-rule:nonzero;"/>
        <path d="M15.914,12.493C11.617,12.493 8.117,15.993 8.117,20.29C8.117,24.59 11.617,28.086 15.914,28.086C20.21,28.086 23.71,24.59 23.71,20.29C23.71,15.993 20.21,12.493 15.914,12.493ZM15.914,13.691C17.664,13.691 19.344,14.388 20.582,15.622C21.819,16.859 22.512,18.54 22.512,20.29C22.512,22.04 21.819,23.72 20.582,24.957C19.344,26.195 17.664,26.891 15.914,26.888C14.164,26.891 12.484,26.195 11.246,24.957C10.007,23.72 9.316,22.04 9.316,20.29C9.316,18.54 10.007,16.859 11.246,15.622C12.484,14.383 14.164,13.691 15.914,13.691Z" style="fill:white;fill-rule:nonzero;"/>
        <path d="M15.914,4.629C7.273,4.629 0.25,11.649 0.25,20.293C0.25,28.938 7.273,35.958 15.914,35.958C24.559,35.958 31.578,28.938 31.578,20.293C31.578,11.649 24.559,4.629 15.914,4.629ZM15.914,5.957C23.839,5.957 30.25,12.368 30.25,20.293C30.25,28.22 23.839,34.629 15.914,34.629C7.987,34.629 1.578,28.22 1.578,20.293C1.578,12.368 7.987,5.957 15.914,5.957Z" style="fill:white;fill-rule:nonzero;"/>
        <path d="M24.605,11.599L18.246,22.199L7.648,28.559L14.007,17.957L24.605,11.599Z" style="fill:rgb(0,182,227);fill-rule:nonzero;"/>
        <path d="M18.246,22.199L7.648,28.559L14.007,17.957L18.246,22.199Z" style="fill:rgb(255,69,0);fill-rule:nonzero;"/>
        <path d="M17.109,21.066C16.523,21.652 15.573,21.652 14.987,21.066C14.402,20.481 14.402,19.531 14.987,18.945C15.573,18.359 16.523,18.359 17.109,18.945C17.694,19.531 17.694,20.481 17.109,21.066Z" style="fill:white;fill-rule:nonzero;"/>
        <path d="M14.785,6.793C14.578,6.797 14.414,6.965 14.414,7.172L14.414,10.165C14.414,10.372 14.582,10.54 14.789,10.54C14.996,10.54 15.164,10.372 15.164,10.165L15.164,7.172C15.168,7.07 15.125,6.973 15.055,6.902C14.984,6.832 14.887,6.793 14.785,6.793ZM17.035,6.793C16.828,6.797 16.664,6.965 16.664,7.172L16.664,10.165C16.664,10.372 16.832,10.54 17.039,10.54C17.246,10.54 17.414,10.372 17.414,10.165L17.414,7.172C17.418,7.07 17.375,6.973 17.305,6.902C17.234,6.832 17.137,6.793 17.035,6.793Z" style="fill:white;"/>
        <path d="M14.766,6.797C14.625,6.806 14.503,6.888 14.444,7.016C14.387,7.141 14.405,7.29 14.487,7.398L16.737,10.388C16.862,10.556 17.098,10.586 17.266,10.461C17.43,10.336 17.464,10.102 17.339,9.938L15.089,6.945C15.016,6.845 14.891,6.786 14.766,6.797ZM15.617,30.043C15.41,30.043 15.242,30.211 15.242,30.418C15.242,30.625 15.41,30.793 15.617,30.793L17.03,30.793C17.237,30.793 17.405,30.625 17.405,30.418C17.405,30.211 17.237,30.043 17.03,30.043L15.617,30.043ZM14.796,33.043C14.589,33.043 14.421,33.211 14.421,33.418C14.421,33.625 14.589,33.793 14.796,33.793L16.285,33.793C16.492,33.793 16.66,33.625 16.66,33.418C16.66,33.211 16.492,33.043 16.285,33.043L14.796,33.043ZM15.546,31.543C15.339,31.543 15.171,31.711 15.171,31.918C15.171,32.125 15.339,32.293 15.546,32.293L16.289,32.293C16.496,32.293 16.664,32.125 16.664,31.918C16.664,31.711 16.496,31.543 16.289,31.543L15.546,31.543Z" style="fill:white;"/>
        <path d="M16.273,31.543C16.066,31.543 15.898,31.711 15.898,31.918C15.898,32.125 16.066,32.293 16.273,32.293C16.5,32.293 16.664,32.458 16.664,32.668C16.664,32.879 16.5,33.043 16.273,33.043C16.066,33.043 15.898,33.211 15.898,33.418C15.898,33.625 16.066,33.793 16.273,33.793C16.894,33.793 17.414,33.29 17.414,32.668C17.414,32.047 16.894,31.543 16.273,31.543Z" style="fill:white;fill-rule:nonzero;"/>
        <path d="M15.559,30.043C14.941,30.043 14.418,30.547 14.418,31.168C14.418,31.79 14.941,32.293 15.559,32.293C15.769,32.293 15.934,32.125 15.934,31.918C15.934,31.711 15.769,31.543 15.559,31.543C15.335,31.543 15.168,31.379 15.168,31.168C15.168,30.957 15.335,30.793 15.559,30.793C15.769,30.793 15.934,30.625 15.934,30.418C15.934,30.211 15.769,30.043 15.559,30.043Z" style="fill:white;fill-rule:nonzero;"/>
        <path d="M2.785,18.047C2.578,18.047 2.414,18.22 2.414,18.427L2.414,21.418C2.414,21.625 2.582,21.793 2.789,21.793C2.996,21.793 3.164,21.625 3.164,21.418L3.164,18.427C3.168,18.324 3.125,18.227 3.055,18.152C2.984,18.082 2.887,18.043 2.785,18.047ZM5.03,18.047C4.828,18.047 4.66,18.22 4.664,18.427L4.664,21.418C4.664,21.625 4.832,21.793 5.039,21.793C5.246,21.793 5.414,21.625 5.414,21.418L5.414,18.427C5.414,18.324 5.375,18.227 5.305,18.152C5.23,18.082 5.132,18.043 5.03,18.047Z" style="fill:white;"/>
        <path d="M3.921,19.845C3.769,19.84 3.628,19.931 3.566,20.066C3.503,20.207 3.535,20.372 3.641,20.481L4.766,21.677C4.905,21.824 5.144,21.832 5.296,21.691C5.448,21.552 5.453,21.313 5.312,21.161L4.187,19.965C4.117,19.891 4.023,19.848 3.921,19.845Z" style="fill:white;"/>
        <path d="M3.894,19.845C3.796,19.852 3.707,19.895 3.641,19.965L2.519,21.161C2.375,21.313 2.382,21.552 2.535,21.691C2.687,21.832 2.921,21.824 3.066,21.677L4.187,20.481C4.296,20.372 4.323,20.204 4.262,20.063C4.194,19.922 4.051,19.836 3.894,19.845ZM26.793,18.043C26.585,18.043 26.418,18.211 26.418,18.418C26.418,18.625 26.585,18.793 26.793,18.793L29.035,18.793C29.242,18.793 29.41,18.625 29.41,18.418C29.41,18.211 29.242,18.043 29.035,18.043L26.793,18.043Z" style="fill:white;"/>
        <path d="M26.777,18.043C26.569,18.047 26.405,18.215 26.41,18.422L26.41,21.418C26.41,21.625 26.578,21.793 26.785,21.793C26.992,21.793 27.16,21.625 27.16,21.418L27.16,18.422C27.16,18.32 27.121,18.223 27.051,18.152C26.977,18.082 26.878,18.043 26.777,18.043Z" style="fill:white;"/>
        <path d="M26.793,19.543C26.585,19.543 26.418,19.711 26.418,19.918C26.418,20.125 26.585,20.293 26.793,20.293L28.434,20.293C28.641,20.293 28.809,20.125 28.809,19.918C28.809,19.711 28.641,19.543 28.434,19.543L26.793,19.543ZM26.793,21.043C26.585,21.043 26.418,21.211 26.418,21.418C26.418,21.625 26.585,21.793 26.793,21.793L29.035,21.793C29.242,21.793 29.41,21.625 29.41,21.418C29.41,21.211 29.242,21.043 29.035,21.043L26.793,21.043Z" style="fill:white;"/>
    </g>
</svg>
