<?xml version="1.0" encoding="UTF-8" standalone="no"?>
<!DOCTYPE svg PUBLIC "-//W3C//DTD SVG 1.1//EN" "http://www.w3.org/Graphics/SVG/1.1/DTD/svg11.dtd">
<svg width="100%" height="100%" viewBox="0 0 152 154" version="1.1" xmlns="http://www.w3.org/2000/svg" xmlns:xlink="http://www.w3.org/1999/xlink" xml:space="preserve" xmlns:serif="http://www.serif.com/" style="fill-rule:evenodd;clip-rule:evenodd;stroke-linejoin:round;stroke-miterlimit:2;">
    <path d="M75.588,0.82C33.844,0.82 0,34.664 0,76.408C0,118.158 33.844,152.003 75.588,152.003C117.338,152.003 151.183,118.159 151.183,76.408C151.183,34.664 117.339,0.82 75.588,0.82" style="fill:rgb(67,65,161);"/>
    <path d="M141.735,76.408C141.735,112.94 112.12,142.549 75.593,142.549C39.063,142.549 9.448,112.94 9.448,76.408C9.448,39.883 39.063,10.268 75.593,10.268C112.12,10.268 141.735,39.883 141.735,76.408" style="fill:rgb(47,104,187);"/>
    <path d="M103.136,84.544L107.484,81.643L107.484,87.44L103.136,84.544ZM89.797,106.008L83.672,80.096C83.641,79.97 83.574,79.856 83.479,79.768L64.115,61.518C67.675,59.729 71.604,58.796 75.588,58.793C89.807,58.793 101.338,70.32 101.338,84.543C101.338,93.508 96.749,101.398 89.798,106.008L89.797,106.008ZM49.84,84.544C49.84,75.574 54.428,67.684 61.381,63.074L67.511,88.986C67.537,89.117 67.605,89.232 67.698,89.315L87.069,107.569C83.507,109.359 79.575,110.292 75.589,110.293C61.37,110.293 49.839,98.763 49.839,84.543L49.84,84.544ZM43.698,87.44L43.698,81.643L48.048,84.543L43.698,87.44ZM73.444,80.825C74.096,80.449 74.836,80.25 75.59,80.25C77.122,80.25 78.542,81.071 79.308,82.398C79.685,83.05 79.883,83.79 79.883,84.543C79.883,86.074 79.063,87.494 77.736,88.258C75.696,89.434 73.051,88.727 71.87,86.69C70.695,84.649 71.405,82.003 73.444,80.825ZM78.491,52.648L75.589,56.998L72.694,52.648L78.491,52.648ZM75.589,50.205C56.626,50.205 41.256,65.58 41.256,84.544C41.256,103.508 56.626,118.877 75.589,118.877C94.559,118.877 109.928,103.507 109.928,84.544C109.928,65.58 94.558,50.205 75.589,50.205" style="fill:rgb(62,186,90);fill-rule:nonzero;"/>
    <path d="M75.588,58.793C71.464,58.793 67.573,59.788 64.115,61.517L83.479,79.768C83.574,79.856 83.641,79.97 83.672,80.096L89.797,106.008C96.749,101.398 101.339,93.508 101.339,84.544C101.339,70.32 89.807,58.794 75.588,58.794M67.697,89.315C67.6,89.229 67.535,89.113 67.51,88.986L61.38,63.075C54.427,67.684 49.839,75.575 49.839,84.544C49.839,98.763 61.369,110.294 75.588,110.294C79.718,110.294 83.609,109.298 87.068,107.569L67.698,89.315M78.49,52.648L72.693,52.648L75.588,56.998L78.49,52.648ZM43.697,87.44L48.047,84.544L43.697,81.643L43.697,87.44ZM103.136,84.544L107.484,87.44L107.484,81.643L103.136,84.544Z" style="fill:white;fill-rule:nonzero;"/>
    <path d="M77.735,88.257C79.062,87.493 79.882,86.073 79.882,84.542C79.882,83.79 79.684,83.05 79.307,82.398C78.541,81.071 77.12,80.25 75.588,80.25C73.233,80.25 71.294,82.189 71.294,84.544C71.294,85.297 71.492,86.038 71.869,86.69C73.05,88.727 75.696,89.433 77.735,88.257M75.588,112.565C69.823,112.565 65.145,117.241 65.145,123.012C65.145,128.779 69.823,133.455 75.588,133.455C81.36,133.455 86.036,128.779 86.036,123.012C86.036,117.242 81.36,112.565 75.588,112.565" style="fill:white;fill-rule:nonzero;"/>
    <path d="M75,119.632L73.385,121.142L72.364,119.648L75.312,117.085L77.145,117.085L77.145,129.184L75,129.184L75,119.632" style="fill:rgb(47,104,187);fill-rule:nonzero;"/>
    <g transform="matrix(0.738892,0,0,0.765697,63.7692,14.8471)">
        <path d="M15.914,0.043C14.878,0.047 14.043,0.883 14.039,1.918C14.039,2.949 14.882,3.793 15.914,3.793C16.944,3.793 17.789,2.949 17.789,1.918C17.789,0.888 16.944,0.043 15.914,0.043ZM15.914,0.793C16.539,0.793 17.039,1.293 17.039,1.918C17.039,2.543 16.539,3.043 15.914,3.043C15.612,3.043 15.328,2.927 15.117,2.715C14.905,2.504 14.789,2.22 14.789,1.918C14.789,1.293 15.289,0.793 15.914,0.793Z" style="fill:white;fill-rule:nonzero;"/>
        <path d="M15.914,2.293C16.328,2.293 16.664,2.629 16.664,3.043L16.664,4.543C16.664,4.957 16.328,5.293 15.914,5.293C15.5,5.293 15.164,4.957 15.164,4.543L15.164,3.043C15.164,2.629 15.5,2.293 15.914,2.293Z" style="fill:white;fill-rule:nonzero;"/>
        <path d="M15.914,12.493C11.617,12.493 8.117,15.993 8.117,20.29C8.117,24.59 11.617,28.086 15.914,28.086C20.21,28.086 23.71,24.59 23.71,20.29C23.71,15.993 20.21,12.493 15.914,12.493ZM15.914,13.691C17.664,13.691 19.344,14.388 20.582,15.622C21.819,16.859 22.512,18.54 22.512,20.29C22.512,22.04 21.819,23.72 20.582,24.957C19.344,26.195 17.664,26.891 15.914,26.888C14.164,26.891 12.484,26.195 11.246,24.957C10.007,23.72 9.316,22.04 9.316,20.29C9.316,18.54 10.007,16.859 11.246,15.622C12.484,14.383 14.164,13.691 15.914,13.691Z" style="fill:white;fill-rule:nonzero;"/>
        <path d="M15.914,4.629C7.273,4.629 0.25,11.649 0.25,20.293C0.25,28.938 7.273,35.958 15.914,35.958C24.559,35.958 31.578,28.938 31.578,20.293C31.578,11.649 24.559,4.629 15.914,4.629ZM15.914,5.957C23.839,5.957 30.25,12.368 30.25,20.293C30.25,28.22 23.839,34.629 15.914,34.629C7.987,34.629 1.578,28.22 1.578,20.293C1.578,12.368 7.987,5.957 15.914,5.957Z" style="fill:white;fill-rule:nonzero;"/>
        <path d="M24.605,11.599L18.246,22.199L7.648,28.559L14.007,17.957L24.605,11.599Z" style="fill:rgb(0,182,227);fill-rule:nonzero;"/>
        <path d="M18.246,22.199L7.648,28.559L14.007,17.957L18.246,22.199Z" style="fill:rgb(255,69,0);fill-rule:nonzero;"/>
        <path d="M17.109,21.066C16.523,21.652 15.573,21.652 14.987,21.066C14.402,20.481 14.402,19.531 14.987,18.945C15.573,18.359 16.523,18.359 17.109,18.945C17.694,19.531 17.694,20.481 17.109,21.066Z" style="fill:white;fill-rule:nonzero;"/>
        <path d="M14.785,6.793C14.578,6.797 14.414,6.965 14.414,7.172L14.414,10.165C14.414,10.372 14.582,10.54 14.789,10.54C14.996,10.54 15.164,10.372 15.164,10.165L15.164,7.172C15.168,7.07 15.125,6.973 15.055,6.902C14.984,6.832 14.887,6.793 14.785,6.793ZM17.035,6.793C16.828,6.797 16.664,6.965 16.664,7.172L16.664,10.165C16.664,10.372 16.832,10.54 17.039,10.54C17.246,10.54 17.414,10.372 17.414,10.165L17.414,7.172C17.418,7.07 17.375,6.973 17.305,6.902C17.234,6.832 17.137,6.793 17.035,6.793Z" style="fill:white;"/>
        <path d="M14.766,6.797C14.625,6.806 14.503,6.888 14.444,7.016C14.387,7.141 14.405,7.29 14.487,7.398L16.737,10.388C16.862,10.556 17.098,10.586 17.266,10.461C17.43,10.336 17.464,10.102 17.339,9.938L15.089,6.945C15.016,6.845 14.891,6.786 14.766,6.797ZM15.617,30.043C15.41,30.043 15.242,30.211 15.242,30.418C15.242,30.625 15.41,30.793 15.617,30.793L17.03,30.793C17.237,30.793 17.405,30.625 17.405,30.418C17.405,30.211 17.237,30.043 17.03,30.043L15.617,30.043ZM14.796,33.043C14.589,33.043 14.421,33.211 14.421,33.418C14.421,33.625 14.589,33.793 14.796,33.793L16.285,33.793C16.492,33.793 16.66,33.625 16.66,33.418C16.66,33.211 16.492,33.043 16.285,33.043L14.796,33.043ZM15.546,31.543C15.339,31.543 15.171,31.711 15.171,31.918C15.171,32.125 15.339,32.293 15.546,32.293L16.289,32.293C16.496,32.293 16.664,32.125 16.664,31.918C16.664,31.711 16.496,31.543 16.289,31.543L15.546,31.543Z" style="fill:white;"/>
        <path d="M16.273,31.543C16.066,31.543 15.898,31.711 15.898,31.918C15.898,32.125 16.066,32.293 16.273,32.293C16.5,32.293 16.664,32.458 16.664,32.668C16.664,32.879 16.5,33.043 16.273,33.043C16.066,33.043 15.898,33.211 15.898,33.418C15.898,33.625 16.066,33.793 16.273,33.793C16.894,33.793 17.414,33.29 17.414,32.668C17.414,32.047 16.894,31.543 16.273,31.543Z" style="fill:white;fill-rule:nonzero;"/>
        <path d="M15.559,30.043C14.941,30.043 14.418,30.547 14.418,31.168C14.418,31.79 14.941,32.293 15.559,32.293C15.769,32.293 15.934,32.125 15.934,31.918C15.934,31.711 15.769,31.543 15.559,31.543C15.335,31.543 15.168,31.379 15.168,31.168C15.168,30.957 15.335,30.793 15.559,30.793C15.769,30.793 15.934,30.625 15.934,30.418C15.934,30.211 15.769,30.043 15.559,30.043Z" style="fill:white;fill-rule:nonzero;"/>
        <path d="M2.785,18.047C2.578,18.047 2.414,18.22 2.414,18.427L2.414,21.418C2.414,21.625 2.582,21.793 2.789,21.793C2.996,21.793 3.164,21.625 3.164,21.418L3.164,18.427C3.168,18.324 3.125,18.227 3.055,18.152C2.984,18.082 2.887,18.043 2.785,18.047ZM5.03,18.047C4.828,18.047 4.66,18.22 4.664,18.427L4.664,21.418C4.664,21.625 4.832,21.793 5.039,21.793C5.246,21.793 5.414,21.625 5.414,21.418L5.414,18.427C5.414,18.324 5.375,18.227 5.305,18.152C5.23,18.082 5.132,18.043 5.03,18.047Z" style="fill:white;"/>
        <path d="M3.921,19.845C3.769,19.84 3.628,19.931 3.566,20.066C3.503,20.207 3.535,20.372 3.641,20.481L4.766,21.677C4.905,21.824 5.144,21.832 5.296,21.691C5.448,21.552 5.453,21.313 5.312,21.161L4.187,19.965C4.117,19.891 4.023,19.848 3.921,19.845Z" style="fill:white;"/>
        <path d="M3.894,19.845C3.796,19.852 3.707,19.895 3.641,19.965L2.519,21.161C2.375,21.313 2.382,21.552 2.535,21.691C2.687,21.832 2.921,21.824 3.066,21.677L4.187,20.481C4.296,20.372 4.323,20.204 4.262,20.063C4.194,19.922 4.051,19.836 3.894,19.845ZM26.793,18.043C26.585,18.043 26.418,18.211 26.418,18.418C26.418,18.625 26.585,18.793 26.793,18.793L29.035,18.793C29.242,18.793 29.41,18.625 29.41,18.418C29.41,18.211 29.242,18.043 29.035,18.043L26.793,18.043Z" style="fill:white;"/>
        <path d="M26.777,18.043C26.569,18.047 26.405,18.215 26.41,18.422L26.41,21.418C26.41,21.625 26.578,21.793 26.785,21.793C26.992,21.793 27.16,21.625 27.16,21.418L27.16,18.422C27.16,18.32 27.121,18.223 27.051,18.152C26.977,18.082 26.878,18.043 26.777,18.043Z" style="fill:white;"/>
        <path d="M26.793,19.543C26.585,19.543 26.418,19.711 26.418,19.918C26.418,20.125 26.585,20.293 26.793,20.293L28.434,20.293C28.641,20.293 28.809,20.125 28.809,19.918C28.809,19.711 28.641,19.543 28.434,19.543L26.793,19.543ZM26.793,21.043C26.585,21.043 26.418,21.211 26.418,21.418C26.418,21.625 26.585,21.793 26.793,21.793L29.035,21.793C29.242,21.793 29.41,21.625 29.41,21.418C29.41,21.211 29.242,21.043 29.035,21.043L26.793,21.043Z" style="fill:white;"/>
    </g>
</svg>
