<svg xmlns="http://www.w3.org/2000/svg" xml:space="preserve" style="fill-rule:evenodd;clip-rule:evenodd;stroke-linejoin:round;stroke-miterlimit:2" viewBox="0 0 102 28">
  <path d="M15.914.043a1.88 1.88 0 0 0-1.875 1.875 1.88 1.88 0 0 0 1.875 1.875c1.03 0 1.875-.844 1.875-1.875 0-1.03-.845-1.875-1.875-1.875Zm0 .75c.625 0 1.125.5 1.125 1.125s-.5 1.125-1.125 1.125a1.117 1.117 0 0 1-1.125-1.125c0-.625.5-1.125 1.125-1.125Z" style="fill-rule:nonzero" transform="matrix(.7389 0 0 .7657 -.185 -.033)"/>
  <path d="M15.914 2.293a.75.75 0 0 1 .75.75v1.5a.75.75 0 0 1-1.5 0v-1.5a.75.75 0 0 1 .75-.75Z" style="fill-rule:nonzero" transform="matrix(.7389 0 0 .7657 -.185 -.033)"/>
  <path d="M15.914 12.493c-4.297 0-7.797 3.5-7.797 7.797 0 4.3 3.5 7.796 7.797 7.796 4.296 0 7.796-3.496 7.796-7.796 0-4.297-3.5-7.797-7.796-7.797Zm0 1.198c1.75 0 3.43.697 4.668 1.931a6.602 6.602 0 0 1 1.93 4.668 6.588 6.588 0 0 1-6.598 6.598 6.588 6.588 0 0 1-6.598-6.598 6.594 6.594 0 0 1 6.598-6.599Z" style="fill-rule:nonzero" transform="matrix(.7389 0 0 .7657 -.185 -.033)"/>
  <path d="M15.914 4.629C7.273 4.629.25 11.649.25 20.293c0 8.645 7.023 15.665 15.664 15.665 8.645 0 15.664-7.02 15.664-15.665 0-8.644-7.019-15.664-15.664-15.664Zm0 1.328c7.925 0 14.336 6.411 14.336 14.336 0 7.927-6.411 14.336-14.336 14.336-7.927 0-14.336-6.409-14.336-14.336 0-7.925 6.409-14.336 14.336-14.336Z" style="fill-rule:nonzero" transform="matrix(.7389 0 0 .7657 -.185 -.033)"/>
  <path d="m24.605 11.599-6.359 10.6-10.598 6.36 6.359-10.602 10.598-6.358Z" style="fill:#00b6e3;fill-rule:nonzero" transform="matrix(.7389 0 0 .7657 -.185 -.033)"/>
  <path d="m18.246 22.199-10.598 6.36 6.359-10.602 4.239 4.242Z" style="fill:#ff4500;fill-rule:nonzero" transform="matrix(.7389 0 0 .7657 -.185 -.033)"/>
  <path d="M17.109 21.066a1.5 1.5 0 1 1-2.122-2.122 1.5 1.5 0 0 1 2.122 2.122Z" style="fill:#fff;fill-rule:nonzero" transform="matrix(.7389 0 0 .7657 -.185 -.033)"/>
  <path d="M10.74 5.168a.285.285 0 0 0-.274.29V7.75c0 .159.124.288.277.288a.282.282 0 0 0 .277-.288V5.46a.278.278 0 0 0-.28-.29Zm1.662 0a.285.285 0 0 0-.274.29V7.75c0 .159.124.288.277.288a.282.282 0 0 0 .277-.288V5.46a.278.278 0 0 0-.28-.29Z"/>
  <path d="M10.726 5.172a.279.279 0 0 0-.238.167.298.298 0 0 0 .032.293l1.662 2.29a.272.272 0 0 0 .391.055.293.293 0 0 0 .054-.4l-1.663-2.292a.267.267 0 0 0-.238-.113Zm.629 17.799a.282.282 0 0 0-.278.287c0 .159.125.287.278.287h1.044a.282.282 0 0 0 .277-.287.282.282 0 0 0-.277-.287h-1.044Zm-.607 2.297a.282.282 0 0 0-.277.287c0 .159.124.287.277.287h1.1a.282.282 0 0 0 .277-.287.282.282 0 0 0-.277-.287h-1.1Zm.554-1.149a.282.282 0 0 0-.277.288c0 .158.124.287.277.287h.55a.282.282 0 0 0 .276-.287.282.282 0 0 0-.277-.288h-.549Z"/>
  <path d="M16.273 31.543a.375.375 0 0 0 0 .75c.227 0 .391.165.391.375 0 .211-.164.375-.391.375a.375.375 0 0 0 0 .75c.621 0 1.141-.503 1.141-1.125a1.14 1.14 0 0 0-1.141-1.125Z" style="fill-rule:nonzero" transform="matrix(.7389 0 0 .7657 -.185 -.033)"/>
  <path d="M15.559 30.043c-.618 0-1.141.504-1.141 1.125a1.14 1.14 0 0 0 1.141 1.125c.21 0 .375-.168.375-.375a.373.373 0 0 0-.375-.375.376.376 0 0 1-.391-.375c0-.211.167-.375.391-.375.21 0 .375-.168.375-.375a.373.373 0 0 0-.375-.375Z" style="fill-rule:nonzero" transform="matrix(.7389 0 0 .7657 -.185 -.033)"/>
  <path d="M1.873 13.786c-.153 0-.274.132-.274.29v2.29c0 .16.124.288.277.288a.282.282 0 0 0 .277-.287v-2.29a.3.3 0 0 0-.08-.211.264.264 0 0 0-.2-.08Zm1.659 0c-.15 0-.273.132-.27.29v2.29c0 .16.124.288.277.288a.282.282 0 0 0 .277-.287v-2.29a.313.313 0 0 0-.08-.211.276.276 0 0 0-.204-.08Z"/>
  <path d="M2.712 15.162a.281.281 0 0 0-.262.17.296.296 0 0 0 .056.317l.83.916c.104.113.28.119.392.01a.294.294 0 0 0 .012-.405l-.831-.916a.276.276 0 0 0-.197-.092Z"/>
  <path d="M2.693 15.162a.28.28 0 0 0-.187.092l-.83.916a.291.291 0 0 0 .012.406.274.274 0 0 0 .393-.01l.828-.917c.08-.083.1-.212.055-.32a.281.281 0 0 0-.271-.167Zm16.92-1.38a.282.282 0 0 0-.278.288c0 .158.124.287.277.287h1.657a.282.282 0 0 0 .277-.287.282.282 0 0 0-.277-.287h-1.657Z"/>
  <path d="M19.6 13.783a.28.28 0 0 0-.27.29v2.294c0 .158.124.287.276.287a.282.282 0 0 0 .278-.287v-2.294a.3.3 0 0 0-.081-.207.29.29 0 0 0-.202-.083Z"/>
  <path d="M19.612 14.931a.282.282 0 0 0-.277.287c0 .159.124.287.277.287h1.213a.282.282 0 0 0 .277-.287.282.282 0 0 0-.277-.287h-1.213Zm0 1.149a.282.282 0 0 0-.277.287c0 .158.124.287.277.287h1.657a.282.282 0 0 0 .277-.287.282.282 0 0 0-.277-.287h-1.657Z"/>
  <path d="M.396.012a.342.342 0 0 1-.361-.361c0-.071.015-.134.046-.188a.332.332 0 0 1 .127-.128.36.36 0 0 1 .185-.046.337.337 0 0 1 .313.174.372.372 0 0 1 .046.188.344.344 0 0 1-.356.361Zm0-.125c.042 0 .08-.01.112-.03a.223.223 0 0 0 .077-.084.267.267 0 0 0 .027-.122.257.257 0 0 0-.028-.123.209.209 0 0 0-.077-.084.216.216 0 0 0-.114-.03c-.042 0-.08.01-.113.03a.209.209 0 0 0-.077.084.253.253 0 0 0-.028.122c0 .047.009.088.028.123a.225.225 0 0 0 .078.084c.034.02.072.03.115.03Z" style="fill:#490499;fill-rule:nonzero" transform="matrix(15.75926 0 0 15.7593 24.392 11.519)"/>
  <path d="M.057 0v-.7h.132v.607L.182 0H.057ZM.34.012A.18.18 0 0 1 .233-.02a.196.196 0 0 1-.066-.091.393.393 0 0 1-.023-.139c0-.054.008-.1.023-.139A.196.196 0 0 1 .233-.48.18.18 0 0 1 .34-.512c.046 0 .086.011.12.032a.218.218 0 0 1 .078.091.313.313 0 0 1 .028.139.32.32 0 0 1-.028.139.218.218 0 0 1-.078.091.224.224 0 0 1-.12.032ZM.306-.109a.11.11 0 0 0 .063-.018.126.126 0 0 0 .044-.05.157.157 0 0 0 .016-.073.17.17 0 0 0-.015-.073.129.129 0 0 0-.043-.049.117.117 0 0 0-.125 0 .119.119 0 0 0-.042.049.17.17 0 0 0-.015.073.17.17 0 0 0 .015.073c.01.021.024.038.041.05a.107.107 0 0 0 .061.018Z" style="fill:#490499;fill-rule:nonzero" transform="matrix(15.75926 0 0 15.7593 36.558 11.519)"/>
  <path d="M.359 0 .355-.101v-.152A.286.286 0 0 0 .346-.33a.117.117 0 0 0-.03-.05.089.089 0 0 0-.056-.017.124.124 0 0 0-.058.014.12.12 0 0 0-.044.043L.042-.38a.21.21 0 0 1 .112-.113.275.275 0 0 1 .106-.019c.051 0 .093.01.127.029a.184.184 0 0 1 .075.081.285.285 0 0 1 .023.125L.482 0H.359Zm-.14.012a.213.213 0 0 1-.139-.04.137.137 0 0 1-.05-.113c0-.053.018-.094.054-.121a.241.241 0 0 1 .15-.04h.127v.098H.28a.191.191 0 0 0-.09.015.05.05 0 0 0-.025.044c0 .015.007.026.02.034a.099.099 0 0 0 .056.013A.107.107 0 0 0 .3-.114a.11.11 0 0 0 .04-.04.094.094 0 0 0 .015-.05h.032a.287.287 0 0 1-.038.159C.323-.007.28.012.219.012Z" style="fill:#490499;fill-rule:nonzero" transform="matrix(15.75926 0 0 15.7593 45.73 11.519)"/>
  <path d="M.057 0v-.5h.124l.008.092V0H.057Zm.331 0v-.256H.52V0H.388Zm0-.256a.21.21 0 0 0-.011-.079.079.079 0 0 0-.033-.04.088.088 0 0 0-.049-.013c-.034-.001-.06.009-.079.031-.018.022-.027.053-.027.095H.145c0-.053.008-.098.023-.136a.197.197 0 0 1 .066-.085.178.178 0 0 1 .1-.029c.039 0 .073.008.101.024a.154.154 0 0 1 .064.075.321.321 0 0 1 .021.13v.027H.388Z" style="fill:#490499;fill-rule:nonzero" transform="matrix(15.75926 0 0 15.7593 53.625 11.519)"/>
  <path d="M.244.012a.266.266 0 0 1-.09-.015.2.2 0 0 1-.124-.109l.113-.052c.01.016.024.03.041.041a.101.101 0 0 0 .06.018.103.103 0 0 0 .051-.01C.307-.121.313-.13.313-.142a.03.03 0 0 0-.014-.027.182.182 0 0 0-.04-.014L.213-.195A.24.24 0 0 1 .1-.256a.128.128 0 0 1-.042-.095c0-.051.017-.091.05-.119.032-.028.079-.042.14-.042a.28.28 0 0 1 .088.014c.027.009.05.022.069.039a.132.132 0 0 1 .04.058l-.109.05C.331-.364.32-.375.302-.384a.132.132 0 0 0-.054-.012.067.067 0 0 0-.041.011.04.04 0 0 0-.015.032c0 .009.005.016.014.021a.129.129 0 0 0 .04.015l.065.016a.188.188 0 0 1 .079.038.182.182 0 0 1 .043.059.166.166 0 0 1 .013.064.13.13 0 0 1-.026.079.18.18 0 0 1-.072.054.264.264 0 0 1-.104.019Z" style="fill:#490499;fill-rule:nonzero" transform="matrix(15.75926 0 0 15.7593 62.356 11.519)"/>
  <path d="M.058 0v-.7H.19V0H.058ZM.39 0v-.256h.132V0H.39Zm0-.256a.208.208 0 0 0-.012-.079.079.079 0 0 0-.033-.04.088.088 0 0 0-.049-.013c-.034-.001-.06.009-.078.031C.199-.335.19-.304.19-.262H.146c0-.053.008-.098.024-.136a.184.184 0 0 1 .066-.085.172.172 0 0 1 .099-.029c.04 0 .074.008.101.024A.154.154 0 0 1 .5-.413a.32.32 0 0 1 .022.13v.027H.39Z" style="fill:#490499;fill-rule:nonzero" transform="matrix(15.75926 0 0 15.7593 69.7 11.519)"/>
  <path d="M.065 0v-.5h.132V0H.065Zm.066-.581a.07.07 0 0 1-.053-.023.074.074 0 0 1 0-.107.077.077 0 0 1 .053-.022.08.08 0 0 1 .054.022.073.073 0 0 1 .022.054.071.071 0 0 1-.022.053.072.072 0 0 1-.054.023Z" style="fill:#490499;fill-rule:nonzero" transform="matrix(15.75926 0 0 15.7593 78.43 11.519)"/>
  <path d="M.15-.263a.26.26 0 0 1 .031-.134.221.221 0 0 1 .082-.079.222.222 0 0 1 .103-.026v.128a.298.298 0 0 0-.086.011.141.141 0 0 0-.066.036.086.086 0 0 0-.025.064H.15ZM.057 0v-.5h.132V0H.057Z" style="fill:#490499;fill-rule:nonzero" transform="matrix(15.75926 0 0 15.7593 81.897 11.519)"/>
  <path d="M.283.012a.248.248 0 0 1-.131-.034.232.232 0 0 1-.089-.092A.274.274 0 0 1 .03-.25c0-.051.011-.097.034-.136A.249.249 0 0 1 .29-.512a.227.227 0 0 1 .211.135.366.366 0 0 1 .033.162H.155l.012-.012c0 .025.006.046.019.064a.108.108 0 0 0 .048.042c.019.01.04.015.063.015.027 0 .05-.006.067-.018a.11.11 0 0 0 .04-.045l.118.046a.229.229 0 0 1-.134.119.313.313 0 0 1-.105.016ZM.174-.301.162-.313h.241l-.011.012a.095.095 0 0 0-.017-.058.104.104 0 0 0-.041-.031.125.125 0 0 0-.141.031.085.085 0 0 0-.019.058Z" style="fill:#490499;fill-rule:nonzero" transform="matrix(15.75926 0 0 15.7593 86.972 11.519)"/>
  <path d="M.298.012a.275.275 0 0 1-.139-.034A.247.247 0 0 1 .03-.25a.254.254 0 0 1 .266-.262c.05 0 .096.012.137.037.041.025.071.06.09.107l-.124.044A.1.1 0 0 0 .356-.37.126.126 0 0 0 .29-.388a.126.126 0 0 0-.065.017.123.123 0 0 0-.044.049.153.153 0 0 0-.016.072c0 .027.005.051.016.072a.13.13 0 0 0 .045.048.121.121 0 0 0 .066.018.118.118 0 0 0 .109-.069l.125.044a.235.235 0 0 1-.091.11.251.251 0 0 1-.137.039Z" style="fill:#490499;fill-rule:nonzero" transform="matrix(15.75926 0 0 15.7593 24.392 27.278)"/>
  <path d="M.387 0 .379-.092V-.5h.132V0H.387ZM.048-.244V-.5H.18v.256H.048Zm.132 0c0 .033.004.06.012.079a.073.073 0 0 0 .032.04.092.092 0 0 0 .049.013c.035.001.061-.01.079-.032.018-.021.027-.053.027-.094h.045A.348.348 0 0 1 .4-.102a.197.197 0 0 1-.066.085.172.172 0 0 1-.099.029.203.203 0 0 1-.102-.024.147.147 0 0 1-.063-.075.323.323 0 0 1-.022-.13v-.027H.18Z" style="fill:#490499;fill-rule:nonzero" transform="matrix(15.75926 0 0 15.7593 32.886 27.278)"/>
  <path d="M.057 0v-.7h.132v.607L.182 0H.057ZM.34.012A.18.18 0 0 1 .233-.02a.196.196 0 0 1-.066-.091.393.393 0 0 1-.023-.139c0-.054.008-.1.023-.139A.196.196 0 0 1 .233-.48.18.18 0 0 1 .34-.512c.046 0 .086.011.12.032a.218.218 0 0 1 .078.091.313.313 0 0 1 .028.139.32.32 0 0 1-.028.139.218.218 0 0 1-.078.091.224.224 0 0 1-.12.032ZM.306-.109a.11.11 0 0 0 .063-.018.126.126 0 0 0 .044-.05.157.157 0 0 0 .016-.073.17.17 0 0 0-.015-.073.129.129 0 0 0-.043-.049.117.117 0 0 0-.125 0 .119.119 0 0 0-.042.049.17.17 0 0 0-.015.073.17.17 0 0 0 .015.073c.01.021.024.038.041.05a.107.107 0 0 0 .061.018Z" style="fill:#490499;fill-rule:nonzero" transform="matrix(15.75926 0 0 15.7593 41.617 27.278)"/>
  <path d="M.244.012a.266.266 0 0 1-.09-.015.2.2 0 0 1-.124-.109l.113-.052c.01.016.024.03.041.041a.101.101 0 0 0 .06.018.103.103 0 0 0 .051-.01C.307-.121.313-.13.313-.142a.03.03 0 0 0-.014-.027.182.182 0 0 0-.04-.014L.213-.195A.24.24 0 0 1 .1-.256a.128.128 0 0 1-.042-.095c0-.051.017-.091.05-.119.032-.028.079-.042.14-.042a.28.28 0 0 1 .088.014c.027.009.05.022.069.039a.132.132 0 0 1 .04.058l-.109.05C.331-.364.32-.375.302-.384a.132.132 0 0 0-.054-.012.067.067 0 0 0-.041.011.04.04 0 0 0-.015.032c0 .009.005.016.014.021a.129.129 0 0 0 .04.015l.065.016a.188.188 0 0 1 .079.038.182.182 0 0 1 .043.059.166.166 0 0 1 .013.064.13.13 0 0 1-.026.079.18.18 0 0 1-.072.054.264.264 0 0 1-.104.019Z" style="fill:#490499;fill-rule:nonzero" transform="matrix(15.75926 0 0 15.7593 54.729 27.278)"/>
  <path d="M.298.012a.275.275 0 0 1-.139-.034A.247.247 0 0 1 .03-.25a.254.254 0 0 1 .266-.262c.05 0 .096.012.137.037.041.025.071.06.09.107l-.124.044A.1.1 0 0 0 .356-.37.126.126 0 0 0 .29-.388a.126.126 0 0 0-.065.017.123.123 0 0 0-.044.049.153.153 0 0 0-.016.072c0 .027.005.051.016.072a.13.13 0 0 0 .045.048.121.121 0 0 0 .066.018.118.118 0 0 0 .109-.069l.125.044a.235.235 0 0 1-.091.11.251.251 0 0 1-.137.039Z" style="fill:#490499;fill-rule:nonzero" transform="matrix(15.75926 0 0 15.7593 62.072 27.278)"/>
  <path d="M.292.012a.267.267 0 0 1-.136-.034.24.24 0 0 1-.092-.092A.264.264 0 0 1 .03-.25a.249.249 0 0 1 .26-.262.249.249 0 0 1 .261.262.274.274 0 0 1-.033.136.237.237 0 0 1-.091.092.26.26 0 0 1-.135.034Zm0-.122A.118.118 0 0 0 .4-.177.154.154 0 0 0 .416-.25.154.154 0 0 0 .4-.323a.116.116 0 0 0-.044-.049A.121.121 0 0 0 .29-.39a.12.12 0 0 0-.109.067.154.154 0 0 0-.016.073c0 .027.005.052.016.073a.121.121 0 0 0 .111.067Z" style="fill:#490499;fill-rule:nonzero" transform="matrix(15.75926 0 0 15.7593 70.567 27.278)"/>
  <path d="M.387 0 .379-.092V-.5h.132V0H.387ZM.048-.244V-.5H.18v.256H.048Zm.132 0c0 .033.004.06.012.079a.073.073 0 0 0 .032.04.092.092 0 0 0 .049.013c.035.001.061-.01.079-.032.018-.021.027-.053.027-.094h.045A.348.348 0 0 1 .4-.102a.197.197 0 0 1-.066.085.172.172 0 0 1-.099.029.203.203 0 0 1-.102-.024.147.147 0 0 1-.063-.075.323.323 0 0 1-.022-.13v-.027H.18Z" style="fill:#490499;fill-rule:nonzero" transform="matrix(15.75926 0 0 15.7593 79.691 27.278)"/>
  <path d="M.263.012C.208.012.166-.002.137-.029.109-.056.095-.095.095-.146v-.51h.132v.481c0 .021.004.038.014.049.009.01.023.016.041.016a.063.063 0 0 0 .022-.005.12.12 0 0 0 .025-.013l.046.099a.235.235 0 0 1-.054.03.17.17 0 0 1-.058.011Zm-.249-.4V-.5h.338v.112H.014Z" style="fill:#490499;fill-rule:nonzero" transform="matrix(15.75926 0 0 15.7593 88.422 27.278)"/>
  <path d="M.244.012a.266.266 0 0 1-.09-.015.2.2 0 0 1-.124-.109l.113-.052c.01.016.024.03.041.041a.101.101 0 0 0 .06.018.103.103 0 0 0 .051-.01C.307-.121.313-.13.313-.142a.03.03 0 0 0-.014-.027.182.182 0 0 0-.04-.014L.213-.195A.24.24 0 0 1 .1-.256a.128.128 0 0 1-.042-.095c0-.051.017-.091.05-.119.032-.028.079-.042.14-.042a.28.28 0 0 1 .088.014c.027.009.05.022.069.039a.132.132 0 0 1 .04.058l-.109.05C.331-.364.32-.375.302-.384a.132.132 0 0 0-.054-.012.067.067 0 0 0-.041.011.04.04 0 0 0-.015.032c0 .009.005.016.014.021a.129.129 0 0 0 .04.015l.065.016a.188.188 0 0 1 .079.038.182.182 0 0 1 .043.059.166.166 0 0 1 .013.064.13.13 0 0 1-.026.079.18.18 0 0 1-.072.054.264.264 0 0 1-.104.019Z" style="fill:#490499;fill-rule:nonzero" transform="matrix(15.75926 0 0 15.7593 94.221 27.278)"/>
</svg>
