<?xml version="1.0" encoding="UTF-8" standalone="no"?>
<!DOCTYPE svg PUBLIC "-//W3C//DTD SVG 1.1//EN" "http://www.w3.org/Graphics/SVG/1.1/DTD/svg11.dtd">
<svg width="100%" height="100%" viewBox="0 0 152 154" version="1.1" xmlns="http://www.w3.org/2000/svg" xmlns:xlink="http://www.w3.org/1999/xlink" xml:space="preserve" xmlns:serif="http://www.serif.com/" style="fill-rule:evenodd;clip-rule:evenodd;stroke-linejoin:round;stroke-miterlimit:2;">
    <path d="M75.588,0.82C33.844,0.82 0,34.664 0,76.408C0,118.158 33.844,152.003 75.588,152.003C117.338,152.003 151.183,118.159 151.183,76.408C151.183,34.664 117.339,0.82 75.588,0.82" style="fill:rgb(238,42,34);"/>
    <path d="M141.735,76.408C141.735,112.94 112.12,142.549 75.593,142.549C39.063,142.549 9.448,112.94 9.448,76.408C9.448,39.883 39.063,10.268 75.593,10.268C112.12,10.268 141.735,39.883 141.735,76.408" style="fill:rgb(37,72,127);"/>
    <path d="M64.193,87.908C66.729,88.914 68.745,87.82 71.5,88.258C71.579,87.138 70.885,86.784 71.15,85.471C68.921,85.159 68.021,84.528 66.281,84.429C66.083,86.091 64.49,86.351 64.193,87.908ZM62.448,86.169C63.453,85.664 63.656,84.361 64.536,83.732C62.14,82.362 60.402,86.471 58.62,87.908C58.427,87.903 58.224,88.19 58.62,88.258L61.407,88.258C61.104,86.908 62.255,87.018 62.447,86.169L62.448,86.169ZM34.255,89.997C33.547,89.424 32.453,89.247 32.167,88.257C32.912,87.236 33.207,87.929 34.604,87.56C37.954,88.565 53.651,87.684 55.834,88.257C57.574,85.471 60.516,83.888 62.448,81.293C63.688,81.763 68.286,82.851 71.849,84.08C73.541,81.372 79.385,82.127 79.156,86.17C87.156,90.055 100.219,87.653 109.786,88.257C110.88,85.284 111.849,82.195 113.276,79.555C113.932,79.476 114.041,79.945 114.666,79.898C118.656,81.143 121.833,82.268 125.803,84.08C123.323,84.888 118.286,84.867 116.057,84.773C114.251,84.919 111.115,84.741 110.49,88.257C112.161,88.331 113.167,88.523 114.317,88.257C114.62,89.487 114.36,89.112 114.667,90.345L114.317,90.345C114.297,91.675 113.891,92.595 114.317,93.476C113.183,98.195 105.917,95.757 101.437,97.653L101.437,97.304C101.953,96.2 103.303,95.924 103.875,94.872C104.469,94.888 104.776,94.612 104.917,94.175C100.136,94.986 94.563,97.32 90.645,97.305C90.891,96.273 92.645,96.752 92.735,95.565C91.416,95.877 89.786,95.867 88.557,96.263C87.781,95.143 90.281,94.898 90.99,94.175C90.188,94.06 89.656,94.227 89.25,94.523C88.172,94.06 87.317,95.555 86.817,94.523C87.229,93.773 88.323,93.71 88.902,93.127C85.807,93.393 83.349,94.304 79.855,94.175C79.995,93.336 79.219,93.419 79.505,92.435C76.552,90.252 71.828,91.727 71.151,94.872C71.391,95.924 72.547,97.862 71.849,98.7C70.38,98.424 70.329,96.736 69.063,96.263C64.765,97.727 56.093,98.175 50.265,100.091C46.786,97.361 39.395,93.304 34.255,89.997" style="fill:rgb(247,239,39);"/>
    <path d="M79.068,114.085C82.902,113.747 85.88,112.544 86.031,108.517C81.255,109.435 77.765,111.627 73.495,113.044C72.672,113.377 71.786,113.654 72.105,115.132C73.156,115.612 73.349,114.965 74.891,115.132L75.241,115.132C75.817,115.46 78.479,114.898 79.068,114.085ZM64.448,113.736C65.167,113.533 66.735,114.169 66.885,113.393C63.333,112.528 63.917,109.179 64.098,107.471C60.432,107.371 55.224,108.831 52.265,109.216C51.792,109.273 49.598,108.523 50.527,109.56C52.109,110.82 55.755,111.981 59.573,112.695C60.749,113.486 62.516,113.7 64.448,113.736ZM118.755,114.086C117.208,119.883 111.792,124.746 103.088,124.528C99.208,124.372 96.958,120.232 93.338,122.788C90.021,125.132 84.631,126.538 80.115,123.138L79.765,123.138C78.921,122.356 77.86,121.798 76.979,121.049C73.208,123.924 66.714,123.632 63.057,121.049C59.255,123.284 54.943,125.008 50.177,126.273C50.12,125.861 49.541,125.976 49.131,125.924C49.063,125.643 48.781,125.574 48.781,125.227C49.083,123.757 47.339,121.341 46.693,119.653C48.781,119.309 49.812,117.898 51.568,117.221C46.978,116.815 46.083,112.721 45.303,108.517L45.303,108.169C46.531,107.659 50.479,106.899 58.183,106.429C64.421,108.445 69.51,101.085 73.151,106.429C73.937,107.585 74.412,109.055 74.891,110.607C79.421,108.798 82.625,107.793 86.729,105.732C85.937,105.012 85.64,103.804 85.333,102.602C87.453,104.549 92.62,100.508 92.645,106.08C92.021,106.965 91.208,107.659 91.251,109.216C98.844,110.736 105.177,112.232 111.093,114.784C105.213,114.008 93.776,111.445 92.297,111.648C91.109,111.435 88.771,110.549 87.771,111.304C90.437,112.232 91.735,114.528 92.99,116.872C94.047,117.102 108.104,116.768 118.755,114.085" style="fill:white;"/>
    <path d="M74.541,99.121C74.547,98.195 74.412,97.131 74.891,96.684C76.881,96.934 78,96.309 79.765,96.336C80.484,98.883 80.755,101.591 82.547,103.643C81,104.398 79.588,105.56 77.323,105.732C76.281,104.69 75.553,103.331 73.843,102.951C73.573,102.179 71.693,103.012 72.104,101.555C73.208,101.612 73.5,101.241 74.541,100.856L74.541,99.121M63.828,48.903C67.578,57.003 72.245,66.888 75.625,76.424C76.407,77.279 78.541,76.784 79.557,77.403C78.792,81.043 73.183,80.845 72.349,77.403C72.145,76.112 74.145,77.023 74.969,76.753C71.281,75.091 67.312,73.705 63.5,72.169C63.953,67.585 63.803,57.408 63.828,48.903M79.984,49.419C83.729,57.517 88.396,67.399 91.781,76.935C92.563,77.788 94.697,77.293 95.714,77.919C94.943,81.559 89.334,81.356 88.5,77.919C88.303,76.627 90.303,77.533 91.125,77.263C87.432,75.602 83.469,74.216 79.656,72.679C80.109,68.102 79.959,57.924 79.984,49.419M47.36,49.648C50.984,57.486 55.505,67.055 58.776,76.284C59.536,77.112 61.598,76.632 62.584,77.236C61.839,80.757 56.412,80.566 55.604,77.236C55.412,75.981 57.349,76.861 58.145,76.602C54.568,74.992 50.735,73.653 47.047,72.164C47.479,67.732 47.333,57.883 47.36,49.648" style="fill:white;"/>
    <g transform="matrix(0.738892,0,0,0.765697,64.1777,15.5226)">
        <path d="M15.914,0.043C14.878,0.047 14.043,0.883 14.039,1.918C14.039,2.949 14.882,3.793 15.914,3.793C16.944,3.793 17.789,2.949 17.789,1.918C17.789,0.888 16.944,0.043 15.914,0.043ZM15.914,0.793C16.539,0.793 17.039,1.293 17.039,1.918C17.039,2.543 16.539,3.043 15.914,3.043C15.612,3.043 15.328,2.927 15.117,2.715C14.905,2.504 14.789,2.22 14.789,1.918C14.789,1.293 15.289,0.793 15.914,0.793Z" style="fill:white;fill-rule:nonzero;"/>
        <path d="M15.914,2.293C16.328,2.293 16.664,2.629 16.664,3.043L16.664,4.543C16.664,4.957 16.328,5.293 15.914,5.293C15.5,5.293 15.164,4.957 15.164,4.543L15.164,3.043C15.164,2.629 15.5,2.293 15.914,2.293Z" style="fill:white;fill-rule:nonzero;"/>
        <path d="M15.914,12.493C11.617,12.493 8.117,15.993 8.117,20.29C8.117,24.59 11.617,28.086 15.914,28.086C20.21,28.086 23.71,24.59 23.71,20.29C23.71,15.993 20.21,12.493 15.914,12.493ZM15.914,13.691C17.664,13.691 19.344,14.388 20.582,15.622C21.819,16.859 22.512,18.54 22.512,20.29C22.512,22.04 21.819,23.72 20.582,24.957C19.344,26.195 17.664,26.891 15.914,26.888C14.164,26.891 12.484,26.195 11.246,24.957C10.007,23.72 9.316,22.04 9.316,20.29C9.316,18.54 10.007,16.859 11.246,15.622C12.484,14.383 14.164,13.691 15.914,13.691Z" style="fill:white;fill-rule:nonzero;"/>
        <path d="M15.914,4.629C7.273,4.629 0.25,11.649 0.25,20.293C0.25,28.938 7.273,35.958 15.914,35.958C24.559,35.958 31.578,28.938 31.578,20.293C31.578,11.649 24.559,4.629 15.914,4.629ZM15.914,5.957C23.839,5.957 30.25,12.368 30.25,20.293C30.25,28.22 23.839,34.629 15.914,34.629C7.987,34.629 1.578,28.22 1.578,20.293C1.578,12.368 7.987,5.957 15.914,5.957Z" style="fill:white;fill-rule:nonzero;"/>
        <path d="M24.605,11.599L18.246,22.199L7.648,28.559L14.007,17.957L24.605,11.599Z" style="fill:rgb(0,182,227);fill-rule:nonzero;"/>
        <path d="M18.246,22.199L7.648,28.559L14.007,17.957L18.246,22.199Z" style="fill:rgb(255,69,0);fill-rule:nonzero;"/>
        <path d="M17.109,21.066C16.523,21.652 15.573,21.652 14.987,21.066C14.402,20.481 14.402,19.531 14.987,18.945C15.573,18.359 16.523,18.359 17.109,18.945C17.694,19.531 17.694,20.481 17.109,21.066Z" style="fill:white;fill-rule:nonzero;"/>
        <path d="M14.785,6.793C14.578,6.797 14.414,6.965 14.414,7.172L14.414,10.165C14.414,10.372 14.582,10.54 14.789,10.54C14.996,10.54 15.164,10.372 15.164,10.165L15.164,7.172C15.168,7.07 15.125,6.973 15.055,6.902C14.984,6.832 14.887,6.793 14.785,6.793ZM17.035,6.793C16.828,6.797 16.664,6.965 16.664,7.172L16.664,10.165C16.664,10.372 16.832,10.54 17.039,10.54C17.246,10.54 17.414,10.372 17.414,10.165L17.414,7.172C17.418,7.07 17.375,6.973 17.305,6.902C17.234,6.832 17.137,6.793 17.035,6.793Z" style="fill:white;"/>
        <path d="M14.766,6.797C14.625,6.806 14.503,6.888 14.444,7.016C14.387,7.141 14.405,7.29 14.487,7.398L16.737,10.388C16.862,10.556 17.098,10.586 17.266,10.461C17.43,10.336 17.464,10.102 17.339,9.938L15.089,6.945C15.016,6.845 14.891,6.786 14.766,6.797ZM15.617,30.043C15.41,30.043 15.242,30.211 15.242,30.418C15.242,30.625 15.41,30.793 15.617,30.793L17.03,30.793C17.237,30.793 17.405,30.625 17.405,30.418C17.405,30.211 17.237,30.043 17.03,30.043L15.617,30.043ZM14.796,33.043C14.589,33.043 14.421,33.211 14.421,33.418C14.421,33.625 14.589,33.793 14.796,33.793L16.285,33.793C16.492,33.793 16.66,33.625 16.66,33.418C16.66,33.211 16.492,33.043 16.285,33.043L14.796,33.043ZM15.546,31.543C15.339,31.543 15.171,31.711 15.171,31.918C15.171,32.125 15.339,32.293 15.546,32.293L16.289,32.293C16.496,32.293 16.664,32.125 16.664,31.918C16.664,31.711 16.496,31.543 16.289,31.543L15.546,31.543Z" style="fill:white;"/>
        <path d="M16.273,31.543C16.066,31.543 15.898,31.711 15.898,31.918C15.898,32.125 16.066,32.293 16.273,32.293C16.5,32.293 16.664,32.458 16.664,32.668C16.664,32.879 16.5,33.043 16.273,33.043C16.066,33.043 15.898,33.211 15.898,33.418C15.898,33.625 16.066,33.793 16.273,33.793C16.894,33.793 17.414,33.29 17.414,32.668C17.414,32.047 16.894,31.543 16.273,31.543Z" style="fill:white;fill-rule:nonzero;"/>
        <path d="M15.559,30.043C14.941,30.043 14.418,30.547 14.418,31.168C14.418,31.79 14.941,32.293 15.559,32.293C15.769,32.293 15.934,32.125 15.934,31.918C15.934,31.711 15.769,31.543 15.559,31.543C15.335,31.543 15.168,31.379 15.168,31.168C15.168,30.957 15.335,30.793 15.559,30.793C15.769,30.793 15.934,30.625 15.934,30.418C15.934,30.211 15.769,30.043 15.559,30.043Z" style="fill:white;fill-rule:nonzero;"/>
        <path d="M2.785,18.047C2.578,18.047 2.414,18.22 2.414,18.427L2.414,21.418C2.414,21.625 2.582,21.793 2.789,21.793C2.996,21.793 3.164,21.625 3.164,21.418L3.164,18.427C3.168,18.324 3.125,18.227 3.055,18.152C2.984,18.082 2.887,18.043 2.785,18.047ZM5.03,18.047C4.828,18.047 4.66,18.22 4.664,18.427L4.664,21.418C4.664,21.625 4.832,21.793 5.039,21.793C5.246,21.793 5.414,21.625 5.414,21.418L5.414,18.427C5.414,18.324 5.375,18.227 5.305,18.152C5.23,18.082 5.132,18.043 5.03,18.047Z" style="fill:white;"/>
        <path d="M3.921,19.845C3.769,19.84 3.628,19.931 3.566,20.066C3.503,20.207 3.535,20.372 3.641,20.481L4.766,21.677C4.905,21.824 5.144,21.832 5.296,21.691C5.448,21.552 5.453,21.313 5.312,21.161L4.187,19.965C4.117,19.891 4.023,19.848 3.921,19.845Z" style="fill:white;"/>
        <path d="M3.894,19.845C3.796,19.852 3.707,19.895 3.641,19.965L2.519,21.161C2.375,21.313 2.382,21.552 2.535,21.691C2.687,21.832 2.921,21.824 3.066,21.677L4.187,20.481C4.296,20.372 4.323,20.204 4.262,20.063C4.194,19.922 4.051,19.836 3.894,19.845ZM26.793,18.043C26.585,18.043 26.418,18.211 26.418,18.418C26.418,18.625 26.585,18.793 26.793,18.793L29.035,18.793C29.242,18.793 29.41,18.625 29.41,18.418C29.41,18.211 29.242,18.043 29.035,18.043L26.793,18.043Z" style="fill:white;"/>
        <path d="M26.777,18.043C26.569,18.047 26.405,18.215 26.41,18.422L26.41,21.418C26.41,21.625 26.578,21.793 26.785,21.793C26.992,21.793 27.16,21.625 27.16,21.418L27.16,18.422C27.16,18.32 27.121,18.223 27.051,18.152C26.977,18.082 26.878,18.043 26.777,18.043Z" style="fill:white;"/>
        <path d="M26.793,19.543C26.585,19.543 26.418,19.711 26.418,19.918C26.418,20.125 26.585,20.293 26.793,20.293L28.434,20.293C28.641,20.293 28.809,20.125 28.809,19.918C28.809,19.711 28.641,19.543 28.434,19.543L26.793,19.543ZM26.793,21.043C26.585,21.043 26.418,21.211 26.418,21.418C26.418,21.625 26.585,21.793 26.793,21.793L29.035,21.793C29.242,21.793 29.41,21.625 29.41,21.418C29.41,21.211 29.242,21.043 29.035,21.043L26.793,21.043Z" style="fill:white;"/>
    </g>
</svg>
