<?xml version="1.0" encoding="UTF-8" standalone="no"?>
<!DOCTYPE svg PUBLIC "-//W3C//DTD SVG 1.1//EN" "http://www.w3.org/Graphics/SVG/1.1/DTD/svg11.dtd">
<svg width="100%" height="100%" viewBox="0 0 152 154" version="1.1" xmlns="http://www.w3.org/2000/svg" xmlns:xlink="http://www.w3.org/1999/xlink" xml:space="preserve" xmlns:serif="http://www.serif.com/" style="fill-rule:evenodd;clip-rule:evenodd;stroke-linejoin:round;stroke-miterlimit:2;">
    <path d="M75.588,0.82C33.844,0.82 0,34.664 0,76.408C0,118.158 33.844,152.003 75.588,152.003C117.338,152.003 151.183,118.159 151.183,76.408C151.183,34.664 117.339,0.82 75.588,0.82" style="fill:rgb(247,239,39);"/>
    <path d="M141.735,76.408C141.735,112.94 112.12,142.549 75.593,142.549C39.063,142.549 9.448,112.94 9.448,76.408C9.448,39.883 39.063,10.268 75.593,10.268C112.12,10.268 141.735,39.883 141.735,76.408" style="fill:rgb(238,42,34);"/>
    <path d="M116.735,93.465C116.735,116.221 98.286,134.669 75.536,134.669C52.781,134.669 34.333,116.221 34.333,93.465C34.333,70.71 52.781,52.268 75.536,52.268C98.286,52.268 116.735,70.71 116.735,93.465" style="fill:white;"/>
    <path d="M63.697,87.888C66.24,88.893 68.255,87.798 71.01,88.236C71.083,87.112 70.396,86.763 70.661,85.451C68.431,85.137 67.531,84.508 65.792,84.403C65.593,86.069 64,86.331 63.697,87.888ZM61.959,86.148C62.964,85.643 63.167,84.341 64.047,83.71C61.651,82.341 59.912,86.45 58.131,87.888C57.937,87.883 57.735,88.169 58.131,88.236L60.917,88.236C60.615,86.888 61.765,86.997 61.959,86.148ZM33.765,89.976C33.057,89.403 31.964,89.226 31.677,88.236C32.421,87.216 32.714,87.908 34.115,87.539C37.459,88.544 53.161,87.664 55.344,88.236C57.083,85.446 60.027,83.866 61.959,81.273C63.197,81.736 67.797,82.831 71.359,84.055C73.052,81.351 78.896,82.107 78.667,86.148C86.667,90.033 99.729,87.632 109.297,88.236C110.391,85.263 111.364,82.169 112.781,79.533C113.437,79.455 113.552,79.924 114.171,79.877C118.167,81.121 121.339,82.247 125.312,84.055C122.828,84.861 117.797,84.845 115.568,84.752C113.76,84.898 110.625,84.722 109.995,88.236C111.672,88.309 112.672,88.503 113.828,88.236C114.131,89.466 113.869,89.091 114.172,90.32L113.828,90.32C113.807,91.648 113.396,92.57 113.828,93.455C112.698,98.175 105.427,95.736 100.948,97.632L100.948,97.284C101.464,96.179 102.812,95.898 103.38,94.851C103.979,94.861 104.281,94.591 104.427,94.153C99.651,94.965 94.073,97.298 90.151,97.283C90.401,96.253 92.156,96.732 92.245,95.543C90.932,95.856 89.297,95.845 88.063,96.241C87.293,95.121 89.793,94.877 90.5,94.153C89.697,94.039 89.167,94.205 88.765,94.497C87.688,94.039 86.828,95.533 86.328,94.497C86.74,93.752 87.833,93.69 88.412,93.107C85.312,93.372 82.86,94.279 79.364,94.153C79.505,93.315 78.729,93.393 79.016,92.413C76.057,90.232 71.339,91.705 70.661,94.851C70.901,95.898 72.057,97.841 71.36,98.679C69.89,98.403 69.839,96.716 68.573,96.241C64.276,97.705 55.604,98.153 49.776,100.069C46.297,97.341 38.906,93.279 33.766,89.976M78.579,114.065C82.412,113.727 85.385,112.517 85.541,108.497C80.771,109.407 77.276,111.607 73.005,113.017C72.183,113.357 71.297,113.632 71.615,115.112C72.667,115.591 72.86,114.945 74.402,115.112L74.749,115.112C75.329,115.44 77.984,114.877 78.579,114.065ZM63.959,113.721C64.677,113.512 66.245,114.148 66.396,113.367C62.844,112.507 63.426,109.153 63.609,107.451C59.943,107.345 54.729,108.809 51.776,109.19C51.303,109.252 49.109,108.503 50.031,109.539C51.62,110.799 55.265,111.959 59.083,112.675C60.26,113.465 62.027,113.679 63.959,113.721ZM118.265,114.065C116.714,119.856 111.303,124.727 102.598,124.508C98.718,124.351 96.469,120.21 92.855,122.768C89.531,125.112 84.136,126.518 79.625,123.118L79.276,123.118C78.432,122.336 77.364,121.778 76.49,121.028C72.719,123.903 66.219,123.612 62.563,121.028C58.765,123.263 54.453,124.981 49.688,126.247C49.631,125.841 49.052,125.955 48.64,125.898C48.573,125.621 48.292,125.555 48.292,125.205C48.593,123.736 46.849,121.32 46.202,119.632C48.292,119.288 49.322,117.877 51.079,117.195C46.489,116.793 45.593,112.7 44.812,108.497L44.812,108.147C46.042,107.637 49.99,106.877 57.693,106.407C63.932,108.424 69.021,101.065 72.661,106.407C73.443,107.565 73.921,109.028 74.401,110.585C78.931,108.779 82.136,107.773 86.235,105.71C85.448,104.986 85.145,103.784 84.844,102.575C86.959,104.523 92.125,100.486 92.151,106.06C91.531,106.945 90.714,107.637 90.76,109.19C98.355,110.716 104.683,112.21 110.604,114.763C104.719,113.981 93.286,111.424 91.803,111.627C90.62,111.407 88.281,110.528 87.281,111.284C89.948,112.21 91.245,114.508 92.5,116.851C93.552,117.081 107.615,116.747 118.265,114.065" style="fill:rgb(7,16,22);"/>
    <path d="M74.052,99.102C74.052,98.175 73.922,97.112 74.402,96.659C76.391,96.908 77.51,96.288 79.276,96.315C79.995,98.861 80.266,101.569 82.057,103.621C80.517,104.377 79.104,105.539 76.833,105.711C75.793,104.669 75.063,103.304 73.355,102.924C73.083,102.154 71.203,102.992 71.615,101.534C72.719,101.591 73.01,101.221 74.052,100.836L74.052,99.102M63.339,48.883C67.083,56.981 71.755,66.867 75.136,76.398C75.917,77.258 78.052,76.763 79.068,77.383C78.298,81.023 72.693,80.82 71.86,77.383C71.656,76.091 73.656,76.997 74.479,76.727C70.786,75.069 66.823,73.684 63.01,72.147C63.464,67.565 63.312,57.388 63.339,48.883M79.495,49.398C83.24,57.498 87.907,67.378 91.292,76.914C92.073,77.768 94.208,77.274 95.219,77.898C94.453,81.538 88.849,81.336 88.016,77.898C87.812,76.607 89.812,77.512 90.631,77.241C86.943,75.581 82.979,74.195 79.167,72.659C79.62,68.08 79.464,57.903 79.495,49.399M46.87,49.627C50.495,57.465 55.016,67.033 58.286,76.263C59.046,77.091 61.109,76.612 62.093,77.216C61.349,80.736 55.921,80.544 55.115,77.216C54.921,75.96 56.86,76.841 57.651,76.58C54.079,74.97 50.245,73.632 46.552,72.143C46.99,67.71 46.844,57.861 46.869,49.627" style="fill:rgb(7,16,22);"/>
    <g transform="matrix(0.738892,0,0,0.765697,63.7692,15.6229)">
        <path d="M15.914,0.043C14.878,0.047 14.043,0.883 14.039,1.918C14.039,2.949 14.882,3.793 15.914,3.793C16.944,3.793 17.789,2.949 17.789,1.918C17.789,0.888 16.944,0.043 15.914,0.043ZM15.914,0.793C16.539,0.793 17.039,1.293 17.039,1.918C17.039,2.543 16.539,3.043 15.914,3.043C15.612,3.043 15.328,2.927 15.117,2.715C14.905,2.504 14.789,2.22 14.789,1.918C14.789,1.293 15.289,0.793 15.914,0.793Z" style="fill-rule:nonzero;"/>
        <path d="M15.914,2.293C16.328,2.293 16.664,2.629 16.664,3.043L16.664,4.543C16.664,4.957 16.328,5.293 15.914,5.293C15.5,5.293 15.164,4.957 15.164,4.543L15.164,3.043C15.164,2.629 15.5,2.293 15.914,2.293Z" style="fill-rule:nonzero;"/>
        <path d="M15.914,12.493C11.617,12.493 8.117,15.993 8.117,20.29C8.117,24.59 11.617,28.086 15.914,28.086C20.21,28.086 23.71,24.59 23.71,20.29C23.71,15.993 20.21,12.493 15.914,12.493ZM15.914,13.691C17.664,13.691 19.344,14.388 20.582,15.622C21.819,16.859 22.512,18.54 22.512,20.29C22.512,22.04 21.819,23.72 20.582,24.957C19.344,26.195 17.664,26.891 15.914,26.888C14.164,26.891 12.484,26.195 11.246,24.957C10.007,23.72 9.316,22.04 9.316,20.29C9.316,18.54 10.007,16.859 11.246,15.622C12.484,14.383 14.164,13.691 15.914,13.691Z" style="fill-rule:nonzero;"/>
        <path d="M15.914,4.629C7.273,4.629 0.25,11.649 0.25,20.293C0.25,28.938 7.273,35.958 15.914,35.958C24.559,35.958 31.578,28.938 31.578,20.293C31.578,11.649 24.559,4.629 15.914,4.629ZM15.914,5.957C23.839,5.957 30.25,12.368 30.25,20.293C30.25,28.22 23.839,34.629 15.914,34.629C7.987,34.629 1.578,28.22 1.578,20.293C1.578,12.368 7.987,5.957 15.914,5.957Z" style="fill-rule:nonzero;"/>
        <path d="M24.605,11.599L18.246,22.199L7.648,28.559L14.007,17.957L24.605,11.599Z" style="fill:rgb(0,182,227);fill-rule:nonzero;"/>
        <path d="M18.246,22.199L7.648,28.559L14.007,17.957L18.246,22.199Z" style="fill:rgb(255,69,0);fill-rule:nonzero;"/>
        <path d="M17.109,21.066C16.523,21.652 15.573,21.652 14.987,21.066C14.402,20.481 14.402,19.531 14.987,18.945C15.573,18.359 16.523,18.359 17.109,18.945C17.694,19.531 17.694,20.481 17.109,21.066Z" style="fill:white;fill-rule:nonzero;"/>
        <path d="M14.785,6.793C14.578,6.797 14.414,6.965 14.414,7.172L14.414,10.165C14.414,10.372 14.582,10.54 14.789,10.54C14.996,10.54 15.164,10.372 15.164,10.165L15.164,7.172C15.168,7.07 15.125,6.973 15.055,6.902C14.984,6.832 14.887,6.793 14.785,6.793ZM17.035,6.793C16.828,6.797 16.664,6.965 16.664,7.172L16.664,10.165C16.664,10.372 16.832,10.54 17.039,10.54C17.246,10.54 17.414,10.372 17.414,10.165L17.414,7.172C17.418,7.07 17.375,6.973 17.305,6.902C17.234,6.832 17.137,6.793 17.035,6.793Z"/>
        <path d="M14.766,6.797C14.625,6.806 14.503,6.888 14.444,7.016C14.387,7.141 14.405,7.29 14.487,7.398L16.737,10.388C16.862,10.556 17.098,10.586 17.266,10.461C17.43,10.336 17.464,10.102 17.339,9.938L15.089,6.945C15.016,6.845 14.891,6.786 14.766,6.797ZM15.617,30.043C15.41,30.043 15.242,30.211 15.242,30.418C15.242,30.625 15.41,30.793 15.617,30.793L17.03,30.793C17.237,30.793 17.405,30.625 17.405,30.418C17.405,30.211 17.237,30.043 17.03,30.043L15.617,30.043ZM14.796,33.043C14.589,33.043 14.421,33.211 14.421,33.418C14.421,33.625 14.589,33.793 14.796,33.793L16.285,33.793C16.492,33.793 16.66,33.625 16.66,33.418C16.66,33.211 16.492,33.043 16.285,33.043L14.796,33.043ZM15.546,31.543C15.339,31.543 15.171,31.711 15.171,31.918C15.171,32.125 15.339,32.293 15.546,32.293L16.289,32.293C16.496,32.293 16.664,32.125 16.664,31.918C16.664,31.711 16.496,31.543 16.289,31.543L15.546,31.543Z"/>
        <path d="M16.273,31.543C16.066,31.543 15.898,31.711 15.898,31.918C15.898,32.125 16.066,32.293 16.273,32.293C16.5,32.293 16.664,32.458 16.664,32.668C16.664,32.879 16.5,33.043 16.273,33.043C16.066,33.043 15.898,33.211 15.898,33.418C15.898,33.625 16.066,33.793 16.273,33.793C16.894,33.793 17.414,33.29 17.414,32.668C17.414,32.047 16.894,31.543 16.273,31.543Z" style="fill-rule:nonzero;"/>
        <path d="M15.559,30.043C14.941,30.043 14.418,30.547 14.418,31.168C14.418,31.79 14.941,32.293 15.559,32.293C15.769,32.293 15.934,32.125 15.934,31.918C15.934,31.711 15.769,31.543 15.559,31.543C15.335,31.543 15.168,31.379 15.168,31.168C15.168,30.957 15.335,30.793 15.559,30.793C15.769,30.793 15.934,30.625 15.934,30.418C15.934,30.211 15.769,30.043 15.559,30.043Z" style="fill-rule:nonzero;"/>
        <path d="M2.785,18.047C2.578,18.047 2.414,18.22 2.414,18.427L2.414,21.418C2.414,21.625 2.582,21.793 2.789,21.793C2.996,21.793 3.164,21.625 3.164,21.418L3.164,18.427C3.168,18.324 3.125,18.227 3.055,18.152C2.984,18.082 2.887,18.043 2.785,18.047ZM5.03,18.047C4.828,18.047 4.66,18.22 4.664,18.427L4.664,21.418C4.664,21.625 4.832,21.793 5.039,21.793C5.246,21.793 5.414,21.625 5.414,21.418L5.414,18.427C5.414,18.324 5.375,18.227 5.305,18.152C5.23,18.082 5.132,18.043 5.03,18.047Z"/>
        <path d="M3.921,19.845C3.769,19.84 3.628,19.931 3.566,20.066C3.503,20.207 3.535,20.372 3.641,20.481L4.766,21.677C4.905,21.824 5.144,21.832 5.296,21.691C5.448,21.552 5.453,21.313 5.312,21.161L4.187,19.965C4.117,19.891 4.023,19.848 3.921,19.845Z"/>
        <path d="M3.894,19.845C3.796,19.852 3.707,19.895 3.641,19.965L2.519,21.161C2.375,21.313 2.382,21.552 2.535,21.691C2.687,21.832 2.921,21.824 3.066,21.677L4.187,20.481C4.296,20.372 4.323,20.204 4.262,20.063C4.194,19.922 4.051,19.836 3.894,19.845ZM26.793,18.043C26.585,18.043 26.418,18.211 26.418,18.418C26.418,18.625 26.585,18.793 26.793,18.793L29.035,18.793C29.242,18.793 29.41,18.625 29.41,18.418C29.41,18.211 29.242,18.043 29.035,18.043L26.793,18.043Z"/>
        <path d="M26.777,18.043C26.569,18.047 26.405,18.215 26.41,18.422L26.41,21.418C26.41,21.625 26.578,21.793 26.785,21.793C26.992,21.793 27.16,21.625 27.16,21.418L27.16,18.422C27.16,18.32 27.121,18.223 27.051,18.152C26.977,18.082 26.878,18.043 26.777,18.043Z"/>
        <path d="M26.793,19.543C26.585,19.543 26.418,19.711 26.418,19.918C26.418,20.125 26.585,20.293 26.793,20.293L28.434,20.293C28.641,20.293 28.809,20.125 28.809,19.918C28.809,19.711 28.641,19.543 28.434,19.543L26.793,19.543ZM26.793,21.043C26.585,21.043 26.418,21.211 26.418,21.418C26.418,21.625 26.585,21.793 26.793,21.793L29.035,21.793C29.242,21.793 29.41,21.625 29.41,21.418C29.41,21.211 29.242,21.043 29.035,21.043L26.793,21.043Z"/>
    </g>
</svg>
