<?xml version="1.0" encoding="UTF-8" standalone="no"?>
<!DOCTYPE svg PUBLIC "-//W3C//DTD SVG 1.1//EN" "http://www.w3.org/Graphics/SVG/1.1/DTD/svg11.dtd">
<svg width="100%" height="100%" viewBox="0 0 152 154" version="1.1" xmlns="http://www.w3.org/2000/svg" xmlns:xlink="http://www.w3.org/1999/xlink" xml:space="preserve" xmlns:serif="http://www.serif.com/" style="fill-rule:evenodd;clip-rule:evenodd;stroke-linejoin:round;stroke-miterlimit:2;">
    <path d="M75.588,0.82C33.844,0.82 0,34.664 0,76.408C0,118.158 33.844,152.003 75.588,152.003C117.338,152.003 151.183,118.159 151.183,76.408C151.183,34.664 117.339,0.82 75.588,0.82" style="fill:rgb(247,239,39);"/>
    <path d="M141.735,76.408C141.735,112.94 112.12,142.549 75.593,142.549C39.063,142.549 9.448,112.94 9.448,76.408C9.448,39.883 39.063,10.268 75.593,10.268C112.12,10.268 141.735,39.883 141.735,76.408" style="fill:rgb(238,42,34);"/>
    <path d="M37.724,98.56C37.724,98.56 42.36,103.132 44.027,106.465C44.027,106.465 58.667,104.773 57.183,73.19L54.693,68.132L47.027,69.798L39.027,81.132L36.027,93.465L37.724,98.56M97.495,97.684C97.495,97.684 103.51,96.408 108.265,91.607C113.027,86.798 112.693,85.465 112.693,85.465L105.693,61.465L98.36,65.465L97.027,91.465L97.495,97.684" style="fill:white;"/>
    <path d="M29.557,90.565C29.443,90.565 28.86,90.102 28.688,89.867L28.516,89.867L28.516,89.351C28.688,89.288 28.86,89.231 29.036,89.175C29.021,88.32 29.386,86.279 29.386,85.872L29.557,85.872C29.557,85.408 29.672,84.482 29.729,84.482C29.729,84.195 32.453,70.929 32.51,70.929C32.51,70.815 35.12,61.486 35.12,61.023C35.547,59.565 35.38,58.169 35.984,56.679C35.312,56.523 34.454,55.632 34.421,54.773L34.943,54.424L34.943,54.247L35.293,54.247L35.293,54.075C35.547,53.841 36.219,53.555 36.505,53.555C46.167,59.279 57.36,68.669 57.36,68.669C57.703,68.903 58.052,69.132 58.402,69.367L58.402,67.976C58.082,67.621 57.875,64.976 57.88,64.153L60.136,63.981L60.136,63.804L61.875,63.804L61.875,63.632C62.781,63.372 64.251,63.809 64.828,63.284C65.193,62.888 65.292,58.069 65.349,58.069C65.407,56.856 65.64,54.075 65.697,54.075C65.921,53.127 65.62,51.643 65.869,51.293C66.484,50.403 72.631,50.403 73.693,50.602C73.749,50.71 74.036,50.945 74.036,50.945C74.036,51.7 73.864,60.503 73.864,62.763C76.14,62.741 88.052,63.227 89.328,63.283L89.328,63.455C89.678,63.575 90.027,63.69 90.369,63.805C90.255,65.137 90.14,66.471 90.027,67.805L89.849,67.805L89.849,69.888L89.677,69.888L89.677,71.971L89.5,71.971C89.563,72.085 89.62,72.205 89.677,72.32L89.5,72.32C89.224,73.424 89.693,74.7 89.5,75.445L89.328,75.445L89.328,77.356C89.328,77.94 89.125,79.086 89.156,79.446C89.177,79.69 89.317,79.372 89.328,79.617L89.156,79.788C89.193,79.888 89.156,87.492 89.156,88.304L89.328,88.304C89.527,89.003 89.364,92.132 89.328,92.298L89.5,93.695L89.5,96.82L89.677,96.82L89.677,98.903L89.849,98.903L89.849,100.815C89.88,101.153 90.027,101.164 90.027,101.164L90.027,103.074L90.197,103.074L90.197,105.159L90.369,105.159L90.369,106.899L90.547,106.899C90.484,107.127 90.427,107.361 90.369,107.591L90.547,107.591C90.776,110.137 91.005,112.69 91.24,115.236C90.927,115.403 90.964,115.476 90.547,115.586C89.947,116.159 89.333,115.675 88.459,115.935L88.459,116.107L87.245,116.107L87.245,116.279L85.855,116.279L85.855,116.455L83.943,116.455L83.943,116.627L81.855,116.627L81.855,116.798C80.235,116.856 78.615,116.914 76.99,116.976C75.407,117.32 71.77,117.148 69.35,117.148C68.214,117.148 66.724,117.232 65.87,116.976L63.615,116.976L63.615,116.798L63.437,116.798L63.437,116.976L63.265,116.976L63.265,116.798L61.183,116.798C60.027,116.46 58.683,116.612 57.703,116.455C57.553,116.055 57.527,115.684 57.531,115.065C58,114.517 57.708,112.241 57.881,111.241L57.881,111.069L58.052,111.069L58.052,110.372L58.224,110.372L58.052,110.022L58.224,110.022L58.224,108.804L58.402,108.804L58.402,107.419L58.573,107.419L58.573,105.684L58.749,105.684L58.749,103.596L58.921,103.596L58.921,101.512L59.093,101.512L59.093,99.424L59.271,99.424L59.271,97.169L59.443,97.169L59.443,94.559C59.495,94.319 59.651,94.627 59.615,94.383L59.443,94.383L59.443,93.517L59.615,93.517L59.615,91.257C59.615,88.71 59.937,84.585 59.443,82.919L59.443,80.659L59.271,75.793L59.093,75.793C58.797,74.815 59.323,73.809 58.749,73.19C58.5,73.565 58.339,73.539 57.703,73.533C57.432,73.112 57.51,73.429 57.183,73.19C57.011,72.956 56.837,72.723 56.661,72.492C56.547,72.492 56.083,72.148 55.969,71.971C55.855,71.971 55.271,71.508 55.099,71.279L54.749,71.279C54.859,71.769 55.136,72.107 55.271,72.492C55.328,72.898 55.563,73.71 55.62,73.71C55.62,73.825 55.735,74.06 55.792,74.06C55.792,74.288 55.912,74.752 55.969,74.752C55.969,74.982 56.083,75.445 56.14,75.445C56.14,75.736 56.255,76.315 56.312,76.315L56.312,77.184L56.49,77.184L56.49,78.227L56.661,78.227L56.661,81.7L56.839,81.7C56.891,82.055 56.661,82.05 56.661,82.05L56.661,83.96L56.49,83.96L56.49,84.83L56.312,84.83L56.312,85.528L56.14,85.528L56.14,86.393L55.97,86.393C55.855,86.741 55.735,87.085 55.62,87.44L55.448,87.44C55.391,87.784 55.328,88.132 55.271,88.476C55.156,88.533 55.041,88.596 54.927,88.653L54.927,89.523C54.807,89.58 54.693,89.637 54.579,89.695C54.521,89.867 54.464,90.044 54.407,90.216C54.229,90.331 54.057,90.446 53.88,90.566L53.88,90.908C53.765,90.965 53.65,91.028 53.536,91.085L53.536,91.435C53.416,91.492 53.303,91.549 53.188,91.607L53.016,92.298C52.896,92.361 52.781,92.414 52.666,92.476L52.495,93.169L52.145,93.341L52.145,93.695L51.797,94.039L51.453,94.039L51.453,94.21C51.219,94.153 50.983,94.102 50.755,94.039C50.729,93.632 50.625,93.596 50.584,93.341L50.754,93.341L50.754,92.997L50.927,92.997L50.927,92.647L51.104,92.647L51.104,92.298L51.276,92.298L51.276,91.955C51.469,91.602 52.016,90.805 52.317,90.565C48.547,78.653 46.12,75.102 46.063,74.924L45.891,74.924L45.891,75.274C46.241,75.664 46.047,76.102 46.241,76.664C46.5,77.44 48.797,84.028 49.885,98.56C50.151,99.497 50.552,102.856 49.885,103.596C49.688,103.793 49.885,103.664 49.541,103.773L49.541,104.117C49.131,104.132 49.098,104.169 48.844,104.293L48.844,104.117C48.553,103.945 48.263,103.772 47.974,103.596L47.974,102.903L47.803,102.903L47.803,102.555L47.625,102.555L47.625,102.205L47.281,102.033L47.281,101.683C47.104,101.569 46.931,101.455 46.76,101.341C46.703,101.164 46.64,100.986 46.584,100.815L46.24,100.643C46.177,100.408 46.12,100.179 46.063,99.951C45.833,99.773 45.598,99.601 45.369,99.424L45.369,99.074C45.136,98.903 44.907,98.732 44.672,98.56L44.672,98.21C44.5,98.09 44.322,97.976 44.151,97.861L44.151,97.684C44.036,97.627 43.921,97.569 43.807,97.517L43.807,97.169L43.631,97.169C43.297,96.773 42.917,96.517 42.76,95.951L42.416,95.951L42.416,95.607C41.953,95.351 41.172,94.607 41.026,94.039L40.677,94.039L40.677,93.695C40.131,93.544 40.115,93.345 39.807,92.997L39.636,92.997C39.579,92.82 39.521,92.647 39.459,92.476L39.115,92.476L39.115,92.126C38.469,91.976 38.214,91.544 37.724,91.257L37.724,92.127C38.14,92.602 37.854,93.315 38.074,94.039C38.443,95.279 38.754,96.585 38.765,98.21C38.312,98.45 38.469,98.517 37.724,98.56C37.724,98.56 34.494,93.965 29.557,90.565" style="fill:rgb(35,31,32);"/>
    <path d="M110.355,51.465C110.355,51.414 110.781,51.148 111.219,51.121L111.219,51.293C111.396,51.351 111.569,51.413 111.745,51.465C112.208,51.992 112.672,52.512 113.131,53.033L113.307,53.033L113.307,53.555C112.902,53.841 112.495,54.132 112.088,54.424C112.255,54.736 112.333,54.694 112.438,55.117L112.786,55.117C112.937,55.695 113.328,55.929 113.656,56.336L113.828,56.336L113.828,56.679L114,56.679C114.12,57.029 114.235,57.377 114.35,57.727L114.521,57.727L114.521,58.247L114.697,58.247L114.697,58.768L114.869,58.768L114.869,59.288L115.041,59.288L115.041,59.809L115.219,59.809L115.391,61.2L115.563,61.2L115.563,61.893L115.74,61.893L115.74,62.591L115.912,62.591L115.912,63.455L116.088,63.455L116.088,64.325L116.26,64.325L116.26,65.367L116.432,65.367C116.49,66.007 116.547,66.643 116.609,67.284L116.781,67.284L116.781,68.497L116.953,68.497L116.953,70.06L117.131,70.06L117.131,70.93L117.303,70.93C117.364,72.263 117.416,73.596 117.473,74.924L117.651,74.924L117.651,79.965C117.741,80.279 118.011,81.298 117.823,81.877L117.651,81.877L117.651,82.398L117.473,82.398C117.197,82.778 116.921,82.908 116.781,83.44L116.431,83.44C116.281,84.028 115.604,84.59 115.219,85.003C115.099,85.06 114.984,85.117 114.869,85.175C113.844,86.591 112.609,87.612 111.396,88.825C110.864,89.356 110.484,90.169 109.656,90.388L109.656,90.736C109.484,90.793 109.306,90.856 109.136,90.908C109.021,91.085 108.906,91.258 108.786,91.435L108.266,91.607L108.266,91.955L107.746,91.955L107.746,91.779L107.573,91.779L107.573,90.908C107.803,90.648 107.833,89.705 107.745,89.175L107.573,89.175L107.573,88.997L107.745,88.997C107.921,88.017 108.093,87.028 108.265,86.044L108.093,86.044C107.921,86.279 107.745,86.508 107.573,86.741L107.224,86.741L107.052,87.085L106.88,87.085C106.817,87.263 106.76,87.44 106.703,87.612L106.355,87.612L106.355,87.955L106.01,87.955C105.864,88.555 105.339,88.955 104.964,89.351C104.849,89.403 104.734,89.46 104.62,89.523L104.62,89.867C104.385,90.044 104.156,90.217 103.921,90.388L103.921,90.736C103.749,90.856 103.579,90.966 103.401,91.086L103.401,91.435C103.229,91.549 103.057,91.664 102.881,91.779L102.881,92.127L102.536,92.298L102.536,92.648C102.364,92.768 102.188,92.883 102.01,92.998L101.667,94.038C101.547,94.102 101.432,94.153 101.317,94.21L101.317,94.56L101.145,94.56L101.145,95.08L100.797,95.252L100.797,95.607C100.598,95.831 100.177,95.768 99.755,95.779L99.755,95.951L99.579,95.951L99.579,95.779C99.203,95.529 99.229,95.361 99.235,94.732C99.568,94.336 99.224,93.612 99.407,92.997L99.579,92.997C99.636,92.184 99.697,91.372 99.755,90.565L99.927,90.565L99.927,89.695L100.098,89.695L100.098,88.476L100.276,88.476L100.276,87.612L100.448,87.612L100.448,86.914L100.62,86.914L100.62,86.044L100.797,86.044L100.797,85.351L100.969,85.351L100.969,84.653L101.145,84.653L101.145,83.96L101.317,83.96L101.317,83.09L101.49,83.09L101.49,81.877L101.667,81.877L101.667,81.184L101.839,81.184L101.839,80.486L102.01,80.486L102.01,79.617L102.188,79.617C102.303,78.747 102.416,77.877 102.536,77.012L102.708,77.012L102.708,75.622L102.88,75.622C102.937,74.637 102.995,73.653 103.057,72.669L103.229,72.669L103.229,71.621L103.402,71.621C103.636,70.815 103.391,67.517 103.229,66.935C102.989,66.075 103.364,65.227 102.88,64.675C102.948,67.017 102.714,69.486 102.364,70.757C102.303,71.278 102.245,71.799 102.188,72.32L102.01,72.32L102.01,72.67L101.839,72.67L101.839,73.19L101.667,73.19L101.667,73.883L101.49,73.883L101.145,75.793L100.969,75.793L100.969,76.315L100.797,76.315L100.797,76.836L100.62,76.836L100.448,78.226L100.276,78.226L100.276,78.746L100.098,78.746L99.927,79.966L99.755,79.966C99.697,80.486 99.636,81.008 99.579,81.528L99.407,81.528L99.407,81.878L99.235,81.878C99.172,82.398 99.115,82.918 99.057,83.44L98.885,83.44L98.885,83.96L98.714,83.96C98.651,84.539 98.594,85.117 98.536,85.7L98.364,85.7L98.364,86.565L98.194,86.565L98.194,87.44L98.016,87.44L98.016,88.304L97.844,88.304L97.844,89.867L97.667,89.867L97.667,92.476L97.844,92.476L97.844,94.56L98.016,94.56L98.016,95.95L98.193,95.95L98.536,97.517C98.083,97.752 98.246,97.82 97.495,97.861L97.495,97.684L97.323,97.684C97.271,97.143 97.183,96.736 96.973,96.298L96.797,96.298L96.797,95.778L96.625,95.778L96.625,95.252L96.453,95.252L96.453,94.21L96.276,94.21L96.276,89.695L96.104,89.695L96.104,83.96C96.161,83.845 96.219,83.732 96.276,83.612L96.104,83.612C96.074,83.232 96.276,83.268 96.276,83.268C96.386,82.836 96.098,82.293 96.104,82.221L96.276,82.221L96.104,78.919C96.094,75.465 95.745,71.883 94.714,69.367C94.251,69.71 93.786,70.06 93.323,70.407L92.979,70.929L92.631,70.929C92.573,71.044 92.516,71.159 92.453,71.279C91.807,71.888 91.343,72.549 90.197,72.669C90.057,72.44 90.073,72.459 89.849,72.319C89.907,72.148 89.964,71.971 90.027,71.799C90.14,71.741 90.255,71.684 90.369,71.621L90.197,70.06C90.235,69.82 90.303,70.121 90.369,69.888L90.369,68.669L90.547,68.669L90.547,68.497L90.369,68.497L90.369,67.627C94.131,64.159 106.286,54.112 110.355,51.465" style="fill:rgb(35,31,32);"/>
    <path d="M109.833,85.872L110.177,85.872C110.355,85.2 110.573,85.345 111.047,85.002L111.568,84.309L111.918,84.309L112.088,83.959C112.505,83.565 113.26,82.721 113.828,82.569C114.031,81.424 114,79.247 114.178,78.575L114.178,76.315C114.161,76.268 113.953,76.263 114,75.965L114.177,75.965C114.469,74.82 114.098,70.82 114,70.408L114,68.325L113.828,68.325L113.828,66.065L113.656,66.065L113.656,64.675L113.479,64.675L113.479,63.284L113.307,63.284L113.307,62.24L113.131,62.24L113.131,60.68L112.959,60.68L112.959,60.154L112.786,60.154C112.714,59.925 112.912,60.228 112.959,59.982L112.959,59.81L112.786,59.81L112.786,59.118L112.609,59.118C112.651,61.54 112.859,65.561 112.437,67.108L112.437,69.54L112.265,69.54L112.265,71.103L112.088,71.103L112.088,72.843L111.918,72.843C111.745,74.581 111.568,76.316 111.396,78.056L111.219,78.056L111.047,79.789L110.875,79.789L110.875,80.659L110.697,80.659C110.64,81.009 110.584,81.357 110.531,81.701L110.697,81.878L110.531,81.878C110.297,83.206 110.063,84.54 109.833,85.873M74.907,65.716L74.907,64.846C74.505,64.695 74.14,64.669 73.517,64.675C73.412,64.955 73.364,65.085 73.344,65.544C73.541,65.69 73.369,65.523 73.516,65.716C73.806,65.773 74.098,65.831 74.386,65.893L74.386,65.716L74.906,65.716M72.473,67.284C72.031,67.659 71.369,67.424 70.735,67.627L70.735,67.804L70.041,67.804L70.041,67.976L69.521,67.976L69.521,68.148L69,68.148L69,68.325L68.65,68.325L68.65,68.497L68.13,68.497L68.13,68.669C67.902,68.727 67.667,68.788 67.437,68.845L67.437,69.017L67.088,69.017C67.031,69.132 66.973,69.252 66.918,69.367C66.683,69.424 66.448,69.481 66.218,69.539C66.161,69.653 66.104,69.773 66.047,69.888L65.697,69.888C65.584,70.06 65.464,70.236 65.349,70.408L65,70.408C64.885,70.58 64.77,70.758 64.656,70.929L64.479,70.929L64.479,71.279L63.615,71.971L63.615,72.32C63.495,72.377 63.38,72.435 63.265,72.492L63.265,72.842L63.093,72.842C63.036,73.069 62.973,73.304 62.917,73.533L62.745,73.533L62.573,74.58L62.396,74.58L62.396,75.273L62.224,75.273C61.823,76.607 62.697,79.508 63.094,80.137L63.437,80.309C63.495,80.544 63.557,80.779 63.615,81.008C63.786,81.121 63.959,81.236 64.136,81.356L64.136,81.7C64.306,81.82 64.479,81.935 64.656,82.05L64.656,82.221L65,82.221C65.235,82.512 65.464,82.798 65.697,83.091L66.047,83.091L66.219,83.441L66.917,83.612C66.973,83.732 67.031,83.845 67.088,83.96C68.188,84.367 69.292,84.773 70.391,85.175L71.431,85.175C72.381,85.445 73.885,85.184 75.079,85.351L75.079,85.528L75.255,85.528L75.255,85.351L76.125,85.351L76.125,85.175L76.99,85.175L76.99,85.003L77.688,85.003L77.688,84.831L78.38,84.831L78.38,84.653C78.73,84.602 79.079,84.539 79.421,84.481L79.421,84.309C79.714,84.252 80.005,84.195 80.292,84.132L80.292,83.96L80.99,83.788L80.99,83.612L81.333,83.612C81.396,83.497 81.453,83.382 81.51,83.268L81.855,83.268C81.917,83.148 81.973,83.033 82.031,82.918L82.381,82.918C82.724,82.512 83.073,82.112 83.421,81.7L84.464,80.83C85.344,79.602 86.51,77.263 85.854,75.102L85.854,74.232L84.636,71.798C84.349,71.565 84.057,71.336 83.766,71.102C83.421,70.695 83.073,70.293 82.724,69.888L82.38,69.888L82.03,69.367C81.797,69.31 81.565,69.251 81.333,69.19L81.161,68.845C80.641,68.669 80.12,68.497 79.598,68.325L79.598,68.148L79.251,68.148L79.251,67.976L78.729,67.976L78.729,67.804L78.208,67.804L78.208,67.627L77.688,67.627L77.688,67.455L72.473,67.284" style="fill:white;"/>
    <path d="M73.344,67.627C73.459,67.684 73.574,67.741 73.694,67.804C73.885,67.669 73.625,67.574 73.864,67.627C73.864,67.627 73.954,67.877 74.385,67.804C74.412,67.798 74.459,67.574 74.735,67.627L74.735,67.804L76.469,67.804L76.469,67.976L77.339,67.976L77.339,68.148L78.036,68.148L78.036,68.325L78.729,68.325C78.792,68.351 79.755,68.986 79.771,69.017L79.771,69.71C79.573,69.861 79.745,69.69 79.598,69.888L75.776,70.06L75.776,70.236L72.126,70.236L72.126,70.408C71.369,70.627 67.953,70.445 67.609,70.408C67.51,70.143 67.473,70.121 67.437,69.71C67.657,69.596 67.672,69.44 67.781,69.367L68.131,69.367C68.188,69.252 68.245,69.132 68.303,69.017L68.651,69.017L68.823,68.669L69.349,68.669L69.349,68.497L69.693,68.497L69.693,68.325L70.391,68.325L70.391,68.148L70.912,68.148L70.912,67.976C71.495,67.768 72.953,67.981 73.344,67.626" style="fill:rgb(35,31,32);"/>
    <path d="M58.402,70.06C57.984,71.096 58.396,71.908 58.749,72.67L58.921,72.67L58.921,72.32L58.749,72.32C58.437,71.752 58.973,70.675 58.402,70.06" style="fill:white;"/>
    <path d="M65.87,70.58C66.604,70.58 66.807,70.727 67.26,70.93L67.088,71.45C66.918,71.565 66.74,71.684 66.568,71.798L66.568,81.184C66.683,81.236 66.798,81.294 66.918,81.356C66.99,81.695 66.818,81.58 66.74,81.7L66.74,81.877L65.697,81.877L64.828,80.831C64.714,80.779 64.598,80.716 64.478,80.659L64.478,80.309L64.136,80.137L64.136,79.788L63.786,79.618L63.786,79.273L63.615,79.273L63.615,78.919L63.437,78.919L63.437,78.399L63.265,78.399L63.265,77.877L63.093,77.877C62.823,77.023 63.224,74.367 63.437,73.883L63.615,73.883L63.786,73.19L63.959,73.19C64.021,72.955 64.079,72.727 64.136,72.492L64.479,72.32L64.479,71.97C64.714,71.798 64.948,71.621 65.177,71.45C65.235,71.279 65.292,71.102 65.349,70.93C65.636,70.695 65.531,71.107 65.869,70.58M81.855,70.93C83.536,71.06 83.844,72.336 84.464,73.533L84.636,73.533L84.636,73.883L84.812,73.883L84.812,74.58C84.964,75.05 85.402,76.205 85.156,77.012C84.926,77.768 84.693,78.517 84.464,79.273C84.349,79.325 84.229,79.388 84.114,79.445L84.114,79.788L83.943,79.788L83.943,80.138L83.593,80.309L83.593,80.659C83.479,80.716 83.364,80.779 83.245,80.831C82.714,81.377 82.803,81.371 81.683,81.356C81.396,80.815 81.355,81.044 81.333,80.137L81.51,80.137C81.51,80.137 81.276,79.517 81.333,79.273L81.51,79.273C81.454,79.097 81.395,78.921 81.333,78.747L81.51,78.747L81.51,77.012L81.333,77.012C81.317,76.914 81.51,75.882 81.51,75.445C81.516,73.544 81.396,72.127 81.855,70.929M67.26,82.05L68.13,82.05C68.188,82.164 68.245,82.279 68.303,82.398C69.407,82.341 70.505,82.278 71.604,82.221C74.557,82.164 77.516,82.112 80.469,82.049C80.579,82.351 80.631,82.596 80.64,83.091C80.03,83.231 79.703,83.555 79.25,83.788L78.902,83.788L78.902,83.96C78.5,84.023 78.093,84.075 77.688,84.132L77.688,84.309L77.167,84.309L77.167,84.481C76.355,84.539 75.541,84.601 74.735,84.653L74.735,84.831C74.375,84.908 74.214,84.653 74.214,84.653C73.921,84.716 73.631,84.773 73.344,84.831L73.344,84.653L71.78,84.653L71.78,84.481L70.911,84.481L70.911,84.309L70.213,84.309L70.213,84.132L69.693,84.132L69.693,83.96C68.624,83.539 67.401,83.565 67.087,82.398C67.285,82.2 67.155,82.398 67.259,82.049" style="fill:rgb(35,31,32);"/>
    <path d="M68.823,90.565L68.823,93.867L72.473,93.867C72.469,92.414 72.479,91.779 72.473,90.565L72.125,90.565L72.125,90.388C71.953,90.445 71.781,90.508 71.605,90.565C71.224,90.569 71.041,90.372 70.912,90.388C70.912,90.388 70.822,90.607 70.562,90.565L70.562,90.388C70.317,90.398 70.631,90.512 70.391,90.565L68.823,90.565M75.079,90.388L75.079,93.867L78.729,93.867C78.829,93.602 78.859,93.58 78.902,93.169L78.729,93.169L78.729,92.997L78.902,92.997L78.902,90.388L75.079,90.388M81.161,90.388C81.369,91.575 81.183,92.309 81.161,93.695C81.36,93.836 81.188,93.669 81.333,93.867C81.683,93.804 82.031,93.747 82.38,93.695C82.38,93.695 82.402,93.919 82.724,93.867L82.724,93.695L85.156,93.695L85.156,90.388L81.161,90.388M62.224,90.565L62.224,94.21C63.396,94.159 64.817,94.044 66.219,94.039L66.391,93.517L66.219,93.517L66.219,93.341L66.391,93.341L66.391,90.565L62.224,90.565M81.161,95.779L81.161,99.075L85.333,99.075C85.276,97.976 85.213,96.877 85.156,95.779C83.833,95.549 82.86,95.773 81.161,95.779M62.047,99.424C63.276,99.451 65.844,99.58 66.219,99.252C66.609,98.845 66.24,98.315 66.219,97.862C66.203,97.419 66.391,97.342 66.391,97.342C66.479,97.008 66.219,96.82 66.219,96.82L66.219,96.643L66.391,96.643C66.364,96.403 66.271,96.71 66.219,96.471C66.276,96.356 66.333,96.236 66.391,96.121L66.219,96.121C65.708,95.679 63,96.055 62.224,95.779L62.224,98.903L62.047,98.903L62.047,99.424M68.823,95.95C68.817,97.419 68.823,97.861 68.823,99.252L72.473,99.252L72.645,95.951C71.817,95.643 70.286,95.768 69.172,95.779C68.973,95.971 69.172,95.845 68.822,95.951M75.079,95.779L75.079,99.075C75.484,99.137 75.891,99.195 76.297,99.252L76.297,99.075L77.167,99.075C77.407,99.127 77.093,99.279 77.339,99.252L77.339,99.075L78.729,99.075L78.729,97.86L78.902,97.86C78.927,97.616 78.776,97.928 78.729,97.683L78.729,96.47L78.902,96.47L78.729,95.778L75.079,95.778" style="fill:white;"/>
    <path d="M92.281,97.17L92.281,97.517C93.109,97.732 93.807,98.544 94.369,99.075C94.427,99.195 94.484,99.309 94.541,99.424L94.891,99.424C95.407,100.008 95.931,100.58 96.453,101.164L96.797,101.164C96.86,101.284 96.917,101.398 96.973,101.512C97.203,101.684 97.437,101.856 97.667,102.033C98.245,102.607 98.697,103.523 99.579,103.773L99.579,104.117C100.812,104.451 101.469,106.377 102.708,106.727L102.708,107.069L103.058,107.069L103.058,107.419C103.536,107.544 103.443,107.465 103.578,107.94C104.349,108.137 104.651,108.841 105.14,109.33C106.125,110.315 107.11,111.298 108.093,112.284C108.547,112.736 109.12,112.951 109.307,113.674L109.657,113.674L109.657,114.017C110.412,114.717 111.161,115.407 111.917,116.107C112.297,116.517 111.902,116.591 112.609,116.798L112.609,117.148C113.708,117.788 114.402,119.345 115.391,119.929L115.219,120.451C115,120.565 114.973,120.731 114.869,120.793L114.521,120.793C114.464,120.913 114.407,121.028 114.349,121.143C113.479,121.2 112.609,121.257 111.745,121.32C110.88,121.596 110.145,122.075 109.136,122.184C108.786,121.727 108.443,121.257 108.093,120.794C107.921,120.684 107.745,120.565 107.573,120.451L107.573,120.107C107.459,120.044 107.339,119.987 107.224,119.929L107.224,119.752C106.932,119.522 106.645,119.293 106.354,119.06L106.354,118.71C105.954,118.361 105.547,118.017 105.14,117.67C102.453,113.96 98.959,110.965 95.755,107.768C94.656,106.664 93.557,105.565 92.453,104.46C91.902,103.908 91.64,103.284 90.719,103.075C90.651,102.695 90.459,101.992 90.369,101.684L90.197,97.169C90.369,97.112 90.547,97.055 90.719,96.992L90.719,96.82L91.063,96.992C91.828,96.747 91.573,96.976 92.281,97.169M40.505,117.845L39.979,118.19L39.979,118.539C39.749,118.71 39.521,118.888 39.286,119.059L39.115,119.929C39.229,119.986 39.344,120.044 39.459,120.107C39.724,120.56 40.369,122.575 39.807,123.232C39.88,124.445 40.364,123.919 40.855,124.622L42.068,124.622L42.068,124.445L42.416,124.445L42.416,124.273C42.531,124.21 42.646,124.153 42.76,124.102L42.76,123.752C42.88,123.69 42.995,123.632 43.11,123.575L43.11,123.403C43.224,123.345 43.339,123.288 43.459,123.232L43.631,122.533C51.26,111.893 57.703,105.851 57.703,105.851L57.703,105.508L58.053,105.336C58.369,104.773 57.755,103.403 58.053,102.377L58.224,102.377L58.224,100.987L58.402,100.987C58.344,100.815 58.286,100.643 58.224,100.465C58.344,99.831 58.459,99.195 58.574,98.56C58.402,98.503 58.224,98.445 58.052,98.383C58.052,98.383 40.505,117.732 40.505,117.845" style="fill:rgb(35,31,32);"/>
    <path d="M81.161,101.164L81.161,102.205L81.333,102.205C81.364,102.451 81.213,102.137 81.161,102.377L81.161,103.419C82.167,103.793 84.031,103.607 85.333,103.596L85.333,100.986L85.156,101.164C85.041,101.107 84.926,101.044 84.812,100.986L84.812,101.164L84.292,101.164L84.292,100.986L84.115,100.986L84.115,101.164L81.16,101.164M69,101.341L69,103.773L72.645,103.773L72.645,101.341L69,101.341M78.73,103.773L78.73,103.419L78.902,103.419C78.937,103.179 78.786,103.486 78.729,103.247L78.729,102.555L78.902,102.555L78.729,101.164L75.255,101.164C75.131,101.486 75.083,101.845 75.079,102.377L75.255,102.377C75.469,102.757 75.136,103.424 75.079,103.596L75.255,103.596C75.609,103.914 77.531,103.903 78.208,103.773L78.208,103.596C78.38,103.653 78.558,103.71 78.729,103.773M62.047,101.512L62.047,102.727L61.875,102.727L61.875,102.903L62.047,102.903L61.875,103.945L66.219,103.945C66.364,103.56 66.396,103.003 66.391,102.377L66.219,102.377C66.276,102.033 66.333,101.684 66.391,101.341L62.047,101.512M81.333,105.684L81.333,106.028L81.161,106.028L81.161,106.2L81.333,106.2L81.333,108.288L85.505,108.288L85.505,105.851C84.631,105.528 83.021,105.675 81.855,105.684L81.855,105.851C81.682,105.792 81.508,105.737 81.333,105.684M69,106.028L69,107.069L69.172,107.069L69.172,107.241L69,107.241L69,107.768L69.172,107.768L69.172,107.94L69,107.94L69,108.632L72.645,108.46L72.645,105.85C71.432,105.908 70.214,105.97 69,106.028M75.255,105.85L75.255,108.46L78.729,108.46C78.844,108.164 78.896,107.914 78.902,107.419C78.584,107.065 78.855,106.627 78.902,106.029C78.702,105.883 78.875,106.049 78.729,105.851L75.255,105.851M61.703,108.804C63.255,108.82 65.109,108.872 66.391,108.632L66.391,106.028L65,106.028L65,106.2C63.964,106.497 62.547,106.06 61.703,106.372C61.833,106.809 61.708,107.902 61.703,108.804M74.907,112.632C74.432,112.544 74.005,112.46 73.344,112.46C73.068,112.935 72.912,112.773 72.823,113.503L72.995,113.503L72.995,113.845C73.109,113.903 73.229,113.96 73.344,114.017L73.344,114.195C73.823,114.503 75.052,114.252 75.254,113.845L75.254,113.325C75.021,113.121 74.99,113.012 74.907,112.632" style="fill:white;"/>
    <g transform="matrix(0.738892,0,0,0.765697,63.7692,15.2083)">
        <path d="M15.914,0.043C14.878,0.047 14.043,0.883 14.039,1.918C14.039,2.949 14.882,3.793 15.914,3.793C16.944,3.793 17.789,2.949 17.789,1.918C17.789,0.888 16.944,0.043 15.914,0.043ZM15.914,0.793C16.539,0.793 17.039,1.293 17.039,1.918C17.039,2.543 16.539,3.043 15.914,3.043C15.612,3.043 15.328,2.927 15.117,2.715C14.905,2.504 14.789,2.22 14.789,1.918C14.789,1.293 15.289,0.793 15.914,0.793Z" style="fill-rule:nonzero;"/>
        <path d="M15.914,2.293C16.328,2.293 16.664,2.629 16.664,3.043L16.664,4.543C16.664,4.957 16.328,5.293 15.914,5.293C15.5,5.293 15.164,4.957 15.164,4.543L15.164,3.043C15.164,2.629 15.5,2.293 15.914,2.293Z" style="fill-rule:nonzero;"/>
        <path d="M15.914,12.493C11.617,12.493 8.117,15.993 8.117,20.29C8.117,24.59 11.617,28.086 15.914,28.086C20.21,28.086 23.71,24.59 23.71,20.29C23.71,15.993 20.21,12.493 15.914,12.493ZM15.914,13.691C17.664,13.691 19.344,14.388 20.582,15.622C21.819,16.859 22.512,18.54 22.512,20.29C22.512,22.04 21.819,23.72 20.582,24.957C19.344,26.195 17.664,26.891 15.914,26.888C14.164,26.891 12.484,26.195 11.246,24.957C10.007,23.72 9.316,22.04 9.316,20.29C9.316,18.54 10.007,16.859 11.246,15.622C12.484,14.383 14.164,13.691 15.914,13.691Z" style="fill-rule:nonzero;"/>
        <path d="M15.914,4.629C7.273,4.629 0.25,11.649 0.25,20.293C0.25,28.938 7.273,35.958 15.914,35.958C24.559,35.958 31.578,28.938 31.578,20.293C31.578,11.649 24.559,4.629 15.914,4.629ZM15.914,5.957C23.839,5.957 30.25,12.368 30.25,20.293C30.25,28.22 23.839,34.629 15.914,34.629C7.987,34.629 1.578,28.22 1.578,20.293C1.578,12.368 7.987,5.957 15.914,5.957Z" style="fill-rule:nonzero;"/>
        <path d="M24.605,11.599L18.246,22.199L7.648,28.559L14.007,17.957L24.605,11.599Z" style="fill:rgb(0,182,227);fill-rule:nonzero;"/>
        <path d="M18.246,22.199L7.648,28.559L14.007,17.957L18.246,22.199Z" style="fill:rgb(255,69,0);fill-rule:nonzero;"/>
        <path d="M17.109,21.066C16.523,21.652 15.573,21.652 14.987,21.066C14.402,20.481 14.402,19.531 14.987,18.945C15.573,18.359 16.523,18.359 17.109,18.945C17.694,19.531 17.694,20.481 17.109,21.066Z" style="fill:white;fill-rule:nonzero;"/>
        <path d="M14.785,6.793C14.578,6.797 14.414,6.965 14.414,7.172L14.414,10.165C14.414,10.372 14.582,10.54 14.789,10.54C14.996,10.54 15.164,10.372 15.164,10.165L15.164,7.172C15.168,7.07 15.125,6.973 15.055,6.902C14.984,6.832 14.887,6.793 14.785,6.793ZM17.035,6.793C16.828,6.797 16.664,6.965 16.664,7.172L16.664,10.165C16.664,10.372 16.832,10.54 17.039,10.54C17.246,10.54 17.414,10.372 17.414,10.165L17.414,7.172C17.418,7.07 17.375,6.973 17.305,6.902C17.234,6.832 17.137,6.793 17.035,6.793Z"/>
        <path d="M14.766,6.797C14.625,6.806 14.503,6.888 14.444,7.016C14.387,7.141 14.405,7.29 14.487,7.398L16.737,10.388C16.862,10.556 17.098,10.586 17.266,10.461C17.43,10.336 17.464,10.102 17.339,9.938L15.089,6.945C15.016,6.845 14.891,6.786 14.766,6.797ZM15.617,30.043C15.41,30.043 15.242,30.211 15.242,30.418C15.242,30.625 15.41,30.793 15.617,30.793L17.03,30.793C17.237,30.793 17.405,30.625 17.405,30.418C17.405,30.211 17.237,30.043 17.03,30.043L15.617,30.043ZM14.796,33.043C14.589,33.043 14.421,33.211 14.421,33.418C14.421,33.625 14.589,33.793 14.796,33.793L16.285,33.793C16.492,33.793 16.66,33.625 16.66,33.418C16.66,33.211 16.492,33.043 16.285,33.043L14.796,33.043ZM15.546,31.543C15.339,31.543 15.171,31.711 15.171,31.918C15.171,32.125 15.339,32.293 15.546,32.293L16.289,32.293C16.496,32.293 16.664,32.125 16.664,31.918C16.664,31.711 16.496,31.543 16.289,31.543L15.546,31.543Z"/>
        <path d="M16.273,31.543C16.066,31.543 15.898,31.711 15.898,31.918C15.898,32.125 16.066,32.293 16.273,32.293C16.5,32.293 16.664,32.458 16.664,32.668C16.664,32.879 16.5,33.043 16.273,33.043C16.066,33.043 15.898,33.211 15.898,33.418C15.898,33.625 16.066,33.793 16.273,33.793C16.894,33.793 17.414,33.29 17.414,32.668C17.414,32.047 16.894,31.543 16.273,31.543Z" style="fill-rule:nonzero;"/>
        <path d="M15.559,30.043C14.941,30.043 14.418,30.547 14.418,31.168C14.418,31.79 14.941,32.293 15.559,32.293C15.769,32.293 15.934,32.125 15.934,31.918C15.934,31.711 15.769,31.543 15.559,31.543C15.335,31.543 15.168,31.379 15.168,31.168C15.168,30.957 15.335,30.793 15.559,30.793C15.769,30.793 15.934,30.625 15.934,30.418C15.934,30.211 15.769,30.043 15.559,30.043Z" style="fill-rule:nonzero;"/>
        <path d="M2.785,18.047C2.578,18.047 2.414,18.22 2.414,18.427L2.414,21.418C2.414,21.625 2.582,21.793 2.789,21.793C2.996,21.793 3.164,21.625 3.164,21.418L3.164,18.427C3.168,18.324 3.125,18.227 3.055,18.152C2.984,18.082 2.887,18.043 2.785,18.047ZM5.03,18.047C4.828,18.047 4.66,18.22 4.664,18.427L4.664,21.418C4.664,21.625 4.832,21.793 5.039,21.793C5.246,21.793 5.414,21.625 5.414,21.418L5.414,18.427C5.414,18.324 5.375,18.227 5.305,18.152C5.23,18.082 5.132,18.043 5.03,18.047Z"/>
        <path d="M3.921,19.845C3.769,19.84 3.628,19.931 3.566,20.066C3.503,20.207 3.535,20.372 3.641,20.481L4.766,21.677C4.905,21.824 5.144,21.832 5.296,21.691C5.448,21.552 5.453,21.313 5.312,21.161L4.187,19.965C4.117,19.891 4.023,19.848 3.921,19.845Z"/>
        <path d="M3.894,19.845C3.796,19.852 3.707,19.895 3.641,19.965L2.519,21.161C2.375,21.313 2.382,21.552 2.535,21.691C2.687,21.832 2.921,21.824 3.066,21.677L4.187,20.481C4.296,20.372 4.323,20.204 4.262,20.063C4.194,19.922 4.051,19.836 3.894,19.845ZM26.793,18.043C26.585,18.043 26.418,18.211 26.418,18.418C26.418,18.625 26.585,18.793 26.793,18.793L29.035,18.793C29.242,18.793 29.41,18.625 29.41,18.418C29.41,18.211 29.242,18.043 29.035,18.043L26.793,18.043Z"/>
        <path d="M26.777,18.043C26.569,18.047 26.405,18.215 26.41,18.422L26.41,21.418C26.41,21.625 26.578,21.793 26.785,21.793C26.992,21.793 27.16,21.625 27.16,21.418L27.16,18.422C27.16,18.32 27.121,18.223 27.051,18.152C26.977,18.082 26.878,18.043 26.777,18.043Z"/>
        <path d="M26.793,19.543C26.585,19.543 26.418,19.711 26.418,19.918C26.418,20.125 26.585,20.293 26.793,20.293L28.434,20.293C28.641,20.293 28.809,20.125 28.809,19.918C28.809,19.711 28.641,19.543 28.434,19.543L26.793,19.543ZM26.793,21.043C26.585,21.043 26.418,21.211 26.418,21.418C26.418,21.625 26.585,21.793 26.793,21.793L29.035,21.793C29.242,21.793 29.41,21.625 29.41,21.418C29.41,21.211 29.242,21.043 29.035,21.043L26.793,21.043Z"/>
    </g>
</svg>
