<?xml version="1.0" encoding="UTF-8" standalone="no"?>
<!DOCTYPE svg PUBLIC "-//W3C//DTD SVG 1.1//EN" "http://www.w3.org/Graphics/SVG/1.1/DTD/svg11.dtd">
<svg width="100%" height="100%" viewBox="0 0 152 154" version="1.1" xmlns="http://www.w3.org/2000/svg" xmlns:xlink="http://www.w3.org/1999/xlink" xml:space="preserve" xmlns:serif="http://www.serif.com/" style="fill-rule:evenodd;clip-rule:evenodd;stroke-linejoin:round;stroke-miterlimit:2;">
    <path d="M75.588,0.82C33.844,0.82 0,34.664 0,76.408C0,118.158 33.844,152.003 75.588,152.003C117.338,152.003 151.183,118.159 151.183,76.408C151.183,34.664 117.339,0.82 75.588,0.82" style="fill:rgb(238,42,34);"/>
    <path d="M141.735,76.408C141.735,112.94 112.12,142.549 75.593,142.549C39.063,142.549 9.448,112.94 9.448,76.408C9.448,39.883 39.063,10.268 75.593,10.268C112.12,10.268 141.735,39.883 141.735,76.408" style="fill:rgb(37,72,127);"/>
    <path d="M30.286,88.345C30.172,88.345 29.588,87.883 29.416,87.653L29.246,87.653L29.246,87.132C29.416,87.069 29.588,87.012 29.766,86.955C29.749,86.107 30.109,84.06 30.109,83.653L30.286,83.653C30.286,83.195 30.402,82.268 30.459,82.268C30.459,81.976 33.183,68.71 33.24,68.71C33.24,68.596 35.844,59.273 35.844,58.804C36.276,57.345 36.109,55.951 36.714,54.46C36.041,54.304 35.183,53.414 35.151,52.555L35.671,52.205L35.671,52.028L36.021,52.028L36.021,51.856C36.276,51.621 36.948,51.336 37.235,51.336C46.895,57.06 58.088,66.451 58.088,66.451C58.432,66.684 58.781,66.914 59.131,67.148L59.131,65.758C58.812,65.403 58.604,62.758 58.609,61.935L60.864,61.763L60.864,61.585L62.604,61.585L62.604,61.414C63.51,61.154 64.974,61.591 65.557,61.065C65.921,60.669 66.021,55.851 66.079,55.851C66.136,54.637 66.369,51.856 66.427,51.856C66.651,50.908 66.344,49.424 66.598,49.075C67.214,48.184 73.36,48.184 74.416,48.383C74.473,48.493 74.766,48.732 74.766,48.732C74.766,49.482 74.593,58.284 74.593,60.544C76.869,60.528 88.781,61.008 90.057,61.065L90.057,61.236C90.402,61.356 90.749,61.471 91.098,61.586C90.984,62.919 90.864,64.252 90.749,65.586L90.579,65.586L90.579,67.669L90.402,67.669L90.402,69.752L90.229,69.752L90.402,70.102L90.229,70.102C89.953,71.205 90.421,72.482 90.229,73.227L90.057,73.227L90.057,75.137C90.057,75.717 89.849,76.867 89.88,77.227C89.902,77.471 90.041,77.153 90.057,77.398L89.88,77.575C89.921,77.675 89.88,85.279 89.88,86.091L90.057,86.091C90.255,86.788 90.093,89.919 90.057,90.085L90.229,91.476L90.229,94.602L90.402,94.602L90.402,96.69L90.579,96.69L90.579,98.596C90.604,98.935 90.749,98.946 90.749,98.946L90.749,100.856L90.921,100.856L90.921,102.94L91.098,102.94L91.098,104.679L91.271,104.679C91.214,104.914 91.156,105.143 91.098,105.372L91.271,105.372C91.505,107.924 91.735,110.471 91.969,113.017C91.656,113.184 91.693,113.257 91.271,113.367C90.677,113.945 90.063,113.455 89.188,113.71L89.188,113.888L87.969,113.888L87.969,114.06L86.584,114.06L86.584,114.236L84.667,114.236L84.667,114.408L82.584,114.408L82.584,114.585L77.719,114.757C76.136,115.107 72.5,114.929 70.073,114.929C68.943,114.929 67.453,115.012 66.598,114.757L64.338,114.757L64.338,114.585L64.167,114.585L64.167,114.757L63.995,114.757L63.995,114.585L61.907,114.585C60.755,114.241 59.412,114.393 58.432,114.236C58.282,113.836 58.255,113.471 58.26,112.846C58.73,112.298 58.437,110.028 58.61,109.023L58.61,108.851L58.781,108.851L58.781,108.153L58.953,108.153L58.781,107.809L58.953,107.809L58.953,106.591L59.131,106.591L59.131,105.2L59.303,105.2L59.303,103.465L59.473,103.465L59.473,101.377L59.651,101.377L59.651,99.293L59.823,99.293L59.823,97.205L60,97.205L60,94.951L60.172,94.951L60.172,92.341C60.224,92.101 60.375,92.414 60.344,92.169L60.172,92.169L60.172,91.299L60.344,91.299L60.344,89.044C60.344,86.497 60.667,82.372 60.172,80.7L60.172,78.44L60,73.575L59.823,73.575C59.527,72.595 60.053,71.591 59.473,70.971C59.229,71.345 59.068,71.32 58.432,71.315C58.162,70.893 58.24,71.21 57.912,70.971C57.74,70.736 57.562,70.508 57.391,70.279C57.276,70.279 56.812,69.929 56.697,69.752C56.579,69.752 56,69.288 55.828,69.06L55.478,69.06C55.588,69.55 55.864,69.888 56,70.279C56.057,70.684 56.292,71.492 56.35,71.492C56.35,71.607 56.464,71.842 56.521,71.842C56.521,72.069 56.636,72.533 56.697,72.533C56.697,72.768 56.812,73.227 56.869,73.227C56.869,73.517 56.984,74.096 57.041,74.096L57.041,74.966L57.219,74.966L57.219,76.008L57.391,76.008L57.391,79.486L57.563,79.486C57.62,79.836 57.391,79.831 57.391,79.831L57.391,81.747L57.219,81.747L57.219,82.612L57.041,82.612L57.041,83.309L56.869,83.309L56.869,84.179L56.697,84.179C56.579,84.523 56.464,84.872 56.349,85.221L56.177,85.221C56.115,85.565 56.057,85.914 56,86.263L55.65,86.435L55.65,87.305L55.307,87.476C55.251,87.653 55.188,87.826 55.131,87.997C54.959,88.117 54.786,88.232 54.609,88.345L54.609,88.695L54.265,88.867L54.265,89.217C54.145,89.273 54.031,89.331 53.917,89.388L53.745,90.085L53.395,90.257C53.339,90.49 53.28,90.723 53.219,90.955L52.875,91.127L52.875,91.476L52.527,91.82L52.177,91.82L52.177,91.997C51.947,91.94 51.714,91.883 51.484,91.82C51.459,91.419 51.354,91.377 51.307,91.127L51.484,91.127L51.484,90.779L51.656,90.779L51.656,90.435L51.833,90.435L51.833,90.085L52.005,90.085L52.005,89.736C52.197,89.383 52.745,88.591 53.047,88.346C52.812,86.955 52.125,85.69 51.657,84.523C51.541,83.945 51.427,83.367 51.307,82.783L51.136,82.783C51.079,82.555 51.021,82.325 50.964,82.091L50.786,82.091L50.786,81.569L50.615,81.569L50.615,81.221L50.443,81.221C50.385,80.877 50.323,80.528 50.265,80.179L50.093,80.179C50.036,79.951 49.979,79.716 49.917,79.486L49.745,79.486L49.745,78.966L49.573,78.966L49.573,78.617L49.396,78.617L49.396,78.096L49.224,78.096L49.052,77.398L48.875,77.398L48.875,77.055L48.703,77.055L48.703,76.528L48.531,76.528L48.531,76.184L48.355,76.184L48.183,75.486L48.005,75.486L48.005,74.966L47.833,74.966L47.833,74.617L47.661,74.617L47.661,74.273C47.547,74.216 47.427,74.153 47.312,74.096L47.312,73.575L47.14,73.575L47.14,73.227L46.964,73.227C46.907,73.055 46.849,72.883 46.792,72.705L46.62,72.705L46.62,73.055C46.97,73.445 46.776,73.883 46.964,74.445C47.229,75.221 47.568,76.263 47.834,77.055L47.834,77.747L48.005,77.747L48.005,78.44L48.183,78.44L48.183,79.137L48.355,79.137L48.355,80.007L48.531,80.007L48.531,80.877L48.703,80.877L48.703,81.747L48.875,81.747L48.875,82.612L49.052,82.612L49.224,84.7L49.396,84.7L49.396,85.914L49.573,85.914L49.573,86.954L49.745,86.954L49.745,88.174L49.917,88.174L49.917,89.565L50.093,89.565L50.093,91.127L50.265,91.127L50.265,92.341L50.443,92.341L50.443,94.429L50.615,94.429L50.615,96.341C50.88,97.279 51.281,100.637 50.615,101.377C50.416,101.575 50.615,101.445 50.265,101.555L50.265,101.898C49.86,101.918 49.828,101.951 49.573,102.075L49.573,101.898C49.282,101.727 48.992,101.553 48.703,101.378L48.703,100.684L48.531,100.684L48.531,100.336L48.355,100.336L48.355,99.986C48.24,99.929 48.125,99.872 48.005,99.815L48.005,99.465L47.49,99.121C47.427,98.945 47.37,98.773 47.312,98.596C47.197,98.539 47.082,98.481 46.964,98.424L46.792,97.732C46.562,97.555 46.328,97.377 46.098,97.205L46.098,96.861C45.864,96.69 45.636,96.512 45.402,96.341L45.402,95.992L44.88,95.642L44.88,95.471L44.536,95.298L44.536,94.951L44.36,94.951C44.027,94.555 43.645,94.304 43.49,93.731L43.145,93.731L43.145,93.388C42.683,93.132 41.895,92.388 41.755,91.82L41.407,91.82L41.407,91.476C40.86,91.326 40.844,91.126 40.536,90.779L40.364,90.779C40.307,90.607 40.251,90.435 40.188,90.257L39.844,90.257L39.844,89.907C39.197,89.757 38.943,89.331 38.454,89.044L38.454,89.908C38.869,90.383 38.584,91.096 38.797,91.82C39.172,93.065 39.484,94.372 39.495,95.992C39.041,96.232 39.197,96.298 38.453,96.342C38.453,96.342 35.219,91.747 30.286,88.345" style="fill:white;"/>
    <path d="M111.079,49.247C111.079,49.195 111.51,48.935 111.948,48.903L111.948,49.075C112.12,49.132 112.298,49.195 112.469,49.247C112.932,49.773 113.396,50.293 113.859,50.815L114.036,50.815L114.036,51.336C113.631,51.621 113.224,51.914 112.817,52.206C112.979,52.517 113.057,52.476 113.167,52.903L113.51,52.903C113.661,53.476 114.052,53.71 114.38,54.117L114.557,54.117L114.557,54.46L114.729,54.46C114.844,54.81 114.959,55.159 115.079,55.508L115.251,55.508L115.251,56.028L115.421,56.028L115.421,56.549L115.598,56.549L115.598,57.069L115.771,57.069L115.771,57.591L115.943,57.591C116.005,58.055 116.063,58.517 116.12,58.981L116.292,58.981L116.292,59.675L116.464,59.675L116.464,60.372L116.64,60.372L116.64,61.236L116.812,61.236L116.812,62.112L116.99,62.112L116.99,63.148L117.161,63.148L117.333,65.065L117.51,65.065L117.51,66.279L117.683,66.279L117.683,67.841L117.855,67.841L117.855,68.711L118.031,68.711L118.203,72.705L118.38,72.705L118.38,77.747C118.47,78.065 118.74,79.08 118.552,79.659L118.38,79.659L118.38,80.179L118.203,80.179C117.921,80.559 117.645,80.695 117.51,81.221L117.161,81.221C117.005,81.809 116.333,82.377 115.943,82.784C115.828,82.845 115.713,82.903 115.598,82.96C114.573,84.377 113.333,85.398 112.12,86.607C111.593,87.137 111.214,87.955 110.385,88.175L110.385,88.523C110.214,88.58 110.036,88.637 109.864,88.695L109.516,89.216L108.995,89.388L108.995,89.736L108.473,89.736L108.473,89.566L108.303,89.566L108.303,88.695C108.527,88.435 108.563,87.492 108.473,86.955L108.303,86.955L108.303,86.784L108.473,86.784C108.645,85.798 108.823,84.814 108.995,83.831L108.823,83.831C108.645,84.06 108.473,84.293 108.303,84.523L107.953,84.523C107.896,84.637 107.839,84.757 107.776,84.872L107.604,84.872C107.547,85.044 107.49,85.222 107.432,85.393L107.082,85.393L107.082,85.741L106.735,85.741C106.588,86.336 106.068,86.736 105.693,87.131C105.579,87.19 105.464,87.247 105.343,87.304L105.343,87.654C105.115,87.825 104.88,87.997 104.651,88.174L104.651,88.523L104.131,88.867L104.131,89.217C103.953,89.331 103.781,89.445 103.609,89.565L103.609,89.908C103.495,89.965 103.375,90.028 103.259,90.085L103.259,90.435L102.74,90.779C102.625,91.127 102.51,91.476 102.39,91.819C102.276,91.883 102.161,91.94 102.047,91.997L102.047,92.341L101.869,92.341L101.869,92.867L101.521,93.039L101.521,93.388C101.328,93.612 100.901,93.549 100.479,93.56L100.479,93.732L100.307,93.732L100.307,93.56C99.932,93.315 99.959,93.148 99.959,92.517C100.297,92.117 99.953,91.393 100.136,90.779L100.306,90.779L100.479,88.345L100.656,88.345L100.656,87.476L100.828,87.476L100.828,86.263L101,86.263L101,85.393L101.177,85.393L101.177,84.7L101.349,84.7L101.349,83.83L101.521,83.83L101.521,83.132L101.697,83.132L101.697,82.44L101.869,82.44L101.869,81.747L102.047,81.747L102.047,80.877L102.219,80.877L102.219,79.66L102.391,79.66L102.391,78.966L102.568,78.966L102.568,78.269L102.74,78.269L102.74,77.399L102.912,77.399C103.031,76.529 103.145,75.659 103.26,74.794L103.432,74.794L103.432,73.404L103.609,73.404L103.781,70.452L103.953,70.452L103.953,69.404L104.131,69.404C104.36,68.597 104.12,65.299 103.953,64.717C103.713,63.862 104.093,63.009 103.609,62.456C103.672,64.799 103.443,67.269 103.088,68.54C103.031,69.06 102.969,69.581 102.912,70.103L102.74,70.103L102.74,70.452L102.568,70.452L102.568,70.972L102.391,70.972L102.391,71.665L102.219,71.665C102.104,72.305 101.984,72.941 101.869,73.575L101.697,73.575L101.697,74.097L101.521,74.097L101.521,74.618L101.349,74.618L101.177,76.008L101,76.008L101,76.529L100.828,76.529C100.771,76.941 100.714,77.342 100.656,77.748L100.479,77.748L100.307,79.31L100.136,79.31L100.136,79.66L99.959,79.66L99.786,81.222L99.609,81.222L99.609,81.748L99.437,81.748L99.265,83.482L99.088,83.482L99.088,84.352L98.918,84.352L98.918,85.222L98.745,85.222L98.745,86.092L98.568,86.092L98.568,87.654L98.396,87.654L98.396,90.258L98.568,90.258L98.568,92.342L98.745,92.342L98.745,93.732L98.917,93.732C99.031,94.253 99.151,94.78 99.265,95.299C98.812,95.539 98.969,95.608 98.224,95.644L98.224,95.472L98.047,95.472C98,94.925 97.907,94.524 97.697,94.082L97.527,94.082L97.527,93.561L97.355,93.561L97.355,93.04L97.177,93.04L97.177,91.998L97.005,91.998L97.005,87.477L96.833,87.477L96.833,81.747C96.891,81.627 96.948,81.513 97.005,81.399L96.833,81.399C96.797,81.013 97.005,81.05 97.005,81.05C97.115,80.622 96.823,80.076 96.833,80.009L97.005,80.009L96.833,76.706C96.823,73.248 96.469,69.665 95.443,67.149C94.979,67.493 94.516,67.842 94.053,68.191C93.937,68.362 93.823,68.54 93.703,68.711L93.355,68.711C93.297,68.826 93.24,68.946 93.183,69.061C92.536,69.671 92.073,70.331 90.921,70.451C90.781,70.222 90.803,70.242 90.579,70.103L90.749,69.581C90.864,69.524 90.984,69.466 91.099,69.404C91.041,68.884 90.984,68.362 90.921,67.842C90.964,67.602 91.031,67.904 91.098,67.67L91.098,66.452L91.271,66.452L91.271,66.28L91.098,66.28L91.098,65.409C94.86,61.941 107.016,51.899 111.078,49.248" style="fill:white;"/>
    <path d="M110.557,83.653L110.907,83.653C111.083,82.981 111.297,83.127 111.776,82.783L112.297,82.091L112.645,82.091L112.817,81.747C113.235,81.345 113.984,80.503 114.557,80.357C114.76,79.21 114.724,77.033 114.902,76.357L114.902,74.096C114.891,74.049 114.677,74.044 114.729,73.746L114.902,73.746C115.193,72.606 114.828,68.602 114.729,68.19L114.729,66.107L114.557,66.107L114.557,63.845L114.38,63.845L114.38,62.455L114.208,62.455L114.208,61.065L114.036,61.065L114.036,60.023L113.86,60.023L113.86,58.46L113.688,58.46L113.688,57.94L113.51,57.94C113.437,57.705 113.64,58.008 113.688,57.768L113.688,57.591L113.51,57.591L113.51,56.898L113.339,56.898C113.375,59.32 113.584,63.341 113.167,64.888L113.167,67.32L112.99,67.32L112.99,68.883L112.817,68.883L112.817,70.621L112.645,70.621C112.469,72.361 112.297,74.096 112.12,75.836L111.948,75.836L111.776,77.575L111.598,77.575L111.598,78.44L111.427,78.44L111.255,79.486L111.427,79.659L111.255,79.659C111.021,80.992 110.792,82.325 110.557,83.653M75.636,63.497L75.636,62.627C75.235,62.476 74.869,62.451 74.246,62.455C74.14,62.736 74.093,62.867 74.073,63.325C74.271,63.471 74.098,63.305 74.245,63.497C74.536,63.555 74.823,63.612 75.115,63.675L75.115,63.497L75.636,63.497M73.203,65.065C72.76,65.445 72.098,65.205 71.464,65.408L71.464,65.585L70.771,65.585L70.771,65.757L70.251,65.757L70.251,65.935L69.729,65.935L69.729,66.107L69.38,66.107L69.38,66.279L68.86,66.279L68.86,66.451C68.625,66.508 68.396,66.569 68.161,66.627L68.161,66.798L67.817,66.798C67.76,66.914 67.697,67.033 67.64,67.148L66.948,67.32C66.891,67.44 66.833,67.555 66.776,67.67L66.426,67.67C66.312,67.841 66.193,68.017 66.079,68.19L65.729,68.19C65.615,68.361 65.5,68.539 65.385,68.71L65.208,68.71L65.208,69.06C64.921,69.288 64.631,69.523 64.338,69.752L64.338,70.102C64.224,70.159 64.109,70.216 63.995,70.279L63.995,70.621L63.817,70.621C63.76,70.856 63.703,71.085 63.645,71.315L63.473,71.315C63.416,71.664 63.355,72.012 63.297,72.361L63.125,72.361L63.125,73.055L62.953,73.055C62.553,74.388 63.421,77.288 63.817,77.924C63.937,77.981 64.052,78.039 64.167,78.096C64.224,78.326 64.281,78.56 64.339,78.788C64.516,78.908 64.688,79.023 64.864,79.138L64.864,79.486C65.036,79.602 65.208,79.716 65.385,79.831L65.385,80.008L65.729,80.008C65.964,80.293 66.193,80.585 66.427,80.878L66.776,80.878L66.948,81.221C67.178,81.279 67.412,81.341 67.64,81.398C67.697,81.512 67.76,81.627 67.817,81.747C68.917,82.147 70.017,82.555 71.12,82.96L72.161,82.96C73.104,83.232 74.615,82.965 75.807,83.132L75.807,83.309L75.984,83.309L75.984,83.132L76.854,83.132L76.854,82.96L77.719,82.96L77.719,82.784L78.416,82.784L78.416,82.612L79.109,82.612L79.109,82.44L80.151,82.268L80.151,82.091L81.021,81.919L81.021,81.747C81.251,81.684 81.484,81.627 81.714,81.569L81.714,81.399L82.063,81.399C82.12,81.279 82.177,81.164 82.235,81.049L82.584,81.049C82.64,80.935 82.697,80.815 82.76,80.7L83.104,80.7C83.454,80.293 83.803,79.893 84.145,79.486C84.495,79.195 84.844,78.908 85.193,78.617C86.073,77.383 87.24,75.044 86.583,72.883L86.583,72.012C86.177,71.2 85.771,70.388 85.364,69.58C85.074,69.35 84.786,69.117 84.494,68.883L83.454,67.669L83.104,67.669C82.99,67.492 82.874,67.319 82.76,67.148C82.527,67.091 82.295,67.032 82.063,66.971L81.891,66.627C81.369,66.451 80.849,66.279 80.323,66.107L80.323,65.935L79.979,65.935L79.979,65.757L79.459,65.757L79.459,65.585L78.932,65.585L78.932,65.408L78.416,65.408L78.416,65.236C76.677,65.179 74.937,65.121 73.203,65.066" style="fill:rgb(37,72,127);"/>
    <path d="M74.073,65.408C74.188,65.465 74.303,65.528 74.416,65.585C74.615,65.451 74.355,65.356 74.593,65.408C74.593,65.408 74.683,65.658 75.115,65.585C75.136,65.58 75.183,65.361 75.464,65.408L75.464,65.585L77.197,65.585L77.197,65.757L78.068,65.757L78.068,65.935L78.76,65.935L78.76,66.107L79.459,66.107C79.521,66.132 80.484,66.768 80.5,66.798L80.5,67.492C80.303,67.642 80.473,67.471 80.323,67.669L76.505,67.841L76.505,68.017L72.855,68.017L72.855,68.19C72.098,68.408 68.683,68.227 68.339,68.19C68.235,67.924 68.203,67.903 68.161,67.492C68.385,67.377 68.401,67.222 68.511,67.148L68.86,67.148C68.917,67.033 68.973,66.914 69.03,66.798L69.38,66.798C69.437,66.684 69.495,66.569 69.552,66.451L70.073,66.451L70.073,66.279L70.421,66.279L70.421,66.107L71.12,66.107L71.12,65.935L71.64,65.935L71.64,65.757C72.224,65.549 73.677,65.763 74.073,65.407" style="fill:white;"/>
    <path d="M59.13,67.841C58.714,68.877 59.125,69.69 59.473,70.451L59.651,70.451L59.651,70.101L59.473,70.101C59.167,69.533 59.703,68.455 59.131,67.841" style="fill:rgb(37,72,127);"/>
    <path d="M66.598,68.361C67.333,68.361 67.536,68.508 67.99,68.711C67.932,68.883 67.875,69.06 67.817,69.231L67.297,69.581L67.297,78.965L67.64,79.137C67.719,79.481 67.547,79.361 67.47,79.487L67.47,79.659L66.427,79.659C66.136,79.309 65.849,78.965 65.557,78.617C65.443,78.56 65.323,78.503 65.207,78.44L65.207,78.096L64.864,77.924L64.864,77.574C64.747,77.518 64.631,77.459 64.516,77.398L64.516,77.055L64.339,77.055L64.339,76.705L64.167,76.705L64.167,76.184L63.995,76.184L63.995,75.659L63.817,75.659C63.552,74.804 63.953,72.148 64.167,71.664L64.339,71.664C64.402,71.434 64.459,71.2 64.516,70.971L64.688,70.971C64.745,70.736 64.807,70.508 64.864,70.279C64.979,70.216 65.094,70.159 65.208,70.102L65.208,69.752C65.443,69.58 65.672,69.402 65.907,69.232C65.964,69.06 66.021,68.882 66.079,68.71C66.364,68.476 66.255,68.888 66.599,68.361M82.584,68.71C84.265,68.841 84.568,70.117 85.194,71.315L85.364,71.315L85.364,71.664L85.536,71.664L85.536,72.361C85.688,72.831 86.126,73.986 85.886,74.793C85.656,75.543 85.421,76.298 85.193,77.055C85.073,77.112 84.959,77.169 84.843,77.227L84.843,77.575L84.667,77.575L84.667,77.924L84.323,78.096L84.323,78.44C84.203,78.503 84.088,78.56 83.973,78.617C83.443,79.159 83.531,79.159 82.412,79.137C82.125,78.602 82.079,78.825 82.062,77.924L82.235,77.924C82.235,77.924 82.005,77.298 82.063,77.054L82.235,77.054L82.063,76.528L82.235,76.528L82.235,74.793L82.063,74.793C82.047,74.695 82.235,73.664 82.235,73.227C82.24,71.325 82.12,69.907 82.584,68.71" style="fill:white;"/>
    <path d="M46.443,72.19L46.443,72.533L46.62,72.533L46.62,72.19L46.443,72.19" style="fill:rgb(37,72,127);"/>
    <path d="M67.99,79.83L68.86,79.83C68.917,79.95 68.973,80.065 69.03,80.179C70.13,80.121 71.235,80.065 72.333,80.008C75.286,79.951 78.24,79.893 81.193,79.831C81.307,80.131 81.36,80.377 81.369,80.877C80.759,81.012 80.432,81.336 79.979,81.569L79.631,81.569L79.631,81.747C79.224,81.804 78.817,81.861 78.416,81.919L78.416,82.091L77.891,82.091L77.891,82.268L75.464,82.44L75.464,82.612C75.104,82.695 74.943,82.44 74.943,82.44L74.073,82.612L74.073,82.44L72.505,82.44L72.505,82.268L71.64,82.268L71.64,82.091L70.943,82.091L70.943,81.919L70.421,81.919L70.421,81.747C69.355,81.32 68.131,81.351 67.817,80.179C68.017,79.981 67.885,80.179 67.99,79.831" style="fill:white;"/>
    <path d="M69.552,88.345L69.552,91.648L73.202,91.648C73.197,90.2 73.208,89.56 73.202,88.345L72.855,88.345L72.855,88.175L72.333,88.345C71.953,88.356 71.771,88.159 71.64,88.175C71.64,88.175 71.552,88.388 71.292,88.345L71.292,88.175C71.047,88.184 71.36,88.293 71.12,88.345L69.552,88.345M75.807,88.175L75.807,91.648L79.459,91.648C79.557,91.383 79.588,91.361 79.631,90.955L79.459,90.955L79.459,90.779L79.631,90.779L79.631,88.175L75.807,88.175M81.89,88.175C82.093,89.356 81.912,90.091 81.89,91.476C82.088,91.621 81.917,91.451 82.063,91.648L83.104,91.476C83.104,91.476 83.131,91.7 83.454,91.648L83.454,91.476L85.885,91.476L85.885,88.175L81.891,88.175M62.953,88.345L62.953,91.997C64.12,91.945 65.547,91.825 66.948,91.82C67.005,91.648 67.063,91.476 67.12,91.298L66.948,91.298L66.948,91.127L67.12,91.127L67.12,88.345L62.953,88.345M81.89,93.56L81.89,96.861L86.057,96.861L85.885,93.56C84.563,93.33 83.584,93.555 81.891,93.56M62.776,97.205C64.006,97.232 66.573,97.367 66.948,97.033C67.338,96.627 66.964,96.096 66.948,95.643C66.932,95.2 67.12,95.121 67.12,95.121C67.208,94.788 66.948,94.601 66.948,94.601L66.948,94.429L67.12,94.429C67.093,94.184 67,94.497 66.948,94.252L67.12,93.908L66.948,93.908C66.438,93.46 63.729,93.841 62.953,93.56L62.953,96.69L62.776,96.69L62.776,97.205M69.552,93.732C69.547,95.205 69.552,95.642 69.552,97.033L73.202,97.033L73.375,93.732C72.547,93.424 71.016,93.549 69.902,93.56C69.702,93.757 69.902,93.627 69.552,93.732M75.807,93.56L75.807,96.861L77.027,97.033L77.027,96.861L77.891,96.861C78.136,96.908 77.823,97.06 78.068,97.033L78.068,96.861L79.458,96.861L79.458,95.643L79.631,95.643C79.656,95.398 79.5,95.71 79.459,95.471L79.459,94.252L79.631,94.252L79.459,93.56L75.807,93.56" style="fill:rgb(37,72,127);"/>
    <path d="M93.01,94.95L93.01,95.298C93.833,95.512 94.53,96.331 95.093,96.861L95.265,97.205L95.615,97.205C96.136,97.788 96.656,98.367 97.177,98.945L97.527,98.945C97.584,99.065 97.64,99.179 97.697,99.293C97.932,99.465 98.167,99.643 98.396,99.815C98.969,100.388 99.421,101.309 100.306,101.555L100.306,101.898C101.541,102.232 102.193,104.158 103.432,104.508L103.432,104.851L103.782,104.851L103.782,105.2C104.26,105.325 104.172,105.247 104.302,105.721C105.079,105.924 105.38,106.621 105.869,107.112C106.855,108.096 107.839,109.08 108.823,110.065C109.271,110.517 109.843,110.732 110.036,111.455L110.386,111.455L110.386,111.805C111.136,112.497 111.891,113.195 112.646,113.888C113.026,114.304 112.631,114.372 113.339,114.585L113.339,114.929C114.432,115.569 115.125,117.127 116.119,117.71C116.063,117.888 116.005,118.06 115.943,118.232C115.729,118.345 115.703,118.512 115.598,118.58L115.251,118.58L115.079,118.924C114.208,118.981 113.339,119.039 112.469,119.102C111.604,119.377 110.875,119.856 109.864,119.971C109.516,119.508 109.167,119.039 108.823,118.581C108.645,118.465 108.473,118.345 108.303,118.231L108.303,117.888C108.183,117.825 108.068,117.768 107.953,117.71L107.953,117.539C107.663,117.306 107.373,117.073 107.083,116.841L107.083,116.492C106.677,116.148 106.271,115.798 105.869,115.451C103.183,111.741 99.688,108.752 96.484,105.544L93.183,102.247C92.631,101.695 92.369,101.065 91.443,100.857C91.38,100.476 91.188,99.779 91.098,99.465C91.041,97.96 90.984,96.455 90.921,94.951L91.443,94.779L91.443,94.602C91.563,94.659 91.677,94.716 91.793,94.779C92.557,94.533 92.303,94.757 93.01,94.951M41.23,115.627C41.057,115.741 40.885,115.857 40.708,115.971L40.708,116.32C40.478,116.492 40.251,116.67 40.016,116.841C39.959,117.131 39.902,117.424 39.844,117.711C39.959,117.768 40.074,117.825 40.188,117.888C40.453,118.341 41.098,120.361 40.536,121.012C40.609,122.227 41.093,121.705 41.579,122.402L42.797,122.402L42.797,122.227L43.145,122.227L43.145,122.055C43.26,121.992 43.375,121.94 43.49,121.877L43.49,121.533C43.604,121.476 43.724,121.419 43.839,121.361L43.839,121.184C43.953,121.127 44.069,121.069 44.188,121.012L44.36,120.315C51.99,109.675 58.432,103.637 58.432,103.637L58.432,103.288C58.547,103.232 58.667,103.175 58.782,103.118C59.098,102.555 58.484,101.184 58.782,100.158L58.953,100.158L58.953,98.773L59.131,98.773C59.075,98.598 59.016,98.425 58.953,98.253C59.073,97.612 59.188,96.976 59.303,96.341C59.131,96.284 58.953,96.227 58.781,96.164C58.781,96.164 41.229,115.512 41.229,115.627" style="fill:white;"/>
    <path d="M81.89,98.945L81.89,99.986L82.063,99.986C82.093,100.232 81.943,99.924 81.891,100.159L81.891,101.205C82.891,101.575 84.755,101.388 86.057,101.377L86.057,98.773L85.885,98.945C85.771,98.888 85.656,98.825 85.536,98.773L85.536,98.945L85.016,98.945L85.016,98.773L84.844,98.773L84.844,98.945L81.89,98.945M69.73,99.121L69.73,101.555L73.375,101.555L73.375,99.12L69.729,99.12M79.459,101.555L79.459,101.205L79.631,101.205C79.667,100.96 79.511,101.268 79.459,101.033L79.459,100.336L79.631,100.336L79.459,98.946L75.984,98.946C75.86,99.268 75.812,99.626 75.807,100.159L75.984,100.159C76.197,100.539 75.864,101.205 75.807,101.377L75.984,101.377C76.339,101.7 78.26,101.69 78.932,101.555L78.932,101.377C79.109,101.435 79.282,101.492 79.459,101.555M62.776,99.293L62.776,100.508L62.604,100.508L62.604,100.684L62.776,100.684L62.604,101.727L66.948,101.727C67.093,101.341 67.125,100.784 67.12,100.159L66.948,100.159L67.12,99.121L62.776,99.293M82.063,103.465L82.063,103.809L81.891,103.809L81.891,103.981L82.063,103.981L82.063,106.069L86.235,106.069L86.235,103.637C85.36,103.309 83.745,103.455 82.584,103.465L82.584,103.637C82.412,103.58 82.234,103.523 82.063,103.465M69.73,103.81L69.73,104.85L69.902,104.85L69.902,105.028L69.729,105.028L69.729,105.544L69.902,105.544L69.902,105.721L69.729,105.721L69.729,106.419C70.943,106.361 72.161,106.299 73.375,106.241L73.375,103.637L69.729,103.809M75.984,103.637L75.984,106.241L79.459,106.241C79.569,105.945 79.625,105.7 79.631,105.2C79.312,104.845 79.584,104.414 79.631,103.81C79.431,103.664 79.604,103.83 79.459,103.637L75.984,103.637M62.432,106.59C63.984,106.607 65.839,106.653 67.12,106.419L67.12,103.809L65.73,103.809L65.73,103.981C64.688,104.279 63.276,103.841 62.432,104.153C62.562,104.591 62.437,105.69 62.432,106.591M75.636,110.414C75.161,110.325 74.735,110.241 74.073,110.241C73.797,110.716 73.64,110.555 73.553,111.284L73.724,111.284L73.724,111.627C73.839,111.69 73.954,111.747 74.074,111.804L74.074,111.976C74.552,112.284 75.781,112.033 75.984,111.626L75.984,111.106C75.745,110.903 75.719,110.793 75.636,110.414" style="fill:rgb(37,72,127);"/>
    <g transform="matrix(0.738892,0,0,0.765697,64.1777,15.5226)">
        <path d="M15.914,0.043C14.878,0.047 14.043,0.883 14.039,1.918C14.039,2.949 14.882,3.793 15.914,3.793C16.944,3.793 17.789,2.949 17.789,1.918C17.789,0.888 16.944,0.043 15.914,0.043ZM15.914,0.793C16.539,0.793 17.039,1.293 17.039,1.918C17.039,2.543 16.539,3.043 15.914,3.043C15.612,3.043 15.328,2.927 15.117,2.715C14.905,2.504 14.789,2.22 14.789,1.918C14.789,1.293 15.289,0.793 15.914,0.793Z" style="fill:white;fill-rule:nonzero;"/>
        <path d="M15.914,2.293C16.328,2.293 16.664,2.629 16.664,3.043L16.664,4.543C16.664,4.957 16.328,5.293 15.914,5.293C15.5,5.293 15.164,4.957 15.164,4.543L15.164,3.043C15.164,2.629 15.5,2.293 15.914,2.293Z" style="fill:white;fill-rule:nonzero;"/>
        <path d="M15.914,12.493C11.617,12.493 8.117,15.993 8.117,20.29C8.117,24.59 11.617,28.086 15.914,28.086C20.21,28.086 23.71,24.59 23.71,20.29C23.71,15.993 20.21,12.493 15.914,12.493ZM15.914,13.691C17.664,13.691 19.344,14.388 20.582,15.622C21.819,16.859 22.512,18.54 22.512,20.29C22.512,22.04 21.819,23.72 20.582,24.957C19.344,26.195 17.664,26.891 15.914,26.888C14.164,26.891 12.484,26.195 11.246,24.957C10.007,23.72 9.316,22.04 9.316,20.29C9.316,18.54 10.007,16.859 11.246,15.622C12.484,14.383 14.164,13.691 15.914,13.691Z" style="fill:white;fill-rule:nonzero;"/>
        <path d="M15.914,4.629C7.273,4.629 0.25,11.649 0.25,20.293C0.25,28.938 7.273,35.958 15.914,35.958C24.559,35.958 31.578,28.938 31.578,20.293C31.578,11.649 24.559,4.629 15.914,4.629ZM15.914,5.957C23.839,5.957 30.25,12.368 30.25,20.293C30.25,28.22 23.839,34.629 15.914,34.629C7.987,34.629 1.578,28.22 1.578,20.293C1.578,12.368 7.987,5.957 15.914,5.957Z" style="fill:white;fill-rule:nonzero;"/>
        <path d="M24.605,11.599L18.246,22.199L7.648,28.559L14.007,17.957L24.605,11.599Z" style="fill:rgb(0,182,227);fill-rule:nonzero;"/>
        <path d="M18.246,22.199L7.648,28.559L14.007,17.957L18.246,22.199Z" style="fill:rgb(255,69,0);fill-rule:nonzero;"/>
        <path d="M17.109,21.066C16.523,21.652 15.573,21.652 14.987,21.066C14.402,20.481 14.402,19.531 14.987,18.945C15.573,18.359 16.523,18.359 17.109,18.945C17.694,19.531 17.694,20.481 17.109,21.066Z" style="fill:white;fill-rule:nonzero;"/>
        <path d="M14.785,6.793C14.578,6.797 14.414,6.965 14.414,7.172L14.414,10.165C14.414,10.372 14.582,10.54 14.789,10.54C14.996,10.54 15.164,10.372 15.164,10.165L15.164,7.172C15.168,7.07 15.125,6.973 15.055,6.902C14.984,6.832 14.887,6.793 14.785,6.793ZM17.035,6.793C16.828,6.797 16.664,6.965 16.664,7.172L16.664,10.165C16.664,10.372 16.832,10.54 17.039,10.54C17.246,10.54 17.414,10.372 17.414,10.165L17.414,7.172C17.418,7.07 17.375,6.973 17.305,6.902C17.234,6.832 17.137,6.793 17.035,6.793Z" style="fill:white;"/>
        <path d="M14.766,6.797C14.625,6.806 14.503,6.888 14.444,7.016C14.387,7.141 14.405,7.29 14.487,7.398L16.737,10.388C16.862,10.556 17.098,10.586 17.266,10.461C17.43,10.336 17.464,10.102 17.339,9.938L15.089,6.945C15.016,6.845 14.891,6.786 14.766,6.797ZM15.617,30.043C15.41,30.043 15.242,30.211 15.242,30.418C15.242,30.625 15.41,30.793 15.617,30.793L17.03,30.793C17.237,30.793 17.405,30.625 17.405,30.418C17.405,30.211 17.237,30.043 17.03,30.043L15.617,30.043ZM14.796,33.043C14.589,33.043 14.421,33.211 14.421,33.418C14.421,33.625 14.589,33.793 14.796,33.793L16.285,33.793C16.492,33.793 16.66,33.625 16.66,33.418C16.66,33.211 16.492,33.043 16.285,33.043L14.796,33.043ZM15.546,31.543C15.339,31.543 15.171,31.711 15.171,31.918C15.171,32.125 15.339,32.293 15.546,32.293L16.289,32.293C16.496,32.293 16.664,32.125 16.664,31.918C16.664,31.711 16.496,31.543 16.289,31.543L15.546,31.543Z" style="fill:white;"/>
        <path d="M16.273,31.543C16.066,31.543 15.898,31.711 15.898,31.918C15.898,32.125 16.066,32.293 16.273,32.293C16.5,32.293 16.664,32.458 16.664,32.668C16.664,32.879 16.5,33.043 16.273,33.043C16.066,33.043 15.898,33.211 15.898,33.418C15.898,33.625 16.066,33.793 16.273,33.793C16.894,33.793 17.414,33.29 17.414,32.668C17.414,32.047 16.894,31.543 16.273,31.543Z" style="fill:white;fill-rule:nonzero;"/>
        <path d="M15.559,30.043C14.941,30.043 14.418,30.547 14.418,31.168C14.418,31.79 14.941,32.293 15.559,32.293C15.769,32.293 15.934,32.125 15.934,31.918C15.934,31.711 15.769,31.543 15.559,31.543C15.335,31.543 15.168,31.379 15.168,31.168C15.168,30.957 15.335,30.793 15.559,30.793C15.769,30.793 15.934,30.625 15.934,30.418C15.934,30.211 15.769,30.043 15.559,30.043Z" style="fill:white;fill-rule:nonzero;"/>
        <path d="M2.785,18.047C2.578,18.047 2.414,18.22 2.414,18.427L2.414,21.418C2.414,21.625 2.582,21.793 2.789,21.793C2.996,21.793 3.164,21.625 3.164,21.418L3.164,18.427C3.168,18.324 3.125,18.227 3.055,18.152C2.984,18.082 2.887,18.043 2.785,18.047ZM5.03,18.047C4.828,18.047 4.66,18.22 4.664,18.427L4.664,21.418C4.664,21.625 4.832,21.793 5.039,21.793C5.246,21.793 5.414,21.625 5.414,21.418L5.414,18.427C5.414,18.324 5.375,18.227 5.305,18.152C5.23,18.082 5.132,18.043 5.03,18.047Z" style="fill:white;"/>
        <path d="M3.921,19.845C3.769,19.84 3.628,19.931 3.566,20.066C3.503,20.207 3.535,20.372 3.641,20.481L4.766,21.677C4.905,21.824 5.144,21.832 5.296,21.691C5.448,21.552 5.453,21.313 5.312,21.161L4.187,19.965C4.117,19.891 4.023,19.848 3.921,19.845Z" style="fill:white;"/>
        <path d="M3.894,19.845C3.796,19.852 3.707,19.895 3.641,19.965L2.519,21.161C2.375,21.313 2.382,21.552 2.535,21.691C2.687,21.832 2.921,21.824 3.066,21.677L4.187,20.481C4.296,20.372 4.323,20.204 4.262,20.063C4.194,19.922 4.051,19.836 3.894,19.845ZM26.793,18.043C26.585,18.043 26.418,18.211 26.418,18.418C26.418,18.625 26.585,18.793 26.793,18.793L29.035,18.793C29.242,18.793 29.41,18.625 29.41,18.418C29.41,18.211 29.242,18.043 29.035,18.043L26.793,18.043Z" style="fill:white;"/>
        <path d="M26.777,18.043C26.569,18.047 26.405,18.215 26.41,18.422L26.41,21.418C26.41,21.625 26.578,21.793 26.785,21.793C26.992,21.793 27.16,21.625 27.16,21.418L27.16,18.422C27.16,18.32 27.121,18.223 27.051,18.152C26.977,18.082 26.878,18.043 26.777,18.043Z" style="fill:white;"/>
        <path d="M26.793,19.543C26.585,19.543 26.418,19.711 26.418,19.918C26.418,20.125 26.585,20.293 26.793,20.293L28.434,20.293C28.641,20.293 28.809,20.125 28.809,19.918C28.809,19.711 28.641,19.543 28.434,19.543L26.793,19.543ZM26.793,21.043C26.585,21.043 26.418,21.211 26.418,21.418C26.418,21.625 26.585,21.793 26.793,21.793L29.035,21.793C29.242,21.793 29.41,21.625 29.41,21.418C29.41,21.211 29.242,21.043 29.035,21.043L26.793,21.043Z" style="fill:white;"/>
    </g>
</svg>
