<?xml version="1.0" encoding="UTF-8" standalone="no"?>
<!DOCTYPE svg PUBLIC "-//W3C//DTD SVG 1.1//EN" "http://www.w3.org/Graphics/SVG/1.1/DTD/svg11.dtd">
<svg width="100%" height="100%" viewBox="0 0 152 154" version="1.1" xmlns="http://www.w3.org/2000/svg" xmlns:xlink="http://www.w3.org/1999/xlink" xml:space="preserve" xmlns:serif="http://www.serif.com/" style="fill-rule:evenodd;clip-rule:evenodd;stroke-linejoin:round;stroke-miterlimit:2;">
    <path d="M75.588,0.82C33.844,0.82 0,34.664 0,76.408C0,118.158 33.844,152.003 75.588,152.003C117.338,152.003 151.183,118.159 151.183,76.408C151.183,34.664 117.339,0.82 75.588,0.82" style="fill:rgb(238,42,34);"/>
    <path d="M141.735,76.408C141.735,112.94 112.12,142.549 75.593,142.549C39.063,142.549 9.448,112.94 9.448,76.408C9.448,39.883 39.063,10.268 75.593,10.268C112.12,10.268 141.735,39.883 141.735,76.408" style="fill:rgb(37,72,127);"/>
    <path d="M94.459,54.398C91.625,61.023 79.265,53.549 74.969,58.763C74.74,55.779 74.593,52.836 75.307,50.367C82.833,49.153 86.51,56.028 94.459,54.398M110.25,63.804C116.88,64.117 120.781,67.164 126.041,68.845C122.385,71.805 117.5,67.809 113.609,68.508C112.286,68.747 111.516,69.345 110.251,70.19L110.251,63.804M41.708,64.476C47.875,64.914 52.609,66.788 55.145,70.861C51.598,69.544 45.64,68.121 41.708,70.19L41.708,64.476" style="fill:white;"/>
    <path d="M41.708,70.19C45.64,68.121 51.598,69.544 55.145,70.861C52.609,66.788 47.875,64.914 41.708,64.476L41.708,70.19ZM110.251,70.19C111.516,69.345 112.286,68.747 113.609,68.508C117.5,67.809 122.385,71.804 126.041,68.845C120.781,67.164 116.881,64.117 110.251,63.805L110.251,70.19ZM71.948,63.804L69.26,63.804C69.041,65.268 69.697,67.602 68.921,68.508C67.391,68.268 65.995,68.408 65.229,68.175C65.427,66.288 65.047,64.992 64.552,63.805L57.833,63.805C58.735,67.497 58.749,73.861 58.843,77.241C57.579,77.503 57.235,76.836 56.156,76.908C55.631,78.065 55.364,79.481 55.484,81.278C54.574,81.069 52.817,81.705 52.459,80.94C53.041,79.263 53.104,78.747 53.131,76.236C50.76,75.804 48.724,75.044 45.741,75.226C45.521,76.914 46.177,79.476 45.401,80.606C44.573,80.648 43.781,80.653 43.385,80.268C43.797,78.773 43.749,76.825 43.724,74.893C43.374,74.121 41.323,75.055 41.036,74.221C40.557,70.596 41.416,66.492 39.693,64.476C38.527,66.893 38.995,70.951 38.343,73.883C37.276,73.596 37.073,74.179 36.667,74.555C37.292,86.102 34.214,97.288 32.297,108.831C40.735,112.012 56.323,113.247 64.552,113.195C61.942,118.648 58.531,123.305 56.156,128.986C58,128.866 60.271,130.096 61.864,129.997C64.161,125.012 64.229,117.804 66.907,113.195C65.177,110.195 65.473,101.809 66.907,98.752L84.04,98.752C84.43,102.888 85.556,107.94 84.713,111.517C84.135,113.981 84.333,113.705 85.384,115.888C87.526,120.32 88.911,126.315 91.77,129.998C93.942,129.258 96.702,129.107 97.483,126.976C93.453,122.153 89.082,117.675 85.723,112.19C97.067,112.003 106.259,109.659 116.296,108.159C114.363,97.117 112.016,87.585 111.931,74.555C111.119,73.888 110.301,75.143 109.578,74.221C109.942,69.7 108.791,68.752 108.906,64.476C106.206,66.779 108.234,71.779 106.89,75.226L105.207,75.226C105.468,77.164 104.411,78.429 105.207,79.935C103.723,79.367 102.854,81.132 102.187,80.268L102.187,75.898C99.442,75.621 97.583,76.227 95.463,76.569L95.463,80.94C93.556,80.679 92.953,81.612 92.108,80.94C92.171,79.31 92.182,77.727 91.431,76.908C89.89,76.721 87.968,77.908 86.728,76.908C88.082,77.138 88.644,76.585 89.754,76.569C89.275,72.102 89.827,68.164 90.759,62.799C88.969,62.336 85.311,63.736 83.369,63.132C82.832,64.502 83.155,66.727 82.363,67.836C81.009,67.621 78.791,68.273 77.993,67.503C78.483,66.008 77.989,65.528 77.993,63.804C76.973,63.596 75.097,64.236 74.635,63.471C74.072,59.575 74.472,55.533 73.291,51.711L72.619,51.711C72.624,56.044 72.114,60.861 71.947,63.804L71.948,63.804ZM75.307,50.367C74.593,52.836 74.74,55.779 74.969,58.763C79.265,53.549 91.625,61.023 94.459,54.398C86.51,56.028 82.833,49.153 75.307,50.367" style="fill:white;"/>
    <path d="M41.708,70.19C45.64,68.121 51.598,69.544 55.145,70.861C52.609,66.788 47.875,64.914 41.708,64.476L41.708,70.19ZM110.251,70.19C111.516,69.345 112.286,68.747 113.609,68.508C117.5,67.809 122.385,71.804 126.041,68.845C120.781,67.164 116.881,64.117 110.251,63.805L110.251,70.19ZM75.307,50.367C74.593,52.836 74.74,55.779 74.969,58.763C79.265,53.549 91.625,61.023 94.459,54.398C86.51,56.028 82.833,49.153 75.307,50.367M64.552,113.195C61.942,118.648 58.531,123.305 56.156,128.986C58,128.866 60.271,130.096 61.864,129.997C64.161,125.012 64.229,117.804 66.907,113.195L64.552,113.195ZM84.714,111.517C84.136,113.981 84.334,113.705 85.385,115.888C87.527,120.32 88.912,126.315 91.771,129.998C93.943,129.258 96.703,129.107 97.484,126.976C93.454,122.153 89.083,117.675 85.724,112.19L84.714,111.517" style="fill:rgb(247,239,39);"/>
    <path d="M61.193,77.241C65.197,77.112 72.193,77.32 75.979,77.581C73.703,78.06 75.912,79.451 75.307,81.951L71.947,81.951L71.947,78.252C70.875,77.205 68.26,78.279 65.896,77.919C66.364,78.981 66.364,80.883 65.896,81.951L62.536,81.951C62.031,81.205 63.552,77.075 61.193,77.241M85.385,77.241C84.86,78.455 85.719,80.309 84.714,81.612C83.651,82.008 83.24,81.402 82.027,81.951L82.027,78.252C81.224,76.94 77.214,78.664 76.984,77.58C79.151,76.836 82.667,77.44 85.385,77.241M73.625,86.653C73.292,87.476 73.516,87.372 73.292,88.669C72.697,88.476 71.317,89.075 71.276,88.336C71.683,87.398 72.479,86.851 73.626,86.653M75.979,86.653C77.5,86.476 78.172,87.148 77.995,88.669L75.64,88.669C75.937,87.481 75.683,87.845 75.979,86.653M98.156,87.997C101.303,89.779 102.369,93.643 102.86,98.075C99.995,97.903 97.797,98.393 95.464,98.752C95.724,94.607 96.604,91.492 98.156,87.997M51.115,88.67C53.973,90.621 54.656,94.757 54.473,99.757C51.588,100.028 50.745,99.227 47.083,99.419C47.416,94.825 49.51,91.992 51.115,88.669M71.276,90.684L73.626,90.684C73.636,91.476 73.046,91.674 73.292,92.7L71.276,92.7L71.276,90.684M75.979,90.684L77.995,90.684L77.995,92.7C76.484,92.867 75.651,92.356 75.979,90.684M80.683,91.356L82.027,91.356L82.027,92.7C80.869,92.96 80.421,92.512 80.683,91.356M67.24,94.716L68.584,94.716L68.584,96.398L67.24,96.398L67.24,94.716M71.276,94.716L73.292,94.716L73.292,96.398L71.276,96.398L71.276,94.716M75.979,94.716L77.995,94.716L77.995,96.398L75.979,96.398L75.979,94.716M80.683,94.716C81.697,94.82 83.297,94.346 83.369,95.388C83.391,96.643 81.875,96.356 80.683,96.398L80.683,94.716" style="fill:rgb(37,72,127);"/>
    <g transform="matrix(0.738892,0,0,0.765697,64.1777,15.5226)">
        <path d="M15.914,0.043C14.878,0.047 14.043,0.883 14.039,1.918C14.039,2.949 14.882,3.793 15.914,3.793C16.944,3.793 17.789,2.949 17.789,1.918C17.789,0.888 16.944,0.043 15.914,0.043ZM15.914,0.793C16.539,0.793 17.039,1.293 17.039,1.918C17.039,2.543 16.539,3.043 15.914,3.043C15.612,3.043 15.328,2.927 15.117,2.715C14.905,2.504 14.789,2.22 14.789,1.918C14.789,1.293 15.289,0.793 15.914,0.793Z" style="fill:white;fill-rule:nonzero;"/>
        <path d="M15.914,2.293C16.328,2.293 16.664,2.629 16.664,3.043L16.664,4.543C16.664,4.957 16.328,5.293 15.914,5.293C15.5,5.293 15.164,4.957 15.164,4.543L15.164,3.043C15.164,2.629 15.5,2.293 15.914,2.293Z" style="fill:white;fill-rule:nonzero;"/>
        <path d="M15.914,12.493C11.617,12.493 8.117,15.993 8.117,20.29C8.117,24.59 11.617,28.086 15.914,28.086C20.21,28.086 23.71,24.59 23.71,20.29C23.71,15.993 20.21,12.493 15.914,12.493ZM15.914,13.691C17.664,13.691 19.344,14.388 20.582,15.622C21.819,16.859 22.512,18.54 22.512,20.29C22.512,22.04 21.819,23.72 20.582,24.957C19.344,26.195 17.664,26.891 15.914,26.888C14.164,26.891 12.484,26.195 11.246,24.957C10.007,23.72 9.316,22.04 9.316,20.29C9.316,18.54 10.007,16.859 11.246,15.622C12.484,14.383 14.164,13.691 15.914,13.691Z" style="fill:white;fill-rule:nonzero;"/>
        <path d="M15.914,4.629C7.273,4.629 0.25,11.649 0.25,20.293C0.25,28.938 7.273,35.958 15.914,35.958C24.559,35.958 31.578,28.938 31.578,20.293C31.578,11.649 24.559,4.629 15.914,4.629ZM15.914,5.957C23.839,5.957 30.25,12.368 30.25,20.293C30.25,28.22 23.839,34.629 15.914,34.629C7.987,34.629 1.578,28.22 1.578,20.293C1.578,12.368 7.987,5.957 15.914,5.957Z" style="fill:white;fill-rule:nonzero;"/>
        <path d="M24.605,11.599L18.246,22.199L7.648,28.559L14.007,17.957L24.605,11.599Z" style="fill:rgb(0,182,227);fill-rule:nonzero;"/>
        <path d="M18.246,22.199L7.648,28.559L14.007,17.957L18.246,22.199Z" style="fill:rgb(255,69,0);fill-rule:nonzero;"/>
        <path d="M17.109,21.066C16.523,21.652 15.573,21.652 14.987,21.066C14.402,20.481 14.402,19.531 14.987,18.945C15.573,18.359 16.523,18.359 17.109,18.945C17.694,19.531 17.694,20.481 17.109,21.066Z" style="fill:white;fill-rule:nonzero;"/>
        <path d="M14.785,6.793C14.578,6.797 14.414,6.965 14.414,7.172L14.414,10.165C14.414,10.372 14.582,10.54 14.789,10.54C14.996,10.54 15.164,10.372 15.164,10.165L15.164,7.172C15.168,7.07 15.125,6.973 15.055,6.902C14.984,6.832 14.887,6.793 14.785,6.793ZM17.035,6.793C16.828,6.797 16.664,6.965 16.664,7.172L16.664,10.165C16.664,10.372 16.832,10.54 17.039,10.54C17.246,10.54 17.414,10.372 17.414,10.165L17.414,7.172C17.418,7.07 17.375,6.973 17.305,6.902C17.234,6.832 17.137,6.793 17.035,6.793Z" style="fill:white;"/>
        <path d="M14.766,6.797C14.625,6.806 14.503,6.888 14.444,7.016C14.387,7.141 14.405,7.29 14.487,7.398L16.737,10.388C16.862,10.556 17.098,10.586 17.266,10.461C17.43,10.336 17.464,10.102 17.339,9.938L15.089,6.945C15.016,6.845 14.891,6.786 14.766,6.797ZM15.617,30.043C15.41,30.043 15.242,30.211 15.242,30.418C15.242,30.625 15.41,30.793 15.617,30.793L17.03,30.793C17.237,30.793 17.405,30.625 17.405,30.418C17.405,30.211 17.237,30.043 17.03,30.043L15.617,30.043ZM14.796,33.043C14.589,33.043 14.421,33.211 14.421,33.418C14.421,33.625 14.589,33.793 14.796,33.793L16.285,33.793C16.492,33.793 16.66,33.625 16.66,33.418C16.66,33.211 16.492,33.043 16.285,33.043L14.796,33.043ZM15.546,31.543C15.339,31.543 15.171,31.711 15.171,31.918C15.171,32.125 15.339,32.293 15.546,32.293L16.289,32.293C16.496,32.293 16.664,32.125 16.664,31.918C16.664,31.711 16.496,31.543 16.289,31.543L15.546,31.543Z" style="fill:white;"/>
        <path d="M16.273,31.543C16.066,31.543 15.898,31.711 15.898,31.918C15.898,32.125 16.066,32.293 16.273,32.293C16.5,32.293 16.664,32.458 16.664,32.668C16.664,32.879 16.5,33.043 16.273,33.043C16.066,33.043 15.898,33.211 15.898,33.418C15.898,33.625 16.066,33.793 16.273,33.793C16.894,33.793 17.414,33.29 17.414,32.668C17.414,32.047 16.894,31.543 16.273,31.543Z" style="fill:white;fill-rule:nonzero;"/>
        <path d="M15.559,30.043C14.941,30.043 14.418,30.547 14.418,31.168C14.418,31.79 14.941,32.293 15.559,32.293C15.769,32.293 15.934,32.125 15.934,31.918C15.934,31.711 15.769,31.543 15.559,31.543C15.335,31.543 15.168,31.379 15.168,31.168C15.168,30.957 15.335,30.793 15.559,30.793C15.769,30.793 15.934,30.625 15.934,30.418C15.934,30.211 15.769,30.043 15.559,30.043Z" style="fill:white;fill-rule:nonzero;"/>
        <path d="M2.785,18.047C2.578,18.047 2.414,18.22 2.414,18.427L2.414,21.418C2.414,21.625 2.582,21.793 2.789,21.793C2.996,21.793 3.164,21.625 3.164,21.418L3.164,18.427C3.168,18.324 3.125,18.227 3.055,18.152C2.984,18.082 2.887,18.043 2.785,18.047ZM5.03,18.047C4.828,18.047 4.66,18.22 4.664,18.427L4.664,21.418C4.664,21.625 4.832,21.793 5.039,21.793C5.246,21.793 5.414,21.625 5.414,21.418L5.414,18.427C5.414,18.324 5.375,18.227 5.305,18.152C5.23,18.082 5.132,18.043 5.03,18.047Z" style="fill:white;"/>
        <path d="M3.921,19.845C3.769,19.84 3.628,19.931 3.566,20.066C3.503,20.207 3.535,20.372 3.641,20.481L4.766,21.677C4.905,21.824 5.144,21.832 5.296,21.691C5.448,21.552 5.453,21.313 5.312,21.161L4.187,19.965C4.117,19.891 4.023,19.848 3.921,19.845Z" style="fill:white;"/>
        <path d="M3.894,19.845C3.796,19.852 3.707,19.895 3.641,19.965L2.519,21.161C2.375,21.313 2.382,21.552 2.535,21.691C2.687,21.832 2.921,21.824 3.066,21.677L4.187,20.481C4.296,20.372 4.323,20.204 4.262,20.063C4.194,19.922 4.051,19.836 3.894,19.845ZM26.793,18.043C26.585,18.043 26.418,18.211 26.418,18.418C26.418,18.625 26.585,18.793 26.793,18.793L29.035,18.793C29.242,18.793 29.41,18.625 29.41,18.418C29.41,18.211 29.242,18.043 29.035,18.043L26.793,18.043Z" style="fill:white;"/>
        <path d="M26.777,18.043C26.569,18.047 26.405,18.215 26.41,18.422L26.41,21.418C26.41,21.625 26.578,21.793 26.785,21.793C26.992,21.793 27.16,21.625 27.16,21.418L27.16,18.422C27.16,18.32 27.121,18.223 27.051,18.152C26.977,18.082 26.878,18.043 26.777,18.043Z" style="fill:white;"/>
        <path d="M26.793,19.543C26.585,19.543 26.418,19.711 26.418,19.918C26.418,20.125 26.585,20.293 26.793,20.293L28.434,20.293C28.641,20.293 28.809,20.125 28.809,19.918C28.809,19.711 28.641,19.543 28.434,19.543L26.793,19.543ZM26.793,21.043C26.585,21.043 26.418,21.211 26.418,21.418C26.418,21.625 26.585,21.793 26.793,21.793L29.035,21.793C29.242,21.793 29.41,21.625 29.41,21.418C29.41,21.211 29.242,21.043 29.035,21.043L26.793,21.043Z" style="fill:white;"/>
    </g>
</svg>
