<?xml version="1.0" encoding="UTF-8" standalone="no"?>
<!DOCTYPE svg PUBLIC "-//W3C//DTD SVG 1.1//EN" "http://www.w3.org/Graphics/SVG/1.1/DTD/svg11.dtd">
<svg width="100%" height="100%" viewBox="0 0 152 154" version="1.1" xmlns="http://www.w3.org/2000/svg" xmlns:xlink="http://www.w3.org/1999/xlink" xml:space="preserve" xmlns:serif="http://www.serif.com/" style="fill-rule:evenodd;clip-rule:evenodd;stroke-linejoin:round;stroke-miterlimit:2;">
    <path d="M75.588,0.82C33.844,0.82 0,34.664 0,76.408C0,118.158 33.844,152.003 75.588,152.003C117.338,152.003 151.183,118.159 151.183,76.408C151.183,34.664 117.339,0.82 75.588,0.82" style="fill:rgb(238,42,34);"/>
    <path d="M141.735,76.408C141.735,112.94 112.12,142.549 75.593,142.549C39.063,142.549 9.448,112.94 9.448,76.408C9.448,39.883 39.063,10.268 75.593,10.268C112.12,10.268 141.735,39.883 141.735,76.408" style="fill:rgb(37,72,127);"/>
    <path d="M60.11,48.732C71.907,50.331 60.948,66.393 59.104,71.914C55.932,69.992 54.334,67.039 54.402,64.184C54.536,57.986 62.307,54.596 60.109,48.732M31.885,109.2C33.161,106.486 35.292,101.575 33.229,99.455C36.688,99.695 38.161,101.914 38.943,104.831L38.943,110.544C38.573,110.836 38.609,111.894 38.943,112.894C38.593,115.481 39.427,116.888 40.625,117.934C40.557,118.205 40.286,118.268 40.286,118.607C39.588,119.268 38.057,118.861 37.266,118.607C34.62,116.32 31.677,114.336 31.886,109.2" style="fill:rgb(247,239,39);"/>
    <path d="M109.505,72.919C107.407,71.809 105.817,72.216 102.781,72.247C100.912,72.841 99.484,73.883 98.749,75.612C96.708,81.622 94.329,87.304 92.031,93.069C90.901,94.179 90.469,95.986 90.016,97.773C88.448,103.153 86.052,107.7 84.303,112.893C85.636,113.247 86,114.56 87.661,114.575C89.151,109.679 91.183,105.325 93.041,100.798C94.479,100.7 95.26,101.268 96.063,101.804C96.803,103.679 98.453,101.21 98.079,99.788C99.885,94.429 102.24,89.618 104.125,84.336C102.703,83.856 101.276,83.383 100.093,82.659C101.385,78.017 102.917,73.617 108.833,73.596C108.765,74.888 110.937,73.951 111.521,74.602C111.208,73.679 110.459,73.195 109.505,72.919ZM110.177,62.841C114.636,62.82 118.421,62.127 122.609,61.836C116.579,61.086 108.896,61.549 102.781,61.836C102.735,62.669 102.959,63.226 103.453,63.512C105.339,62.935 107.583,62.716 110.177,62.842L110.177,62.841ZM77.921,76.284C76.183,78.017 74.047,79.351 72.208,80.981C68.902,82.825 67.183,86.252 63.807,88.028C63.517,87.538 63.303,86.965 62.464,87.023C61.094,89.683 58.817,91.445 57.76,94.413C59.115,94.183 58.584,95.831 59.776,95.757C61.926,94.549 63.677,92.94 65.823,91.727C66.131,90.075 64.416,90.445 64.479,89.039C74.719,80.377 84.161,69.804 101.437,68.888C94.62,66.898 87.781,70.678 82.959,72.918C81.029,73.609 79.298,74.765 77.921,76.284ZM96.735,64.184C95.552,62.539 97.407,61.06 98.079,60.154C106.864,61.434 116.459,59.705 126.303,60.825L126.303,66.872C124.464,67.836 121.588,67.757 119.583,68.555C120.495,73.023 121.541,77.351 122.271,81.986C121.193,82.268 119.292,83.471 118.241,82.659C117.307,81.356 115.781,78.94 114.881,76.617C114.328,75.377 113.735,74.179 112.864,73.257C112.307,72.804 111.708,72.398 111.521,71.575C110.407,72.607 112.431,73.331 112.527,74.268C112.995,74.695 112.672,75.914 113.536,75.945C115.364,77.805 115.5,82.585 114.208,85.008C112.969,86.903 112.063,89.132 111.521,91.727C108.214,101.19 104.584,110.325 100.765,119.279C96.677,119.752 93.453,118.445 91.36,117.935C89.864,117.08 88.708,115.883 86.317,115.919C84.765,114.565 82.844,113.569 81.281,112.221C83.593,106.809 85.735,101.221 88,95.757C88.453,95.539 88.625,95.039 88.672,94.414C91.902,86.669 93.562,77.361 99.427,72.247C89.76,71.659 82.995,76.877 77.251,81.315C76.437,81.455 76.516,80.705 75.568,80.981C72.495,83.617 69.812,86.643 66.833,89.371C66.828,90.497 67.927,90.523 67.839,91.727C65.167,93.867 62.016,95.533 59.437,97.773C58.38,96.257 56.807,95.257 56.079,93.403C57.505,89.903 60.088,87.56 62.125,84.669C63.427,84.377 62.677,86.137 64.145,85.679C67.125,83.508 69.031,80.269 72.208,78.299C72.943,77.575 74.402,77.575 74.563,76.284C80.416,71.314 88.312,66.841 97.407,66.2L98.079,66.2C98.136,65.252 97.073,65.419 97.073,64.523C97.553,64.388 97.64,64.117 98.079,64.523C100.079,67.528 104.073,62.965 100.765,61.497C97.656,59.653 97.839,63.727 96.735,64.184" style="fill:white;"/>
    <path d="M43.645,107.179C42.01,106.121 40.323,105.512 39.615,104.159C35.656,96.575 45.964,89.408 41.297,82.659C40.505,82.648 40.307,83.236 39.281,82.992C41.431,79.7 46.083,83.502 47.344,85.342C50.552,82.06 53.145,78.164 53.391,71.914C56.26,73.298 56.073,77.747 58.765,79.304C61.703,72.383 65.224,66.054 72.541,63.512C71.141,66.7 69.495,71.882 71.536,75.612C71.473,76.788 72.672,76.716 72.88,77.627C72.5,77.695 72.355,77.997 72.208,78.298C69.031,80.268 67.125,83.508 64.145,85.678C62.677,86.138 63.427,84.378 62.125,84.669C60.088,87.559 57.505,89.903 56.079,93.403C56.807,95.257 58.38,96.257 59.437,97.773C62.017,95.533 65.167,93.867 67.839,91.727C67.927,90.523 66.829,90.497 66.833,89.372C69.812,86.642 72.495,83.617 75.568,80.982C76.516,80.705 76.438,81.455 77.251,81.315C77.437,81.798 77.771,82.132 78.255,82.32C79.057,83.981 80.219,85.284 81.615,86.35C83.01,87.195 83.579,88.867 84.973,89.71C86.031,87.121 82.683,84.345 82.959,81.315C83.151,79.2 84.755,77.555 86.656,77.288C86.083,80.658 88.214,81.325 88.672,83.664C89.12,86.908 87.479,88.069 86.317,89.71C85.584,90.179 84.875,91.107 85.984,91.727C86.469,93.257 87.14,94.607 88,95.757C85.735,101.221 83.593,106.809 81.281,112.221C82.844,113.569 84.765,114.565 86.317,115.919C84.729,118.809 82.38,120.94 79.598,122.637C76.958,124.544 71.312,124.205 68.178,122.971C70.021,119.653 73.276,117.517 73.552,112.56C73.771,108.675 72.755,104.486 74.562,100.798L74.896,100.798C74.855,100.195 75.306,100.091 75.229,99.455C73.776,99.903 72.151,100.184 71.197,101.132C65.677,103.793 61.891,110.602 64.145,118.945C60.917,118.132 60.407,114.617 58.432,112.56C57.817,110.93 58,108.512 57.088,107.179C56.625,108.399 55.609,109.065 55.407,110.544C55.017,110.596 55.125,111.154 55.073,111.549L54.735,111.549C54.516,112.903 53.948,115.679 54.735,116.924C54.636,119.492 55.937,120.654 56.416,122.637C50.495,123.169 47.063,118.341 44.99,113.903C44.027,111.877 44.74,108.216 43.645,107.179" style="fill:rgb(247,239,39);"/>
    <g transform="matrix(0.738892,0,0,0.765697,64.1777,15.5226)">
        <path d="M15.914,0.043C14.878,0.047 14.043,0.883 14.039,1.918C14.039,2.949 14.882,3.793 15.914,3.793C16.944,3.793 17.789,2.949 17.789,1.918C17.789,0.888 16.944,0.043 15.914,0.043ZM15.914,0.793C16.539,0.793 17.039,1.293 17.039,1.918C17.039,2.543 16.539,3.043 15.914,3.043C15.612,3.043 15.328,2.927 15.117,2.715C14.905,2.504 14.789,2.22 14.789,1.918C14.789,1.293 15.289,0.793 15.914,0.793Z" style="fill:white;fill-rule:nonzero;"/>
        <path d="M15.914,2.293C16.328,2.293 16.664,2.629 16.664,3.043L16.664,4.543C16.664,4.957 16.328,5.293 15.914,5.293C15.5,5.293 15.164,4.957 15.164,4.543L15.164,3.043C15.164,2.629 15.5,2.293 15.914,2.293Z" style="fill:white;fill-rule:nonzero;"/>
        <path d="M15.914,12.493C11.617,12.493 8.117,15.993 8.117,20.29C8.117,24.59 11.617,28.086 15.914,28.086C20.21,28.086 23.71,24.59 23.71,20.29C23.71,15.993 20.21,12.493 15.914,12.493ZM15.914,13.691C17.664,13.691 19.344,14.388 20.582,15.622C21.819,16.859 22.512,18.54 22.512,20.29C22.512,22.04 21.819,23.72 20.582,24.957C19.344,26.195 17.664,26.891 15.914,26.888C14.164,26.891 12.484,26.195 11.246,24.957C10.007,23.72 9.316,22.04 9.316,20.29C9.316,18.54 10.007,16.859 11.246,15.622C12.484,14.383 14.164,13.691 15.914,13.691Z" style="fill:white;fill-rule:nonzero;"/>
        <path d="M15.914,4.629C7.273,4.629 0.25,11.649 0.25,20.293C0.25,28.938 7.273,35.958 15.914,35.958C24.559,35.958 31.578,28.938 31.578,20.293C31.578,11.649 24.559,4.629 15.914,4.629ZM15.914,5.957C23.839,5.957 30.25,12.368 30.25,20.293C30.25,28.22 23.839,34.629 15.914,34.629C7.987,34.629 1.578,28.22 1.578,20.293C1.578,12.368 7.987,5.957 15.914,5.957Z" style="fill:white;fill-rule:nonzero;"/>
        <path d="M24.605,11.599L18.246,22.199L7.648,28.559L14.007,17.957L24.605,11.599Z" style="fill:rgb(0,182,227);fill-rule:nonzero;"/>
        <path d="M18.246,22.199L7.648,28.559L14.007,17.957L18.246,22.199Z" style="fill:rgb(255,69,0);fill-rule:nonzero;"/>
        <path d="M17.109,21.066C16.523,21.652 15.573,21.652 14.987,21.066C14.402,20.481 14.402,19.531 14.987,18.945C15.573,18.359 16.523,18.359 17.109,18.945C17.694,19.531 17.694,20.481 17.109,21.066Z" style="fill:white;fill-rule:nonzero;"/>
        <path d="M14.785,6.793C14.578,6.797 14.414,6.965 14.414,7.172L14.414,10.165C14.414,10.372 14.582,10.54 14.789,10.54C14.996,10.54 15.164,10.372 15.164,10.165L15.164,7.172C15.168,7.07 15.125,6.973 15.055,6.902C14.984,6.832 14.887,6.793 14.785,6.793ZM17.035,6.793C16.828,6.797 16.664,6.965 16.664,7.172L16.664,10.165C16.664,10.372 16.832,10.54 17.039,10.54C17.246,10.54 17.414,10.372 17.414,10.165L17.414,7.172C17.418,7.07 17.375,6.973 17.305,6.902C17.234,6.832 17.137,6.793 17.035,6.793Z" style="fill:white;"/>
        <path d="M14.766,6.797C14.625,6.806 14.503,6.888 14.444,7.016C14.387,7.141 14.405,7.29 14.487,7.398L16.737,10.388C16.862,10.556 17.098,10.586 17.266,10.461C17.43,10.336 17.464,10.102 17.339,9.938L15.089,6.945C15.016,6.845 14.891,6.786 14.766,6.797ZM15.617,30.043C15.41,30.043 15.242,30.211 15.242,30.418C15.242,30.625 15.41,30.793 15.617,30.793L17.03,30.793C17.237,30.793 17.405,30.625 17.405,30.418C17.405,30.211 17.237,30.043 17.03,30.043L15.617,30.043ZM14.796,33.043C14.589,33.043 14.421,33.211 14.421,33.418C14.421,33.625 14.589,33.793 14.796,33.793L16.285,33.793C16.492,33.793 16.66,33.625 16.66,33.418C16.66,33.211 16.492,33.043 16.285,33.043L14.796,33.043ZM15.546,31.543C15.339,31.543 15.171,31.711 15.171,31.918C15.171,32.125 15.339,32.293 15.546,32.293L16.289,32.293C16.496,32.293 16.664,32.125 16.664,31.918C16.664,31.711 16.496,31.543 16.289,31.543L15.546,31.543Z" style="fill:white;"/>
        <path d="M16.273,31.543C16.066,31.543 15.898,31.711 15.898,31.918C15.898,32.125 16.066,32.293 16.273,32.293C16.5,32.293 16.664,32.458 16.664,32.668C16.664,32.879 16.5,33.043 16.273,33.043C16.066,33.043 15.898,33.211 15.898,33.418C15.898,33.625 16.066,33.793 16.273,33.793C16.894,33.793 17.414,33.29 17.414,32.668C17.414,32.047 16.894,31.543 16.273,31.543Z" style="fill:white;fill-rule:nonzero;"/>
        <path d="M15.559,30.043C14.941,30.043 14.418,30.547 14.418,31.168C14.418,31.79 14.941,32.293 15.559,32.293C15.769,32.293 15.934,32.125 15.934,31.918C15.934,31.711 15.769,31.543 15.559,31.543C15.335,31.543 15.168,31.379 15.168,31.168C15.168,30.957 15.335,30.793 15.559,30.793C15.769,30.793 15.934,30.625 15.934,30.418C15.934,30.211 15.769,30.043 15.559,30.043Z" style="fill:white;fill-rule:nonzero;"/>
        <path d="M2.785,18.047C2.578,18.047 2.414,18.22 2.414,18.427L2.414,21.418C2.414,21.625 2.582,21.793 2.789,21.793C2.996,21.793 3.164,21.625 3.164,21.418L3.164,18.427C3.168,18.324 3.125,18.227 3.055,18.152C2.984,18.082 2.887,18.043 2.785,18.047ZM5.03,18.047C4.828,18.047 4.66,18.22 4.664,18.427L4.664,21.418C4.664,21.625 4.832,21.793 5.039,21.793C5.246,21.793 5.414,21.625 5.414,21.418L5.414,18.427C5.414,18.324 5.375,18.227 5.305,18.152C5.23,18.082 5.132,18.043 5.03,18.047Z" style="fill:white;"/>
        <path d="M3.921,19.845C3.769,19.84 3.628,19.931 3.566,20.066C3.503,20.207 3.535,20.372 3.641,20.481L4.766,21.677C4.905,21.824 5.144,21.832 5.296,21.691C5.448,21.552 5.453,21.313 5.312,21.161L4.187,19.965C4.117,19.891 4.023,19.848 3.921,19.845Z" style="fill:white;"/>
        <path d="M3.894,19.845C3.796,19.852 3.707,19.895 3.641,19.965L2.519,21.161C2.375,21.313 2.382,21.552 2.535,21.691C2.687,21.832 2.921,21.824 3.066,21.677L4.187,20.481C4.296,20.372 4.323,20.204 4.262,20.063C4.194,19.922 4.051,19.836 3.894,19.845ZM26.793,18.043C26.585,18.043 26.418,18.211 26.418,18.418C26.418,18.625 26.585,18.793 26.793,18.793L29.035,18.793C29.242,18.793 29.41,18.625 29.41,18.418C29.41,18.211 29.242,18.043 29.035,18.043L26.793,18.043Z" style="fill:white;"/>
        <path d="M26.777,18.043C26.569,18.047 26.405,18.215 26.41,18.422L26.41,21.418C26.41,21.625 26.578,21.793 26.785,21.793C26.992,21.793 27.16,21.625 27.16,21.418L27.16,18.422C27.16,18.32 27.121,18.223 27.051,18.152C26.977,18.082 26.878,18.043 26.777,18.043Z" style="fill:white;"/>
        <path d="M26.793,19.543C26.585,19.543 26.418,19.711 26.418,19.918C26.418,20.125 26.585,20.293 26.793,20.293L28.434,20.293C28.641,20.293 28.809,20.125 28.809,19.918C28.809,19.711 28.641,19.543 28.434,19.543L26.793,19.543ZM26.793,21.043C26.585,21.043 26.418,21.211 26.418,21.418C26.418,21.625 26.585,21.793 26.793,21.793L29.035,21.793C29.242,21.793 29.41,21.625 29.41,21.418C29.41,21.211 29.242,21.043 29.035,21.043L26.793,21.043Z" style="fill:white;"/>
    </g>
</svg>
