<?xml version="1.0" encoding="UTF-8" standalone="no"?>
<!DOCTYPE svg PUBLIC "-//W3C//DTD SVG 1.1//EN" "http://www.w3.org/Graphics/SVG/1.1/DTD/svg11.dtd">
<svg width="100%" height="100%" viewBox="0 0 152 154" version="1.1" xmlns="http://www.w3.org/2000/svg" xmlns:xlink="http://www.w3.org/1999/xlink" xml:space="preserve" xmlns:serif="http://www.serif.com/" style="fill-rule:evenodd;clip-rule:evenodd;stroke-linejoin:round;stroke-miterlimit:2;">
    <path d="M75.588,0.82C33.844,0.82 0,34.664 0,76.408C0,118.158 33.844,152.003 75.588,152.003C117.338,152.003 151.183,118.159 151.183,76.408C151.183,34.664 117.339,0.82 75.588,0.82" style="fill:rgb(238,42,34);"/>
    <path d="M141.735,76.408C141.735,112.94 112.12,142.549 75.593,142.549C39.063,142.549 9.448,112.94 9.448,76.408C9.448,39.883 39.063,10.268 75.593,10.268C112.12,10.268 141.735,39.883 141.735,76.408" style="fill:rgb(37,72,127);"/>
    <path d="M76.027,100.383C87.083,95.315 98.536,90.637 111.64,87.617C97.703,89.903 86.5,94.08 76.027,100.383ZM48.473,86.273C52.245,86.539 54.375,88.435 56.541,90.304C61.36,87.784 65.885,85.017 69.979,83.247C68.697,87.455 64.776,89.017 62.588,92.32C67.26,93.47 71.276,95.279 74.01,98.367C77.14,95.451 79.593,91.857 81.402,87.617C82.682,87.102 83.328,85.955 83.416,84.257C86.828,80.049 89.38,74.981 91.484,69.465C92.885,68.065 94.588,65.184 94.505,63.414C80.749,72.617 64.745,79.58 48.473,86.274L48.473,86.273ZM25.625,91.981C25.645,94.273 26.912,96.492 26.303,98.367C25.703,98.569 24.907,97.383 24.62,98.367C23.203,95.419 21.735,92.517 19.579,90.304C20.729,89.664 22.229,89.367 23.615,88.96C24.651,89.039 24.661,90.148 24.959,90.976C50.869,82.326 73.193,72.106 96.521,61.066C95.839,58.831 96.333,55.424 96.188,52.664C103.62,53.965 111.771,54.549 117.688,57.367C110.307,57.825 103.661,59.023 97.531,60.727C103.823,72.533 111.885,83.221 120.714,93.331C121.937,92.648 122.234,91.039 123.402,90.304C125,90.836 126.14,91.82 127.098,92.992C125.041,94.856 123.093,96.825 122.396,100.044C120.926,99.679 119.214,99.877 118.364,99.71C118.661,97.768 119.749,96.621 120.38,95.008C117.844,92.951 115.292,90.908 112.65,88.96C111.87,91.841 112.667,94.945 111.64,97.023C97.995,99.955 87.13,105.664 76.697,111.804C74.047,111.102 72.339,109.451 69.979,108.451C66.24,110.976 64.214,115.221 60.573,117.856C60.969,120.304 61.735,122.137 60.907,124.914C60.12,124.804 59.645,124.377 58.557,124.574C58.443,120.654 56.391,118.679 55.197,115.841C55.984,114.831 58.214,113.492 59.229,113.82C60.619,113.55 59.396,115.893 60.235,116.175C63.271,113.727 65.625,110.585 67.964,107.44C63.194,104.257 57.719,101.779 52.51,99.039C48.677,99.914 46.115,102.049 41.755,102.399C41.688,105.257 42.235,105.955 41.755,108.112C40.598,108.257 39.869,107.976 39.068,107.773C39.208,104.945 38.636,102.836 37.052,101.727C37.598,99.815 39.782,99.528 41.082,98.367C40.979,99.591 41.136,100.555 41.422,101.393C43.973,100.253 45.855,98.435 48.14,97.023C46.697,95.888 45.245,94.763 43.098,94.336C42.912,91.798 43.318,89.846 43.438,87.617C40.678,88.217 38.49,89.393 35.369,89.632C35.312,89.919 35.505,89.951 35.708,89.965C33.265,90.315 28.745,91.216 25.625,91.981" style="fill:white;"/>
    <path d="M120.714,93.33C121.937,92.648 122.234,91.039 123.402,90.304C125,90.836 126.14,91.82 127.098,92.992C125.041,94.856 123.093,96.825 122.396,100.044C120.926,99.679 119.214,99.877 118.364,99.71C118.661,97.768 119.749,96.621 120.38,95.008L120.714,93.33ZM60.574,117.856C60.969,120.304 61.734,122.137 60.907,124.914C60.12,124.804 59.645,124.377 58.557,124.574C58.443,120.654 56.391,118.679 55.197,115.841C55.984,114.831 58.214,113.492 59.229,113.82C60.619,113.55 59.396,115.893 60.235,116.175L60.574,117.856ZM41.754,102.398C41.688,105.258 42.234,105.955 41.754,108.112C40.598,108.257 39.869,107.976 39.068,107.773C39.208,104.945 38.636,102.836 37.052,101.727C37.598,99.815 39.782,99.528 41.082,98.367C40.979,99.591 41.136,100.555 41.422,101.393L41.754,102.398ZM25.626,91.981C25.646,94.273 26.913,96.492 26.304,98.367C25.704,98.569 24.908,97.383 24.621,98.367C23.204,95.419 21.736,92.517 19.58,90.304C20.73,89.664 22.23,89.367 23.616,88.96C24.652,89.039 24.662,90.148 24.96,90.976L25.626,91.981ZM96.522,61.065C95.84,58.831 96.334,55.424 96.189,52.664C103.621,53.965 111.772,54.549 117.689,57.367C110.308,57.825 103.662,59.023 97.532,60.727L96.522,61.065" style="fill:rgb(247,239,39);"/>
    <g transform="matrix(0.738892,0,0,0.765697,61.5167,15.5245)">
        <path d="M15.914,0.043C14.878,0.047 14.043,0.883 14.039,1.918C14.039,2.949 14.882,3.793 15.914,3.793C16.944,3.793 17.789,2.949 17.789,1.918C17.789,0.888 16.944,0.043 15.914,0.043ZM15.914,0.793C16.539,0.793 17.039,1.293 17.039,1.918C17.039,2.543 16.539,3.043 15.914,3.043C15.612,3.043 15.328,2.927 15.117,2.715C14.905,2.504 14.789,2.22 14.789,1.918C14.789,1.293 15.289,0.793 15.914,0.793Z" style="fill:white;fill-rule:nonzero;"/>
        <path d="M15.914,2.293C16.328,2.293 16.664,2.629 16.664,3.043L16.664,4.543C16.664,4.957 16.328,5.293 15.914,5.293C15.5,5.293 15.164,4.957 15.164,4.543L15.164,3.043C15.164,2.629 15.5,2.293 15.914,2.293Z" style="fill:white;fill-rule:nonzero;"/>
        <path d="M15.914,12.493C11.617,12.493 8.117,15.993 8.117,20.29C8.117,24.59 11.617,28.086 15.914,28.086C20.21,28.086 23.71,24.59 23.71,20.29C23.71,15.993 20.21,12.493 15.914,12.493ZM15.914,13.691C17.664,13.691 19.344,14.388 20.582,15.622C21.819,16.859 22.512,18.54 22.512,20.29C22.512,22.04 21.819,23.72 20.582,24.957C19.344,26.195 17.664,26.891 15.914,26.888C14.164,26.891 12.484,26.195 11.246,24.957C10.007,23.72 9.316,22.04 9.316,20.29C9.316,18.54 10.007,16.859 11.246,15.622C12.484,14.383 14.164,13.691 15.914,13.691Z" style="fill:white;fill-rule:nonzero;"/>
        <path d="M15.914,4.629C7.273,4.629 0.25,11.649 0.25,20.293C0.25,28.938 7.273,35.958 15.914,35.958C24.559,35.958 31.578,28.938 31.578,20.293C31.578,11.649 24.559,4.629 15.914,4.629ZM15.914,5.957C23.839,5.957 30.25,12.368 30.25,20.293C30.25,28.22 23.839,34.629 15.914,34.629C7.987,34.629 1.578,28.22 1.578,20.293C1.578,12.368 7.987,5.957 15.914,5.957Z" style="fill:white;fill-rule:nonzero;"/>
        <path d="M24.605,11.599L18.246,22.199L7.648,28.559L14.007,17.957L24.605,11.599Z" style="fill:rgb(0,182,227);fill-rule:nonzero;"/>
        <path d="M18.246,22.199L7.648,28.559L14.007,17.957L18.246,22.199Z" style="fill:rgb(255,69,0);fill-rule:nonzero;"/>
        <path d="M17.109,21.066C16.523,21.652 15.573,21.652 14.987,21.066C14.402,20.481 14.402,19.531 14.987,18.945C15.573,18.359 16.523,18.359 17.109,18.945C17.694,19.531 17.694,20.481 17.109,21.066Z" style="fill:white;fill-rule:nonzero;"/>
        <path d="M14.785,6.793C14.578,6.797 14.414,6.965 14.414,7.172L14.414,10.165C14.414,10.372 14.582,10.54 14.789,10.54C14.996,10.54 15.164,10.372 15.164,10.165L15.164,7.172C15.168,7.07 15.125,6.973 15.055,6.902C14.984,6.832 14.887,6.793 14.785,6.793ZM17.035,6.793C16.828,6.797 16.664,6.965 16.664,7.172L16.664,10.165C16.664,10.372 16.832,10.54 17.039,10.54C17.246,10.54 17.414,10.372 17.414,10.165L17.414,7.172C17.418,7.07 17.375,6.973 17.305,6.902C17.234,6.832 17.137,6.793 17.035,6.793Z" style="fill:white;"/>
        <path d="M14.766,6.797C14.625,6.806 14.503,6.888 14.444,7.016C14.387,7.141 14.405,7.29 14.487,7.398L16.737,10.388C16.862,10.556 17.098,10.586 17.266,10.461C17.43,10.336 17.464,10.102 17.339,9.938L15.089,6.945C15.016,6.845 14.891,6.786 14.766,6.797ZM15.617,30.043C15.41,30.043 15.242,30.211 15.242,30.418C15.242,30.625 15.41,30.793 15.617,30.793L17.03,30.793C17.237,30.793 17.405,30.625 17.405,30.418C17.405,30.211 17.237,30.043 17.03,30.043L15.617,30.043ZM14.796,33.043C14.589,33.043 14.421,33.211 14.421,33.418C14.421,33.625 14.589,33.793 14.796,33.793L16.285,33.793C16.492,33.793 16.66,33.625 16.66,33.418C16.66,33.211 16.492,33.043 16.285,33.043L14.796,33.043ZM15.546,31.543C15.339,31.543 15.171,31.711 15.171,31.918C15.171,32.125 15.339,32.293 15.546,32.293L16.289,32.293C16.496,32.293 16.664,32.125 16.664,31.918C16.664,31.711 16.496,31.543 16.289,31.543L15.546,31.543Z" style="fill:white;"/>
        <path d="M16.273,31.543C16.066,31.543 15.898,31.711 15.898,31.918C15.898,32.125 16.066,32.293 16.273,32.293C16.5,32.293 16.664,32.458 16.664,32.668C16.664,32.879 16.5,33.043 16.273,33.043C16.066,33.043 15.898,33.211 15.898,33.418C15.898,33.625 16.066,33.793 16.273,33.793C16.894,33.793 17.414,33.29 17.414,32.668C17.414,32.047 16.894,31.543 16.273,31.543Z" style="fill:white;fill-rule:nonzero;"/>
        <path d="M15.559,30.043C14.941,30.043 14.418,30.547 14.418,31.168C14.418,31.79 14.941,32.293 15.559,32.293C15.769,32.293 15.934,32.125 15.934,31.918C15.934,31.711 15.769,31.543 15.559,31.543C15.335,31.543 15.168,31.379 15.168,31.168C15.168,30.957 15.335,30.793 15.559,30.793C15.769,30.793 15.934,30.625 15.934,30.418C15.934,30.211 15.769,30.043 15.559,30.043Z" style="fill:white;fill-rule:nonzero;"/>
        <path d="M2.785,18.047C2.578,18.047 2.414,18.22 2.414,18.427L2.414,21.418C2.414,21.625 2.582,21.793 2.789,21.793C2.996,21.793 3.164,21.625 3.164,21.418L3.164,18.427C3.168,18.324 3.125,18.227 3.055,18.152C2.984,18.082 2.887,18.043 2.785,18.047ZM5.03,18.047C4.828,18.047 4.66,18.22 4.664,18.427L4.664,21.418C4.664,21.625 4.832,21.793 5.039,21.793C5.246,21.793 5.414,21.625 5.414,21.418L5.414,18.427C5.414,18.324 5.375,18.227 5.305,18.152C5.23,18.082 5.132,18.043 5.03,18.047Z" style="fill:white;"/>
        <path d="M3.921,19.845C3.769,19.84 3.628,19.931 3.566,20.066C3.503,20.207 3.535,20.372 3.641,20.481L4.766,21.677C4.905,21.824 5.144,21.832 5.296,21.691C5.448,21.552 5.453,21.313 5.312,21.161L4.187,19.965C4.117,19.891 4.023,19.848 3.921,19.845Z" style="fill:white;"/>
        <path d="M3.894,19.845C3.796,19.852 3.707,19.895 3.641,19.965L2.519,21.161C2.375,21.313 2.382,21.552 2.535,21.691C2.687,21.832 2.921,21.824 3.066,21.677L4.187,20.481C4.296,20.372 4.323,20.204 4.262,20.063C4.194,19.922 4.051,19.836 3.894,19.845ZM26.793,18.043C26.585,18.043 26.418,18.211 26.418,18.418C26.418,18.625 26.585,18.793 26.793,18.793L29.035,18.793C29.242,18.793 29.41,18.625 29.41,18.418C29.41,18.211 29.242,18.043 29.035,18.043L26.793,18.043Z" style="fill:white;"/>
        <path d="M26.777,18.043C26.569,18.047 26.405,18.215 26.41,18.422L26.41,21.418C26.41,21.625 26.578,21.793 26.785,21.793C26.992,21.793 27.16,21.625 27.16,21.418L27.16,18.422C27.16,18.32 27.121,18.223 27.051,18.152C26.977,18.082 26.878,18.043 26.777,18.043Z" style="fill:white;"/>
        <path d="M26.793,19.543C26.585,19.543 26.418,19.711 26.418,19.918C26.418,20.125 26.585,20.293 26.793,20.293L28.434,20.293C28.641,20.293 28.809,20.125 28.809,19.918C28.809,19.711 28.641,19.543 28.434,19.543L26.793,19.543ZM26.793,21.043C26.585,21.043 26.418,21.211 26.418,21.418C26.418,21.625 26.585,21.793 26.793,21.793L29.035,21.793C29.242,21.793 29.41,21.625 29.41,21.418C29.41,21.211 29.242,21.043 29.035,21.043L26.793,21.043Z" style="fill:white;"/>
    </g>
</svg>
