<?xml version="1.0" encoding="UTF-8" standalone="no"?>
<!DOCTYPE svg PUBLIC "-//W3C//DTD SVG 1.1//EN" "http://www.w3.org/Graphics/SVG/1.1/DTD/svg11.dtd">
<svg width="100%" height="100%" viewBox="0 0 152 154" version="1.1" xmlns="http://www.w3.org/2000/svg" xmlns:xlink="http://www.w3.org/1999/xlink" xml:space="preserve" xmlns:serif="http://www.serif.com/" style="fill-rule:evenodd;clip-rule:evenodd;stroke-linejoin:round;stroke-miterlimit:2;">
    <path d="M75.588,0.82C33.844,0.82 0,34.664 0,76.408C0,118.158 33.844,152.003 75.588,152.003C117.338,152.003 151.183,118.159 151.183,76.408C151.183,34.664 117.339,0.82 75.588,0.82" style="fill:rgb(67,65,161);"/>
    <path d="M141.735,76.408C141.735,112.94 112.12,142.549 75.593,142.549C39.063,142.549 9.448,112.94 9.448,76.408C9.448,39.883 39.063,10.268 75.593,10.268C112.12,10.268 141.735,39.883 141.735,76.408" style="fill:rgb(47,104,187);"/>
    <path d="M84.735,59.888C84.672,59.878 84.098,60.028 83.969,60.033C83.74,60.039 83.735,60.253 83.584,60.227L83.49,60.06C83.145,60.164 82.803,60.273 82.459,60.377C81.697,60.227 80.359,60.607 79.516,60.867C79.448,60.888 79.036,60.851 78.969,60.845C78.755,60.845 78.541,60.981 78.453,61.003C78.333,61.033 78.208,60.94 78.136,60.945C77.943,60.945 77.995,61.069 77.921,61.102C77.792,61.169 77.631,61.075 77.505,61.122C77.49,61.164 77.479,61.205 77.464,61.252C77.464,61.252 76.817,61.205 76.729,61.205C76.443,61.21 76.156,61.455 76,61.523C75.797,61.612 75.37,61.508 75.208,61.493C75.157,61.56 75.108,61.629 75.063,61.7C74.902,61.664 74.875,61.648 74.786,61.508C74.615,61.565 74.526,61.664 74.396,61.705C74.24,61.752 74.14,61.607 74.083,61.643C74.016,61.732 73.953,61.825 73.891,61.919C73.745,61.861 72.786,61.929 72.745,61.951C72.703,61.971 72.588,62.153 72.541,62.169C72.297,62.279 72.333,62.107 72.219,62.049C71.995,62.269 71.959,62.221 71.697,62.205C71.093,62.175 70.714,62.585 70.391,62.331C70.355,62.403 70.364,62.393 70.364,62.517C69.907,62.591 69.839,62.549 69.51,62.497C68.735,62.877 67.855,62.815 67.396,63.195C67.349,63.112 67.339,63.107 67.292,62.971C67.145,63.039 66.995,63.112 66.849,63.175C66.855,63.216 66.864,63.257 66.869,63.293C66.64,63.445 66.631,63.153 66.375,63.263C66.365,63.306 66.355,63.35 66.344,63.393C65.969,63.32 64.964,63.565 64.64,63.71C64.432,63.804 64.437,63.575 64.265,63.659C64.24,63.727 64.214,63.788 64.183,63.856C63.979,63.955 63.598,63.836 63.448,63.815C63.027,63.997 62.38,64.065 62.083,64.309C61.995,64.288 61.855,64.2 61.76,64.189C61.636,64.241 61.416,64.459 61.333,64.512C61.12,64.648 60.719,64.528 60.598,64.465C60.548,64.517 60.496,64.568 60.443,64.617L60.183,62.241C60.136,61.945 60.115,61.986 60.312,61.976C60.182,61.288 59.964,59.263 60.104,58.919C60.098,58.877 60.088,58.841 60.083,58.804C60.724,58.674 62.027,58.46 62.51,58.164C62.97,58.194 63.093,57.997 63.448,57.992C63.495,57.986 63.896,58.039 63.938,58.017C63.99,57.951 64.036,57.883 64.083,57.809C64.229,57.752 64.213,57.888 64.281,57.893C64.385,57.903 65.271,57.71 65.276,57.71C66.214,57.293 67.833,57.268 69.146,56.986C69.412,56.929 70.932,56.596 70.953,56.586C71.016,56.544 70.88,56.455 71.047,56.446C71.131,56.44 71.323,56.555 71.369,56.566C71.765,56.336 72.229,56.341 72.541,56.346C73.265,56.361 74.333,55.866 74.76,55.872C75.56,55.887 76.358,55.799 77.136,55.612C78.041,55.393 78.797,55.2 79.797,55.232C80.402,55.252 81.052,54.965 81.447,54.982C82.26,55.017 83.24,54.455 83.812,54.664C84.068,54.612 84.349,54.565 84.527,54.591C84.719,55.497 85.052,56.137 85.021,57.227C85.005,57.779 85.381,58.137 85.369,58.435C85.369,58.481 85.245,58.653 85.24,58.705C85.208,59.003 85.421,59.232 85.37,59.403C85.402,59.56 85.427,59.716 85.459,59.872C84.964,60.069 85.088,59.965 84.735,59.888ZM115.027,106.684C115.052,106.268 114.792,106.159 114.849,105.747C114.869,105.617 115.047,105.398 115.069,105.284C115.136,104.934 114.829,104.544 114.812,104.236C114.755,103.143 114.322,102.226 114.344,101.414C114.36,100.804 113.88,100.408 113.912,99.736C113.953,98.71 113.505,97.268 113.402,96.377L113.182,95.872C113.182,95.856 113.197,94.919 113.172,94.842C113.145,94.757 112.937,94.497 112.922,94.465L112.672,93.117C112.682,91.653 112.328,89.798 111.969,88.393C111.943,88.304 112.063,88.06 112.069,87.951C112.073,87.773 111.959,86.976 111.917,86.831C111.667,85.976 111.432,84.867 111.437,83.945C111.443,83.179 111.017,82.721 110.969,82.091C110.959,81.992 111.057,81.7 111.069,81.648C111.099,81.455 110.917,81.221 110.912,81.132C110.885,80.815 110.776,79.476 110.677,79.232C110.645,79.159 110.453,78.945 110.421,78.856C110.385,78.741 110.391,78.2 110.396,78.069C110.412,77.788 110.276,77.523 110.266,77.367C110.235,76.976 110.246,76.549 110.235,76.221C110.214,75.596 109.943,74.273 109.749,73.643C109.708,73.512 109.792,73.361 109.724,73.164C109.677,73.039 109.531,72.965 109.531,72.779C109.495,71.205 109.183,69.315 108.844,67.508C108.74,66.935 108.694,66.372 108.594,65.856C108.574,65.617 108.547,65.377 108.521,65.137C108.412,64.987 108.265,64.836 108.188,64.659C108.167,64.44 108.151,64.221 108.131,64.003C107.885,63.503 107.636,62.71 107.307,62.21C106.265,60.621 105.145,59.768 103.453,59.117C103.421,59.06 103.391,59.003 103.36,58.951C103.276,58.888 102.921,58.757 102.839,58.741C102.469,58.69 101.937,58.736 101.421,58.643C101.12,58.591 100.948,58.279 100.797,58.216C100.703,58.252 100.609,58.293 100.517,58.331L100.421,58.164C100.26,58.121 98.881,58.331 98.881,58.331C98.803,58.361 98.484,58.544 98.303,58.503C97.855,58.398 97.469,58.607 96.921,58.575C96.177,58.544 94.625,58.612 94.115,58.798C93.49,59.028 91.979,59.107 91.62,59.085L90.855,59.227C90.557,59.2 90.395,59.147 90.131,59.241C89.749,59.377 89.516,59.159 89.251,59.408C88.869,59.033 89.125,58.383 88.812,58.033C88.802,57.82 88.755,57.888 88.896,57.836C88.823,57.659 88.797,57.653 88.666,57.575C88.626,57.279 88.579,57.356 88.803,57.309C88.588,55.659 87.983,53.424 88,51.757C87.959,51.621 87.912,51.492 87.864,51.357C87.849,51.091 87.714,50.361 87.708,50.175C87.688,49.669 87.375,48.997 87.49,48.695C87.407,48.325 87.245,48.325 86.979,48.247L86.948,48.069C86.568,48.179 86.484,48.451 86.183,48.517C85.312,48.717 84.115,48.815 83.385,48.798C83.172,48.793 83.068,48.94 82.927,48.945C81.979,48.992 81.041,49.205 80.188,49.216C79.786,49.221 79.292,49.497 78.907,49.512C78.093,49.56 77.068,49.762 76.24,49.836C76.047,49.888 75.855,49.946 75.667,50.003C74.995,50.008 73.719,50.293 73.027,50.497C72.683,50.602 71.885,50.575 71.541,50.653C71.412,50.716 71.281,50.783 71.151,50.845C70.047,50.893 68.547,51.153 67.401,51.549C67.208,51.617 66.703,51.617 66.453,51.664C65.864,51.784 64.786,52.049 64.188,52.21C62.307,52.727 60.078,52.872 58.593,53.44C57.964,53.679 56.197,53.763 55.803,54.085L55.563,54.435C55.683,55.06 55.588,55.497 55.557,56.012C55.598,56.242 55.645,56.476 55.688,56.716C55.661,57.221 55.718,57.971 55.714,58.466C55.703,59.175 55.917,60.21 55.88,60.981C55.932,61.236 55.973,61.492 56.027,61.741C56.01,61.929 55.921,62.508 55.953,62.669C56.063,63.205 56.339,65.08 56.177,65.476C55.833,65.883 54.823,65.804 54.109,66.106C53.396,66.414 52.588,66.455 51.74,66.732C51.505,66.809 51.047,66.71 50.792,66.851C50.782,66.893 50.771,66.935 50.755,66.976C50.588,66.951 49.803,67.069 49.688,67.117C49.318,67.279 48.958,67.424 48.495,67.523L48.527,67.7C48.473,67.679 48.396,67.55 48.375,67.544C48.303,67.523 47.516,67.788 47.344,67.861C47,68.003 46.677,67.871 46.454,67.965C46.088,68.117 45.834,68.331 45.443,68.398C43.104,68.788 40.839,70.414 39.407,72.132C39.38,72.304 39.349,72.471 39.317,72.637C39.197,72.804 38.969,72.914 38.86,73.085C38.697,73.351 38.303,74.69 38.25,75.023C38.214,75.247 38.303,75.351 38.219,75.512C38.229,75.549 38.235,75.591 38.245,75.627C38.12,75.632 38,75.632 37.88,75.637C37.786,75.695 37.735,75.845 37.63,75.924C37.625,77.554 38.26,79.232 38.26,80.903C38.26,81.241 38.323,82.227 38.39,82.575C38.432,82.784 38.636,83.19 38.625,83.503C38.609,83.971 38.786,84.617 38.765,85.236C38.76,85.455 38.943,85.757 38.948,85.866C38.99,87.341 39.286,88.96 39.563,90.121C39.667,90.581 39.719,91.298 39.672,91.679C39.849,92.112 39.953,93.132 39.937,93.752C39.927,94.159 40.197,94.236 40.219,94.612C40.245,95.08 40.193,95.315 40.359,95.675C40.619,96.252 40.359,97.148 40.569,97.757C40.703,98.159 40.781,98.788 40.803,99.351C40.849,100.517 41.421,102.804 41.547,103.637C41.631,104.221 41.707,105.247 41.917,105.632C41.912,106.268 42.047,107.247 42.172,107.955C42.224,108.241 42.391,108.607 42.396,108.82C42.402,109.325 42.484,109.96 42.604,110.602L42.792,111.596C42.782,111.841 42.922,113.241 43.016,113.435C43.057,113.451 43.098,113.46 43.146,113.471C43.183,113.908 43.229,114.345 43.266,114.784C43.521,115.486 43.823,117.288 43.973,118.232C44.297,120.236 44.505,122.222 45.098,123.602C45.402,123.607 45.505,123.539 45.735,123.419C46.412,124.459 47.552,125.914 48.598,126.403C49.807,126.965 51.245,127.175 52.598,127.351L53.427,127.257C54.869,127.341 56.219,126.752 57.464,126.137C57.604,126.127 57.745,126.127 57.885,126.121C58.021,126.06 58.484,125.867 58.672,125.788C58.88,125.705 59.079,125.793 59.214,125.747C59.688,125.58 60.265,125.341 60.683,125.175C60.817,125.117 60.891,125.268 60.995,125.232C62.156,124.825 63.683,124.747 64.395,124.293C64.823,124.195 65.251,124.091 65.677,123.993L65.645,123.815C65.927,123.908 66.271,123.793 66.719,123.736C66.812,123.669 66.812,123.566 67.052,123.555C67.437,123.533 69.276,123.143 69.724,122.935C70.197,122.71 70.943,122.747 71.354,122.569C71.854,122.345 72.812,122.455 73.183,122.284C73.609,122.085 74.369,121.997 74.907,121.779C75.265,121.632 75.5,121.867 75.749,121.741C76.599,121.32 78.251,121.039 79.303,120.955C79.473,120.945 79.593,120.747 79.74,120.695C79.917,120.627 80.437,120.555 80.5,120.555C81.057,120.533 81.64,120.236 82.021,120.268C82.208,120.278 82.412,120.393 82.688,120.263C82.735,120.241 82.855,120.06 82.891,120.043C83.219,119.903 83.625,120.164 83.921,120.033C83.931,119.986 83.943,119.951 83.959,119.903L84.437,119.872C84.719,119.757 85.604,119.512 85.636,119.465C85.771,119.497 85.729,119.503 85.833,119.555C85.86,119.569 86.229,119.356 86.407,119.388C86.573,119.408 87.093,119.451 87.307,119.336C87.396,119.293 87.412,119.102 87.568,119.106C87.598,119.137 87.625,119.179 87.651,119.21C87.86,119.148 88.073,119.09 88.281,119.033C88.391,119.043 88.625,119.179 88.786,119.121C88.932,119.069 88.953,118.919 89.161,118.867C89.631,118.747 89.741,118.951 90.151,118.621C90.161,118.627 90.786,118.721 90.885,118.669C90.984,118.617 90.99,118.512 91.083,118.451C91.521,118.528 92.131,118.408 92.583,118.345C92.719,118.331 92.943,118.21 92.983,118.216C93.031,118.246 93.079,118.279 93.125,118.309C93.271,118.284 93.536,118.044 93.812,118.117C93.822,118.159 93.828,118.195 93.839,118.236C93.878,118.231 93.916,118.222 93.953,118.21C94.161,118.132 94.271,117.95 94.568,117.919C94.672,117.908 94.969,118.017 95.01,118.012C95.01,118.012 95.677,117.742 95.807,117.747C96.969,117.773 97.88,117.257 99.417,117.252C99.469,117.252 99.969,117.227 100.01,117.2C100.079,117.164 100.03,117.028 100.224,117.039C100.271,117.044 100.443,117.169 100.49,117.175C101.01,117.236 101.765,116.836 102.193,116.851C103.583,116.914 104.803,116.555 105.869,116.408C105.973,116.393 106.109,116.512 106.193,116.528C106.693,116.293 107.869,116.585 108.396,116.298C108.568,116.2 108.666,115.845 108.776,115.741C108.937,115.591 109.246,115.679 109.364,115.631C109.598,115.533 110.094,115.356 110.421,115.131C110.505,115.075 110.584,114.888 110.671,114.845C110.792,114.841 110.912,114.836 111.031,114.836C112.073,114.257 112.765,113.236 113.427,112.388C113.557,112.21 113.839,112.06 113.932,111.867C113.921,111.787 113.907,111.707 113.891,111.627C114.063,111.257 114.62,110.403 114.683,110.028C114.663,109.91 114.64,109.792 114.615,109.675C114.703,109.252 114.959,108.96 114.855,108.356L115.031,108.326C114.953,107.659 114.99,107.304 115.027,106.684" style="fill:rgb(62,186,90);"/>
    <path d="M55.719,101.232C57.453,100.851 58.839,100.315 60.74,99.867C60.964,99.951 62.177,99.445 62.479,99.419C62.765,99.403 64.869,98.976 65.259,98.721C65.729,98.627 66.197,98.539 66.667,98.455C67.245,98.227 68.079,98.195 68.765,98.003C69.203,97.877 69.661,97.627 70.068,97.512C70.235,97.732 70.427,97.851 70.598,98.08C70.432,98.184 70.469,98.127 70.469,98.35C70.817,98.492 70.688,99.137 70.724,99.393C70.792,99.856 70.99,100.679 71.094,101.69C71.12,101.981 71.183,102.643 71.229,103.06C71.329,103.383 71.432,103.705 71.531,104.033C71.495,104.06 71.459,104.085 71.427,104.117C71.412,104.298 71.64,104.284 71.62,104.503C71.615,104.555 71.448,104.788 71.437,104.841C71.464,104.856 71.484,104.871 71.51,104.888C71.563,104.971 71.927,106.127 71.921,106.451C71.912,107.96 72.161,108.757 72.437,110.175C74.688,109.612 77.349,109.257 79.473,108.555C79.781,108.451 82,108.143 82.073,108.184C82.339,107.903 83.229,107.877 83.812,107.736C84.907,107.486 86.464,107.361 87.667,106.96C87.541,106.273 87.412,105.59 87.281,104.903C86.984,104.555 87.016,102.945 86.771,102.148C86.036,99.82 86.161,97.607 85.229,94.918C85.369,94.732 85.531,94.418 85.859,94.372C86.364,94.304 87.125,94.065 87.979,94.039C88.5,94.023 88.912,93.769 89.329,93.784C90.109,93.82 91.031,93.361 91.74,93.394C92.03,93.341 92.328,93.284 92.62,93.232C93.303,93.107 93.714,93.022 94.224,93.055C95.031,93.095 95.677,92.669 96.464,92.695C97.391,92.721 98.194,92.356 98.943,92.351C98.917,92.195 98.885,92.039 98.86,91.883C98.964,91.607 98.714,91.112 98.708,90.757C98.698,90.393 98.588,89.08 98.453,88.741C98.396,88.612 98.235,88.32 98.251,87.992C98.281,87.304 98.016,86.227 97.896,85.451C97.86,85.221 97.697,84.825 97.693,84.7C97.645,83.216 97.276,81.35 97.005,79.732C95.645,79.851 94.49,80.236 93.26,80.132C92.875,80.222 92.484,80.315 92.098,80.408C91.38,80.378 89.703,80.612 89.031,80.861C88.693,80.986 87.901,80.955 87.588,80.951C87.115,80.945 86.328,81.503 85.891,81.268C85.896,81.304 85.907,81.345 85.912,81.383C85.651,81.393 85.391,81.398 85.131,81.408C84.557,81.498 83.333,81.851 83.255,81.763C83.047,81.617 82.943,81.393 82.875,81.043C83.437,80.7 82.755,79.836 82.781,79.241C82.786,79.081 82.901,78.798 82.771,78.517C82.36,77.643 81.959,76.268 82.016,75.137C82.031,74.768 81.828,74.175 81.724,73.919C81.62,73.648 81.719,73.137 81.724,72.951C81.665,72.838 81.604,72.727 81.541,72.617C81.464,71.845 81.364,71.361 81.214,70.56C80.719,70.7 80.057,70.888 79.479,71.003C79.093,71.08 78.765,70.935 78.177,71.183C77.88,71.315 77.74,71.085 77.517,71.19C76.714,71.56 75.828,71.517 74.792,71.883C74.755,71.893 74.5,71.815 74.479,71.82C74.364,71.825 74.057,71.997 73.973,72.033C73.402,72.121 72.833,72.205 72.26,72.293C71.661,72.56 70.948,72.643 70.443,72.632C69.615,73.091 68.297,73.195 67.255,73.414C67.183,73.591 67.131,73.585 67.156,73.856C67.046,74.455 67.51,75.017 67.516,75.788C67.526,76.627 67.781,77.845 67.855,78.883C67.703,78.924 67.745,78.872 67.781,79.137C67.927,79.2 68.063,79.907 68.047,80.241C67.995,81.304 68.427,82.414 68.36,83.216C68.328,83.653 68.604,84.184 68.521,84.398C68.5,84.549 68.516,84.498 68.437,84.596C67.979,85.106 66.677,85.232 65.807,85.451C65.588,85.508 65.615,85.345 65.432,85.398C64.36,85.732 63.26,86.023 62.042,86.398C61.864,86.455 61.542,86.44 61.328,86.471C61.083,86.659 59.286,86.96 58.792,87.19C58.505,87.32 57.745,87.336 57.442,87.445C57.344,87.476 57.229,87.621 57.057,87.637L56.86,87.549C56.755,87.602 56.427,87.851 56.197,87.919L55.885,87.856C55.245,88.132 54.505,88.263 53.771,88.555C53.803,88.71 53.828,88.867 53.86,89.023C53.797,89.227 53.937,89.304 54.005,89.481C53.912,90.028 54.167,91.216 54.172,91.997C54.24,92.227 54.302,92.455 54.364,92.69C54.344,93.695 54.76,94.46 54.854,95.632C55,97.502 55.344,99.175 55.719,101.232" style="fill:white;"/>
    <g transform="matrix(0.738892,0,0,0.765697,63.7692,14.3967)">
        <path d="M15.914,0.043C14.878,0.047 14.043,0.883 14.039,1.918C14.039,2.949 14.882,3.793 15.914,3.793C16.944,3.793 17.789,2.949 17.789,1.918C17.789,0.888 16.944,0.043 15.914,0.043ZM15.914,0.793C16.539,0.793 17.039,1.293 17.039,1.918C17.039,2.543 16.539,3.043 15.914,3.043C15.612,3.043 15.328,2.927 15.117,2.715C14.905,2.504 14.789,2.22 14.789,1.918C14.789,1.293 15.289,0.793 15.914,0.793Z" style="fill:white;fill-rule:nonzero;"/>
        <path d="M15.914,2.293C16.328,2.293 16.664,2.629 16.664,3.043L16.664,4.543C16.664,4.957 16.328,5.293 15.914,5.293C15.5,5.293 15.164,4.957 15.164,4.543L15.164,3.043C15.164,2.629 15.5,2.293 15.914,2.293Z" style="fill:white;fill-rule:nonzero;"/>
        <path d="M15.914,12.493C11.617,12.493 8.117,15.993 8.117,20.29C8.117,24.59 11.617,28.086 15.914,28.086C20.21,28.086 23.71,24.59 23.71,20.29C23.71,15.993 20.21,12.493 15.914,12.493ZM15.914,13.691C17.664,13.691 19.344,14.388 20.582,15.622C21.819,16.859 22.512,18.54 22.512,20.29C22.512,22.04 21.819,23.72 20.582,24.957C19.344,26.195 17.664,26.891 15.914,26.888C14.164,26.891 12.484,26.195 11.246,24.957C10.007,23.72 9.316,22.04 9.316,20.29C9.316,18.54 10.007,16.859 11.246,15.622C12.484,14.383 14.164,13.691 15.914,13.691Z" style="fill:white;fill-rule:nonzero;"/>
        <path d="M15.914,4.629C7.273,4.629 0.25,11.649 0.25,20.293C0.25,28.938 7.273,35.958 15.914,35.958C24.559,35.958 31.578,28.938 31.578,20.293C31.578,11.649 24.559,4.629 15.914,4.629ZM15.914,5.957C23.839,5.957 30.25,12.368 30.25,20.293C30.25,28.22 23.839,34.629 15.914,34.629C7.987,34.629 1.578,28.22 1.578,20.293C1.578,12.368 7.987,5.957 15.914,5.957Z" style="fill:white;fill-rule:nonzero;"/>
        <path d="M24.605,11.599L18.246,22.199L7.648,28.559L14.007,17.957L24.605,11.599Z" style="fill:rgb(0,182,227);fill-rule:nonzero;"/>
        <path d="M18.246,22.199L7.648,28.559L14.007,17.957L18.246,22.199Z" style="fill:rgb(255,69,0);fill-rule:nonzero;"/>
        <path d="M17.109,21.066C16.523,21.652 15.573,21.652 14.987,21.066C14.402,20.481 14.402,19.531 14.987,18.945C15.573,18.359 16.523,18.359 17.109,18.945C17.694,19.531 17.694,20.481 17.109,21.066Z" style="fill:white;fill-rule:nonzero;"/>
        <path d="M14.785,6.793C14.578,6.797 14.414,6.965 14.414,7.172L14.414,10.165C14.414,10.372 14.582,10.54 14.789,10.54C14.996,10.54 15.164,10.372 15.164,10.165L15.164,7.172C15.168,7.07 15.125,6.973 15.055,6.902C14.984,6.832 14.887,6.793 14.785,6.793ZM17.035,6.793C16.828,6.797 16.664,6.965 16.664,7.172L16.664,10.165C16.664,10.372 16.832,10.54 17.039,10.54C17.246,10.54 17.414,10.372 17.414,10.165L17.414,7.172C17.418,7.07 17.375,6.973 17.305,6.902C17.234,6.832 17.137,6.793 17.035,6.793Z" style="fill:white;"/>
        <path d="M14.766,6.797C14.625,6.806 14.503,6.888 14.444,7.016C14.387,7.141 14.405,7.29 14.487,7.398L16.737,10.388C16.862,10.556 17.098,10.586 17.266,10.461C17.43,10.336 17.464,10.102 17.339,9.938L15.089,6.945C15.016,6.845 14.891,6.786 14.766,6.797ZM15.617,30.043C15.41,30.043 15.242,30.211 15.242,30.418C15.242,30.625 15.41,30.793 15.617,30.793L17.03,30.793C17.237,30.793 17.405,30.625 17.405,30.418C17.405,30.211 17.237,30.043 17.03,30.043L15.617,30.043ZM14.796,33.043C14.589,33.043 14.421,33.211 14.421,33.418C14.421,33.625 14.589,33.793 14.796,33.793L16.285,33.793C16.492,33.793 16.66,33.625 16.66,33.418C16.66,33.211 16.492,33.043 16.285,33.043L14.796,33.043ZM15.546,31.543C15.339,31.543 15.171,31.711 15.171,31.918C15.171,32.125 15.339,32.293 15.546,32.293L16.289,32.293C16.496,32.293 16.664,32.125 16.664,31.918C16.664,31.711 16.496,31.543 16.289,31.543L15.546,31.543Z" style="fill:white;"/>
        <path d="M16.273,31.543C16.066,31.543 15.898,31.711 15.898,31.918C15.898,32.125 16.066,32.293 16.273,32.293C16.5,32.293 16.664,32.458 16.664,32.668C16.664,32.879 16.5,33.043 16.273,33.043C16.066,33.043 15.898,33.211 15.898,33.418C15.898,33.625 16.066,33.793 16.273,33.793C16.894,33.793 17.414,33.29 17.414,32.668C17.414,32.047 16.894,31.543 16.273,31.543Z" style="fill:white;fill-rule:nonzero;"/>
        <path d="M15.559,30.043C14.941,30.043 14.418,30.547 14.418,31.168C14.418,31.79 14.941,32.293 15.559,32.293C15.769,32.293 15.934,32.125 15.934,31.918C15.934,31.711 15.769,31.543 15.559,31.543C15.335,31.543 15.168,31.379 15.168,31.168C15.168,30.957 15.335,30.793 15.559,30.793C15.769,30.793 15.934,30.625 15.934,30.418C15.934,30.211 15.769,30.043 15.559,30.043Z" style="fill:white;fill-rule:nonzero;"/>
        <path d="M2.785,18.047C2.578,18.047 2.414,18.22 2.414,18.427L2.414,21.418C2.414,21.625 2.582,21.793 2.789,21.793C2.996,21.793 3.164,21.625 3.164,21.418L3.164,18.427C3.168,18.324 3.125,18.227 3.055,18.152C2.984,18.082 2.887,18.043 2.785,18.047ZM5.03,18.047C4.828,18.047 4.66,18.22 4.664,18.427L4.664,21.418C4.664,21.625 4.832,21.793 5.039,21.793C5.246,21.793 5.414,21.625 5.414,21.418L5.414,18.427C5.414,18.324 5.375,18.227 5.305,18.152C5.23,18.082 5.132,18.043 5.03,18.047Z" style="fill:white;"/>
        <path d="M3.921,19.845C3.769,19.84 3.628,19.931 3.566,20.066C3.503,20.207 3.535,20.372 3.641,20.481L4.766,21.677C4.905,21.824 5.144,21.832 5.296,21.691C5.448,21.552 5.453,21.313 5.312,21.161L4.187,19.965C4.117,19.891 4.023,19.848 3.921,19.845Z" style="fill:white;"/>
        <path d="M3.894,19.845C3.796,19.852 3.707,19.895 3.641,19.965L2.519,21.161C2.375,21.313 2.382,21.552 2.535,21.691C2.687,21.832 2.921,21.824 3.066,21.677L4.187,20.481C4.296,20.372 4.323,20.204 4.262,20.063C4.194,19.922 4.051,19.836 3.894,19.845ZM26.793,18.043C26.585,18.043 26.418,18.211 26.418,18.418C26.418,18.625 26.585,18.793 26.793,18.793L29.035,18.793C29.242,18.793 29.41,18.625 29.41,18.418C29.41,18.211 29.242,18.043 29.035,18.043L26.793,18.043Z" style="fill:white;"/>
        <path d="M26.777,18.043C26.569,18.047 26.405,18.215 26.41,18.422L26.41,21.418C26.41,21.625 26.578,21.793 26.785,21.793C26.992,21.793 27.16,21.625 27.16,21.418L27.16,18.422C27.16,18.32 27.121,18.223 27.051,18.152C26.977,18.082 26.878,18.043 26.777,18.043Z" style="fill:white;"/>
        <path d="M26.793,19.543C26.585,19.543 26.418,19.711 26.418,19.918C26.418,20.125 26.585,20.293 26.793,20.293L28.434,20.293C28.641,20.293 28.809,20.125 28.809,19.918C28.809,19.711 28.641,19.543 28.434,19.543L26.793,19.543ZM26.793,21.043C26.585,21.043 26.418,21.211 26.418,21.418C26.418,21.625 26.585,21.793 26.793,21.793L29.035,21.793C29.242,21.793 29.41,21.625 29.41,21.418C29.41,21.211 29.242,21.043 29.035,21.043L26.793,21.043Z" style="fill:white;"/>
    </g>
</svg>
