<?xml version="1.0" encoding="UTF-8" standalone="no"?>
<!DOCTYPE svg PUBLIC "-//W3C//DTD SVG 1.1//EN" "http://www.w3.org/Graphics/SVG/1.1/DTD/svg11.dtd">
<svg width="100%" height="100%" viewBox="0 0 152 154" version="1.1" xmlns="http://www.w3.org/2000/svg" xmlns:xlink="http://www.w3.org/1999/xlink" xml:space="preserve" xmlns:serif="http://www.serif.com/" style="fill-rule:evenodd;clip-rule:evenodd;stroke-linejoin:round;stroke-miterlimit:2;">
    <path d="M75.588,0.82C33.844,0.82 0,34.664 0,76.408C0,118.158 33.844,152.003 75.588,152.003C117.338,152.003 151.183,118.159 151.183,76.408C151.183,34.664 117.339,0.82 75.588,0.82" style="fill:rgb(238,42,34);"/>
    <path d="M141.735,76.408C141.735,112.94 112.12,142.549 75.593,142.549C39.063,142.549 9.448,112.94 9.448,76.408C9.448,39.883 39.063,10.268 75.593,10.268C112.12,10.268 141.735,39.883 141.735,76.408" style="fill:rgb(37,72,127);"/>
    <path d="M127.27,86.153C126.812,83.924 123.979,84.065 122.563,82.793C124.333,82.659 126.807,83.227 127.609,82.121C129.317,81.371 130.317,79.914 130.964,78.096C129.516,78.2 128.276,75.741 128.276,75.741C124.536,75.731 127.006,73.252 125.921,70.705L125.921,67.68C124.364,67.794 124.057,68.201 122.901,67.68C120.995,67.456 119.849,67.987 118.536,68.352C117.74,68.456 117.906,69.518 116.855,69.362C116.807,67.946 115.552,67.748 115.505,66.337C113.427,67.504 109.407,70.961 107.443,73.727C107.688,72.389 107.781,70.707 107.781,70.707C106.891,63.316 98.052,67.545 99.381,73.056C98.276,75.899 101.459,81.936 97.364,84.138C96.609,81.873 96.125,78.299 95.688,76.753C95.312,74.529 92.01,72.269 90.645,74.066C83.255,77.128 89.755,83.982 90.307,90.185C90.068,91.43 90.88,91.628 90.645,92.873C89.973,93.326 89.047,93.513 88.292,93.883L88.292,100.263C92.5,100.185 92.322,95.228 92.322,95.228C93.193,94.889 93.407,92.78 92.995,92.201C93.125,91.321 93.172,90.357 93.667,89.851C94.672,91.737 94.079,94.342 94.339,96.233C98.088,94.723 100.964,92.326 102.74,88.843C102.724,87.201 103.495,85.78 104.083,83.799C104.839,86.034 103.541,88.466 103.079,89.852C103.631,91.228 109.38,86.185 109.459,85.816C109.235,83.061 110.063,80.436 111.473,78.096C111.005,80.269 110.5,83.556 110.469,84.477C111.792,84.567 113.604,80.789 117.527,78.769C116.297,80.228 113.864,83.409 112.151,85.482C114.953,85.987 117.193,86.222 119.541,86.487C119.541,86.827 119.812,86.889 119.881,87.16C111.973,85.493 105.104,89.056 103.079,93.211C104.829,93.368 108.609,94.394 110.469,95.561C106.786,94.811 101.448,94.196 99.719,95.228C97.208,95.966 95.797,97.799 93.667,98.92C91.593,100.66 88.88,101.748 86.953,103.628C85.688,106.285 84.01,108.529 82.579,111.018C87.74,108.618 95.093,115.603 96.355,109.004C97.251,107.086 93.453,106.987 91.651,106.649C92.839,104.056 96.598,106.889 98.375,106.982C100.339,107.821 101.521,109.442 104.421,109.337C106.297,109.285 107.891,108.013 107.109,106.316C107.412,104.545 104.047,101.769 102.069,102.285C101.427,102.138 101.459,101.321 100.391,101.613L100.391,101.274C99.333,101.436 99.016,100.857 98.708,100.264C100.885,99.561 103.443,100.138 105.093,100.941C107.817,101.794 110.631,104.998 113.828,103.289C113.918,102.305 113.068,102.259 113.156,101.274C116.016,100.222 118.469,102.529 120.546,100.941C121,100.831 121.188,100.461 121.891,100.603C122.36,99.274 123.625,98.748 123.907,97.243C123.276,97.316 123.167,96.863 122.563,96.909C120.849,92.799 115.553,93.774 112.817,91.196C116.598,91.092 118.598,93.57 120.547,90.524C122.38,92.868 129.281,92.633 129.287,89.852C128.49,88.737 128.5,86.826 127.271,86.154L127.27,86.153ZM82.245,115.721C81.416,113.081 78.817,112.2 74.855,112.695C73.453,112.981 73.265,112.044 72.161,112.023C69.671,114.58 68.547,117.445 66.792,120.085C68.735,120.721 69.286,122.747 71.156,123.451C71.672,121.836 72.369,120.403 72.839,118.747C74.469,117.351 74.636,114.497 76.869,113.705C79.167,116.112 80.259,121.512 81.573,123.784C82.672,123.356 82.286,123.298 83.251,123.112L83.588,123.112C83.625,122.252 84.714,122.445 85.609,122.44C85.421,120.383 84.349,119.221 83.588,117.736C83.24,116.966 82.896,116.19 82.245,115.721ZM21.093,88.503C21.557,91.71 27.208,93.065 29.495,90.523C31.432,93.085 33.541,91.403 37.219,90.523L37.219,90.856C38.375,90.935 38.683,91.856 38.902,92.872C37.735,93.142 37.615,92.372 36.547,92.539L35.875,92.539C31.579,91.675 26.271,98.284 32.183,100.263C34.145,100.283 35.136,101.336 36.547,100.263C36.749,100.069 38.14,99.476 38.229,100.263C37.229,101.669 38.604,104.304 39.573,103.627C44.265,101.94 45.36,97.268 52.339,98.919C52.615,100.107 54.391,99.784 54.359,101.273C52.672,101.493 50.109,100.831 48.979,101.612L48.645,101.612C46.177,102.169 44.683,103.695 43.943,105.976C44.203,106.055 44.339,106.919 44.615,106.981C49.605,113.055 55.88,99.19 60.068,106.315C57.698,106.241 57.921,106.679 55.703,106.648C55.453,107.492 55.656,107.71 54.693,108.325C56.453,113.992 65.073,109.298 68.803,107.992C65.521,105.471 66.979,99.809 64.776,97.242C63.052,95.236 56.869,92.94 53.349,92.872C49.645,92.424 46.01,93.82 43.609,93.544C46.193,92.851 48.765,92.44 50.661,91.867C51.979,91.841 53.188,91.7 54.021,91.195C50.719,88.727 46.667,86.976 42.26,86.486C40.776,85.736 37.828,86.44 36.547,85.481C36.547,85.481 42.459,85.455 42.932,85.481C37.068,81.315 35.224,78.298 32.855,75.408C33.99,75.575 38.12,81.575 47.636,86.153C46.636,81.445 45.926,75.773 47.636,74.736C47.297,75.706 47.683,81.575 50.661,87.831C52.364,87.809 52.833,89.023 54.36,89.175C55.568,90.32 57.172,91.065 58.724,91.867C59.286,91.2 58.697,91.44 58.724,90.523C57.64,87.341 58.754,85.055 58.724,84.137C59.412,86.044 59.396,87.221 59.734,89.851C60.036,91.081 61.01,92.008 60.407,93.211C61.823,94.143 62.953,95.367 64.437,96.231C65.464,95.539 64.464,94.055 64.776,92.2C64.271,92.143 63.536,92.32 63.426,91.867C63.541,86.549 65.083,84.647 65.448,80.107C66.125,79.309 65.448,76.08 65.448,76.08C65.125,73.497 61.427,71.05 59.063,72.721C58.86,72.736 58.661,72.773 58.724,73.055C55.864,74.293 55.464,77.569 55.364,80.779C55.459,81.653 55.24,82.221 54.36,82.121C53.604,80.747 53.104,79.121 53.35,76.752C53.412,74.325 53.453,70.075 52.005,68.69C49.563,62.012 42.844,67.46 43.271,72.721C42.047,71.705 42.464,70.914 41.921,69.023C37.464,61.132 34.328,67.845 34.869,69.023C33.547,68.549 33.369,66.94 31.51,67.008C29.098,65.252 26.402,67.538 24.792,66.669C24.844,67.736 23.896,67.793 24.12,69.023L23.781,69.023C23.464,72.028 26.265,71.913 26.807,74.065L25.797,74.065C23.927,75.232 20.891,75.82 20.421,77.424C20.292,79.612 23.109,79.774 23.109,79.774C26.245,80.284 29.812,79.309 31.172,82.794C30.49,83.383 27.364,83.356 26.807,82.794C23.964,82.621 21.24,85.997 21.093,88.503" style="fill:white;"/>
    <path d="M68.13,90.523C67.964,96.293 69.521,109.012 75.527,109.336C82.588,109.721 84.917,97.055 83.251,90.856C83.531,98.304 81.208,103.148 77.208,106.315C79.765,101.809 80.86,96.164 79.218,90.184C75.729,89.367 71.438,90.091 68.131,90.523L68.13,90.523ZM77.208,75.741C85.438,77.179 89.245,83.549 88.964,92.539C88.156,92.675 88.234,91.924 87.286,92.2C88.636,99.914 83.052,115.721 73.506,111.69C68.131,109.414 66.729,100.102 66.453,91.867C66.464,90.555 64.76,91.804 64.776,91.195C65.636,85.575 66.396,77.216 73.844,77.085C72.474,73.195 70.167,70.236 66.454,68.69C68.312,67.19 70.385,65.898 72.839,64.992C74.88,68.528 76.708,71.336 77.208,75.742" style="fill:rgb(247,239,39);"/>
    <path d="M75.864,80.107C77.276,81.945 74.339,86.217 73.505,85.481C72.693,86.19 73.807,86.976 73.172,87.497C72.969,87.965 71.88,87.549 71.828,88.169C70.792,87.752 69.807,85.263 69.473,84.476C70.098,82.966 72.01,82.746 71.828,80.446C73.547,80.71 74.271,79.976 75.864,80.106" style="fill:rgb(37,72,127);"/>
    <g transform="matrix(0.738892,0,0,0.765697,64.1777,15.5226)">
        <path d="M15.914,0.043C14.878,0.047 14.043,0.883 14.039,1.918C14.039,2.949 14.882,3.793 15.914,3.793C16.944,3.793 17.789,2.949 17.789,1.918C17.789,0.888 16.944,0.043 15.914,0.043ZM15.914,0.793C16.539,0.793 17.039,1.293 17.039,1.918C17.039,2.543 16.539,3.043 15.914,3.043C15.612,3.043 15.328,2.927 15.117,2.715C14.905,2.504 14.789,2.22 14.789,1.918C14.789,1.293 15.289,0.793 15.914,0.793Z" style="fill:white;fill-rule:nonzero;"/>
        <path d="M15.914,2.293C16.328,2.293 16.664,2.629 16.664,3.043L16.664,4.543C16.664,4.957 16.328,5.293 15.914,5.293C15.5,5.293 15.164,4.957 15.164,4.543L15.164,3.043C15.164,2.629 15.5,2.293 15.914,2.293Z" style="fill:white;fill-rule:nonzero;"/>
        <path d="M15.914,12.493C11.617,12.493 8.117,15.993 8.117,20.29C8.117,24.59 11.617,28.086 15.914,28.086C20.21,28.086 23.71,24.59 23.71,20.29C23.71,15.993 20.21,12.493 15.914,12.493ZM15.914,13.691C17.664,13.691 19.344,14.388 20.582,15.622C21.819,16.859 22.512,18.54 22.512,20.29C22.512,22.04 21.819,23.72 20.582,24.957C19.344,26.195 17.664,26.891 15.914,26.888C14.164,26.891 12.484,26.195 11.246,24.957C10.007,23.72 9.316,22.04 9.316,20.29C9.316,18.54 10.007,16.859 11.246,15.622C12.484,14.383 14.164,13.691 15.914,13.691Z" style="fill:white;fill-rule:nonzero;"/>
        <path d="M15.914,4.629C7.273,4.629 0.25,11.649 0.25,20.293C0.25,28.938 7.273,35.958 15.914,35.958C24.559,35.958 31.578,28.938 31.578,20.293C31.578,11.649 24.559,4.629 15.914,4.629ZM15.914,5.957C23.839,5.957 30.25,12.368 30.25,20.293C30.25,28.22 23.839,34.629 15.914,34.629C7.987,34.629 1.578,28.22 1.578,20.293C1.578,12.368 7.987,5.957 15.914,5.957Z" style="fill:white;fill-rule:nonzero;"/>
        <path d="M24.605,11.599L18.246,22.199L7.648,28.559L14.007,17.957L24.605,11.599Z" style="fill:rgb(0,182,227);fill-rule:nonzero;"/>
        <path d="M18.246,22.199L7.648,28.559L14.007,17.957L18.246,22.199Z" style="fill:rgb(255,69,0);fill-rule:nonzero;"/>
        <path d="M17.109,21.066C16.523,21.652 15.573,21.652 14.987,21.066C14.402,20.481 14.402,19.531 14.987,18.945C15.573,18.359 16.523,18.359 17.109,18.945C17.694,19.531 17.694,20.481 17.109,21.066Z" style="fill:white;fill-rule:nonzero;"/>
        <path d="M14.785,6.793C14.578,6.797 14.414,6.965 14.414,7.172L14.414,10.165C14.414,10.372 14.582,10.54 14.789,10.54C14.996,10.54 15.164,10.372 15.164,10.165L15.164,7.172C15.168,7.07 15.125,6.973 15.055,6.902C14.984,6.832 14.887,6.793 14.785,6.793ZM17.035,6.793C16.828,6.797 16.664,6.965 16.664,7.172L16.664,10.165C16.664,10.372 16.832,10.54 17.039,10.54C17.246,10.54 17.414,10.372 17.414,10.165L17.414,7.172C17.418,7.07 17.375,6.973 17.305,6.902C17.234,6.832 17.137,6.793 17.035,6.793Z" style="fill:white;"/>
        <path d="M14.766,6.797C14.625,6.806 14.503,6.888 14.444,7.016C14.387,7.141 14.405,7.29 14.487,7.398L16.737,10.388C16.862,10.556 17.098,10.586 17.266,10.461C17.43,10.336 17.464,10.102 17.339,9.938L15.089,6.945C15.016,6.845 14.891,6.786 14.766,6.797ZM15.617,30.043C15.41,30.043 15.242,30.211 15.242,30.418C15.242,30.625 15.41,30.793 15.617,30.793L17.03,30.793C17.237,30.793 17.405,30.625 17.405,30.418C17.405,30.211 17.237,30.043 17.03,30.043L15.617,30.043ZM14.796,33.043C14.589,33.043 14.421,33.211 14.421,33.418C14.421,33.625 14.589,33.793 14.796,33.793L16.285,33.793C16.492,33.793 16.66,33.625 16.66,33.418C16.66,33.211 16.492,33.043 16.285,33.043L14.796,33.043ZM15.546,31.543C15.339,31.543 15.171,31.711 15.171,31.918C15.171,32.125 15.339,32.293 15.546,32.293L16.289,32.293C16.496,32.293 16.664,32.125 16.664,31.918C16.664,31.711 16.496,31.543 16.289,31.543L15.546,31.543Z" style="fill:white;"/>
        <path d="M16.273,31.543C16.066,31.543 15.898,31.711 15.898,31.918C15.898,32.125 16.066,32.293 16.273,32.293C16.5,32.293 16.664,32.458 16.664,32.668C16.664,32.879 16.5,33.043 16.273,33.043C16.066,33.043 15.898,33.211 15.898,33.418C15.898,33.625 16.066,33.793 16.273,33.793C16.894,33.793 17.414,33.29 17.414,32.668C17.414,32.047 16.894,31.543 16.273,31.543Z" style="fill:white;fill-rule:nonzero;"/>
        <path d="M15.559,30.043C14.941,30.043 14.418,30.547 14.418,31.168C14.418,31.79 14.941,32.293 15.559,32.293C15.769,32.293 15.934,32.125 15.934,31.918C15.934,31.711 15.769,31.543 15.559,31.543C15.335,31.543 15.168,31.379 15.168,31.168C15.168,30.957 15.335,30.793 15.559,30.793C15.769,30.793 15.934,30.625 15.934,30.418C15.934,30.211 15.769,30.043 15.559,30.043Z" style="fill:white;fill-rule:nonzero;"/>
        <path d="M2.785,18.047C2.578,18.047 2.414,18.22 2.414,18.427L2.414,21.418C2.414,21.625 2.582,21.793 2.789,21.793C2.996,21.793 3.164,21.625 3.164,21.418L3.164,18.427C3.168,18.324 3.125,18.227 3.055,18.152C2.984,18.082 2.887,18.043 2.785,18.047ZM5.03,18.047C4.828,18.047 4.66,18.22 4.664,18.427L4.664,21.418C4.664,21.625 4.832,21.793 5.039,21.793C5.246,21.793 5.414,21.625 5.414,21.418L5.414,18.427C5.414,18.324 5.375,18.227 5.305,18.152C5.23,18.082 5.132,18.043 5.03,18.047Z" style="fill:white;"/>
        <path d="M3.921,19.845C3.769,19.84 3.628,19.931 3.566,20.066C3.503,20.207 3.535,20.372 3.641,20.481L4.766,21.677C4.905,21.824 5.144,21.832 5.296,21.691C5.448,21.552 5.453,21.313 5.312,21.161L4.187,19.965C4.117,19.891 4.023,19.848 3.921,19.845Z" style="fill:white;"/>
        <path d="M3.894,19.845C3.796,19.852 3.707,19.895 3.641,19.965L2.519,21.161C2.375,21.313 2.382,21.552 2.535,21.691C2.687,21.832 2.921,21.824 3.066,21.677L4.187,20.481C4.296,20.372 4.323,20.204 4.262,20.063C4.194,19.922 4.051,19.836 3.894,19.845ZM26.793,18.043C26.585,18.043 26.418,18.211 26.418,18.418C26.418,18.625 26.585,18.793 26.793,18.793L29.035,18.793C29.242,18.793 29.41,18.625 29.41,18.418C29.41,18.211 29.242,18.043 29.035,18.043L26.793,18.043Z" style="fill:white;"/>
        <path d="M26.777,18.043C26.569,18.047 26.405,18.215 26.41,18.422L26.41,21.418C26.41,21.625 26.578,21.793 26.785,21.793C26.992,21.793 27.16,21.625 27.16,21.418L27.16,18.422C27.16,18.32 27.121,18.223 27.051,18.152C26.977,18.082 26.878,18.043 26.777,18.043Z" style="fill:white;"/>
        <path d="M26.793,19.543C26.585,19.543 26.418,19.711 26.418,19.918C26.418,20.125 26.585,20.293 26.793,20.293L28.434,20.293C28.641,20.293 28.809,20.125 28.809,19.918C28.809,19.711 28.641,19.543 28.434,19.543L26.793,19.543ZM26.793,21.043C26.585,21.043 26.418,21.211 26.418,21.418C26.418,21.625 26.585,21.793 26.793,21.793L29.035,21.793C29.242,21.793 29.41,21.625 29.41,21.418C29.41,21.211 29.242,21.043 29.035,21.043L26.793,21.043Z" style="fill:white;"/>
    </g>
</svg>
